<svg height="29" viewBox="0 0 124 29" width="124" xmlns="http://www.w3.org/2000/svg"><path d="m83.5 651c8.0081289 0 14.5 6.491871 14.5 14.5s-6.4918711 14.5-14.5 14.5-14.5-6.491871-14.5-14.5 6.4918711-14.5 14.5-14.5zm24.5.5v18.5c0 2.761424 2.238576 5 5 5 2.688755 0 4.881818-2.122307 4.99538-4.78311l.00462-.21689v-18.5h5v18.5c0 5.522847-4.477153 10-10 10s-10-4.477153-10-10v-18.5zm36 0v5h-6v23h-5v-23h-6v-5zm-87 0c4.418278 0 8 3.581722 8 8 0 1.729688-.5489358 3.331166-1.4821 4.639725 2.1112308 1.545385 3.4821 4.042738 3.4821 6.860275 0 4.69442-3.8055796 8.5-8.5 8.5h-9.5v-28zm-22.184 0 11.373276 28-5.420276-.000536-2.029-5.001.0207207.000616-5.666-13.953-5.667 13.953 5.9162793-.000616 2.029 5.001-15.373.000536 11.372-28zm48.684 4.5c-5.2467051 0-9.5 4.253295-9.5 9.5s4.2532949 9.5 9.5 9.5 9.5-4.253295 9.5-9.5-4.2532949-9.5-9.5-9.5zm-25 11.5h-4.5v7h4.5c1.9329966 0 3.5-1.567003 3.5-3.5 0-1.868563-1.4642776-3.395126-3.3079648-3.494821zm-1.5-11h-3v6h3c1.6568542 0 3-1.343146 3-3 0-1.597681-1.24892-2.903661-2.8237272-2.994907z" fill="#fff" transform="translate(-20 -651)"/></svg>