<?xml version="1.0" encoding="UTF-8"?>
<svg width="249px" height="30px" viewBox="0 0 249 30" version="1.1" xmlns="http://www.w3.org/2000/svg" xmlns:xlink="http://www.w3.org/1999/xlink">
    <!-- Generator: Sketch 53.2 (72643) - https://sketchapp.com -->
    <title>for the atypical ones</title>
    <desc>Created with Sketch.</desc>
    <g id="Page-1" stroke="none" stroke-width="1" fill="none" fill-rule="evenodd">
        <g id="pc端设计_首页_v2" transform="translate(-596.000000, -824.000000)" fill-rule="nonzero" stroke="#000000" stroke-width="0.3">
            <g id="for-the-atypical-ones" transform="translate(597.000000, 825.000000)">
                <path d="M242.540953,9.18184556 L242.270349,9.18778631 C241.281765,9.23738056 240.445619,9.55986862 239.745121,10.1580085 C239.010065,10.8001309 238.65076,11.5962346 238.65076,12.5842288 C238.65076,13.3160771 238.980228,13.8928964 239.386558,14.3379156 C239.687131,14.6681864 240.024813,15.0202645 240.776165,15.377753 L241.034618,15.4970937 L242.698855,16.2450728 L243.069137,16.4143914 C244.126376,16.9864395 244.787216,17.6569768 244.787216,18.4339271 C244.787216,19.7038896 243.646176,20.4189601 242.499288,20.4189601 C241.791487,20.4189601 241.165838,20.1968892 240.65546,19.7636885 C240.503541,19.6378294 240.334843,19.4463897 240.138209,19.1782953 L240.016787,19.0081515 L239.908305,18.8479635 L238.111802,19.6109978 L238.212369,19.7816862 C238.961092,20.9855518 240.008133,21.6905717 241.385319,21.9180629 L241.647418,21.9551267 L241.917302,21.9810296 L242.170903,21.9951202 L242.439999,22 C243.711606,22 244.779806,21.6405956 245.66328,20.919785 C246.561623,20.1683847 247,19.5657158 247,18.148907 C247,17.3031556 246.501564,16.5086057 246.004457,16.0313948 C245.525823,15.571918 244.843695,15.1935558 243.486327,14.6235385 L242.626442,14.2755249 C241.261679,13.7095677 240.581919,13.0975008 240.581919,12.3399258 C240.581919,11.8867097 240.699846,11.5744424 241.044882,11.2800448 C241.372601,11.0004225 241.914808,10.8597613 242.366871,10.8597613 C243.06902,10.8597613 243.493833,11.2766839 244.095086,11.7648281 L244.132459,11.8188919 L245.840095,10.9846412 L245.744383,10.8386501 C245.150063,9.98257762 244.395507,9.46534133 243.461376,9.27051928 L243.242611,9.23127621 L243.017417,9.20343494 L242.782715,9.18652719 L242.540953,9.18184556 Z M70.4026752,9.20837559 C68.6513791,9.20837559 67.2578183,9.78688767 66.2062712,10.9448135 C65.1557541,12.1272017 64.6296346,13.6768957 64.6296346,15.6057422 C64.6296346,15.8714715 64.6397699,16.1298112 64.6598935,16.3797981 L64.6975516,16.7483932 L64.7566362,17.1433401 C64.974746,18.3849558 65.4734584,19.4227695 66.25313,20.2618217 C67.3320332,21.4146575 68.7609049,21.9901929 70.5565178,21.9901929 C71.1862458,21.9901929 71.7686134,21.9236382 72.3038252,21.79091 C72.8340165,21.6594269 73.3267714,21.452243 73.7829932,21.169079 C74.2412779,20.8846346 74.6720326,20.5208951 75.0753622,20.0772366 L75.1874061,19.9511711 L75.2975861,19.8205779 L73.7686909,18.3301176 L73.6375232,18.4907765 L73.511502,18.6342206 C73.2408567,18.9319277 72.9611904,19.169749 72.6706612,19.3500723 C72.4019326,19.5168645 72.1134124,19.6378598 71.796947,19.7163407 C71.4286749,19.8076692 71.0150214,19.853697 70.5565178,19.853697 C69.4312173,19.853697 68.5969563,19.5630287 67.940139,18.9407647 L67.791664,18.7912603 L67.6619343,18.6431325 C67.3181124,18.2270293 67.0732614,17.7327888 66.9245118,17.1493067 L66.8666374,16.8937469 L66.8521112,16.7945621 C66.8340845,16.6895238 66.818412,16.5856529 66.8058534,16.488352 L66.7894461,16.3480035 L66.7782796,16.2215619 L66.7628644,16.0036231 L76.0892994,16.0033718 L76.0988183,15.5959395 L76.0934327,15.2397208 C76.0366326,13.3942901 75.5292768,11.9493321 74.5750511,10.8949471 C73.5564388,9.77021156 72.1715827,9.20837559 70.4026752,9.20837559 Z M43.4220389,4.07053341 L43.4209764,4.19025465 L43.4205568,9.15742148 L41.1579813,9.15844584 L41.1579813,11.2949418 L43.420574,11.2939174 L43.4200192,21.976404 L45.5406797,21.976404 L45.5412345,11.2939175 L47.8229144,11.2949418 L47.8229144,9.15844584 L45.5412173,9.15742154 L45.5418017,4.18201979 L45.5457289,4.07155079 L43.4220389,4.07053341 Z M52.928657,1.01941377 L50.8079965,1.01941377 L50.8079965,21.976404 L52.928657,21.976404 L52.9287511,14.9862389 L52.9340587,14.8041161 C53.036692,13.0195587 54.4914543,11.2940026 56.1076597,11.2940026 C57.8028272,11.2940026 59.1880997,12.6307286 59.2816201,14.314992 L59.2866525,14.4967335 L59.2865992,21.976404 L61.407313,21.976404 L61.407313,14.4967335 C61.407313,11.6973386 59.268884,9.40113008 56.5479713,9.17567177 L56.326111,9.16196011 L56.1076597,9.15750664 C55.1942656,9.15750664 54.2886646,9.572147 53.4624795,10.3320087 L53.2732638,10.513458 L52.9291244,10.8571822 L52.928657,1.01941377 Z M212.08019,9.15844584 L209.959529,9.15844584 L209.959529,21.976404 L212.08019,21.976404 L212.081159,14.9862389 L212.086467,14.8041161 C212.1891,13.0195587 213.643863,11.2940026 215.260068,11.2940026 C216.955236,11.2940026 218.340508,12.6307286 218.434028,14.314993 L218.439061,14.4967347 L218.438132,21.976404 L220.558792,21.976404 L220.559721,14.4967335 C220.559721,11.6973386 218.421292,9.40113008 215.70038,9.17567177 L215.478519,9.16196011 L215.260068,9.15750664 C214.346674,9.15750664 213.441073,9.572147 212.614888,10.3320087 L212.425672,10.513458 L212.081661,10.8570545 L212.08019,9.15844584 Z M28.9227983,9.67881468 C28.3552581,10.0340225 27.9200491,10.4414377 27.6171712,10.9010602 L27.6180688,9.18489769 L25.3853162,9.18489769 L25.3853162,21.976404 L27.6180688,21.976404 C27.6022754,19.6110702 27.6085762,17.5090269 27.636971,15.670274 C27.6795633,12.9121446 28.8865843,11.5042836 30.4449797,11.1835735 L30.6201913,11.1535839 L30.8090631,11.1348676 L30.9968148,11.1291423 L31.2129043,11.1370207 C31.5793009,11.1631798 31.9495597,11.1869958 32.3175772,11.3380711 L32.5380699,11.4360264 L32.6662507,11.5024871 L33.6225676,9.4799376 C32.576398,9.20997088 31.8442783,9.07139161 31.4262084,9.0641998 C30.1439086,9.04214115 29.3039415,9.4402676 28.9227983,9.67881468 Z M5.97824298,0 L5.78407759,0.0261978317 C3.84345192,0.337359078 2.36747856,1.98457384 2.26799482,3.97565402 L2.26264456,4.19025465 L2.26222499,9.15742148 L0,9.15844584 L0,11.2949418 L2.26223451,11.2939174 L2.26203789,21.976404 L4.3826984,21.976404 L4.38289503,11.2939175 L6.66493306,11.2949418 L6.66493306,9.15844584 L4.38288551,9.15742154 L4.38346986,4.18201979 L4.39014266,4.01984768 C4.47679636,2.94439451 5.37078101,2.10996498 6.44815876,2.10996498 L6.60494072,2.11588112 L6.66493306,2.12326999 L6.66493306,0.00203475802 L5.97824298,0 Z M200.343123,9.15750664 C196.829498,9.15750664 193.981142,12.0271321 193.981142,15.5669944 C193.981142,19.1068567 196.829498,21.9764822 200.343123,21.9764822 C203.856749,21.9764822 206.705105,19.1068567 206.705105,15.5669944 C206.705105,12.0271321 203.856749,9.15750664 200.343123,9.15750664 Z M15.3516899,9.15750664 C11.8380645,9.15750664 8.98970836,12.0271321 8.98970836,15.5669944 C8.98970836,19.1068567 11.8380645,21.9764822 15.3516899,21.9764822 C18.8653153,21.9764822 21.7136715,19.1068567 21.7136715,15.5669944 C21.7136715,12.0271321 18.8653153,9.15750664 15.3516899,9.15750664 Z M15.3516899,11.2940026 C17.6941068,11.2940026 19.5930109,13.2070862 19.5930109,15.5669944 C19.5930109,17.9269026 17.6941068,19.8399862 15.3516899,19.8399862 C13.009273,19.8399862 11.1103689,17.9269026 11.1103689,15.5669944 C11.1103689,13.2070862 13.009273,11.2940026 15.3516899,11.2940026 Z M200.343123,11.2940026 C202.68554,11.2940026 204.584444,13.2070862 204.584444,15.5669944 C204.584444,17.9269026 202.68554,19.8399862 200.343123,19.8399862 C198.000706,19.8399862 196.101802,17.9269026 196.101802,15.5669944 C196.101802,13.2070862 198.000706,11.2940026 200.343123,11.2940026 Z M229.768571,11.3448715 C230.779115,11.3448715 231.668729,11.6563766 232.250148,12.2083667 L232.378766,12.3399856 L232.497558,12.4802983 C232.73163,12.7752133 232.916933,13.1234305 233.054513,13.5306177 L233.131342,13.7820517 L233.227137,14.1711504 L226.249851,14.1711504 L226.375394,13.7488523 C226.547125,13.2170042 226.805183,12.7604137 227.153782,12.368074 C227.746683,11.7154253 228.690243,11.3448715 229.768571,11.3448715 Z M70.4026752,11.3448715 C71.4132193,11.3448715 72.3028329,11.6563766 72.8842523,12.2083667 L73.0128699,12.3399856 L73.1316619,12.4802983 C73.3657341,12.7752133 73.5510373,13.1234305 73.6886168,13.5306177 L73.765446,13.7820517 L73.8612406,14.1711504 L66.8839548,14.1711504 L67.0094976,13.7488523 C67.1812291,13.2170042 67.4392869,12.7604137 67.7878858,12.368074 C68.3807871,11.7154253 69.3243466,11.3448715 70.4026752,11.3448715 Z M226.232534,16.8937469 L226.218007,16.7945621 C226.199981,16.6895238 226.184308,16.5856529 226.17175,16.488352 L226.144176,16.2215619 L226.12876,16.0036231 L235.455927,16.0033718 L235.464714,15.5959395 L235.459329,15.2397208 C235.402529,13.3942901 234.895173,11.9493321 233.940947,10.8949471 C232.922335,9.77021156 231.537479,9.20837559 229.768571,9.20837559 C228.017275,9.20837559 226.623714,9.78688767 225.572167,10.9448135 C224.52165,12.1272017 223.995531,13.6768957 223.995531,15.6057422 C223.995531,15.8714715 224.005666,16.1298112 224.02579,16.3797981 L224.063448,16.7483932 L224.074307,16.825336 C224.259109,18.2099367 224.774191,19.3526429 225.619026,20.2618217 C226.697929,21.4146575 228.126801,21.9901929 229.922414,21.9901929 C230.552142,21.9901929 231.134509,21.9236382 231.669721,21.79091 C232.199913,21.6594269 232.692668,21.452243 233.148889,21.169079 C233.607174,20.8846346 234.037929,20.5208951 234.441258,20.0772366 L234.553302,19.9511711 L234.664214,19.8195605 L233.134309,18.331135 L233.003419,18.4907765 L232.877398,18.6342206 C232.606753,18.9319277 232.327087,19.169749 232.036557,19.3500723 C231.767829,19.5168645 231.479308,19.6378598 231.162843,19.7163407 C230.794571,19.8076692 230.380918,19.853697 229.922414,19.853697 C228.797113,19.853697 227.962852,19.5630287 227.306035,18.9407647 L227.15756,18.7912603 L227.02783,18.6431325 C226.684008,18.2270293 226.439158,17.7327888 226.290408,17.1493067 L226.232534,16.8937469 Z" id="形状结合" fill="#FFFFFF"></path>
                <path d="M101.889432,17.583392 L99.7045772,12.5811998 L99.6988277,12.5837488 L97.0076195,6.43951799 L93.4634015,14.5262351 L97.8226124,14.5262351 L98.7467651,16.6420686 L92.5354395,16.6420686 L90.2961435,21.7543122 L88,21.7543122 L97.0065629,1.20050042 L106.013126,21.7543122 L103.715982,21.7543122 L101.889432,17.583392 Z M130.136124,28.0000514 L130.147634,9.06031834 L132.263766,9.06031834 L132.261004,10.6446355 L132.584554,10.3913778 L132.807188,10.2248379 C133.861198,9.47185223 135.122501,9.05938823 136.446602,9.05938823 C139.926213,9.05938823 142.746996,11.9012611 142.746996,15.4068889 C142.746996,18.9125168 139.926213,21.7543896 136.446602,21.7543896 C135.021944,21.7543896 133.670044,21.2768809 132.57095,20.4117215 L132.248334,20.157772 L132.237844,28.0000514 L130.136124,28.0000514 Z M117.659097,28.0000514 L120.245346,21.8114187 L120.245423,21.6552278 L114.996687,9.06031834 L117.27483,9.06031834 L121.417815,19.0033825 L125.572348,9.06031834 L127.850491,9.06031834 L119.937169,28.0000514 L117.659097,28.0000514 Z M158.198387,9.05938823 L158.475634,9.06545408 L158.765782,9.08488144 C160.402023,9.23247153 161.897738,10.014114 162.962068,11.2524477 L163.018689,11.3222452 L161.494593,12.785193 L161.337636,12.5951558 C160.550903,11.7033928 159.418571,11.1752218 158.198387,11.1752218 C155.878646,11.1752218 153.998125,13.0698037 153.998125,15.4068889 C153.998125,17.7439741 155.878646,19.6385561 158.198387,19.6385561 L158.433101,19.6320192 L158.665192,19.6125877 C159.741528,19.4922363 160.718742,18.9594179 161.408047,18.1368094 L161.547597,17.9599173 L163.073692,19.4248802 L163.021459,19.4912524 C161.834737,20.9129548 160.085802,21.7543896 158.198387,21.7543896 C154.718776,21.7543896 151.897994,18.9125168 151.897994,15.4068889 C151.897994,11.9012611 154.718776,9.05938823 158.198387,9.05938823 Z M146.148634,9.0593108 L148.264767,9.06031834 L148.237765,21.7543122 L146.136634,21.7543122 L146.148634,9.0593108 Z M184,1 L184,21.7543122 L181.899869,21.7543122 L181.899869,1 L184,1 Z M177.526595,9.06031834 L177.499594,21.7543122 L175.398462,21.7543122 L175.400609,20.1550604 L175.077118,20.4099367 L174.853899,20.5779899 C173.796945,21.3378413 172.529811,21.7543896 171.1992,21.7543896 C167.719589,21.7543896 164.898806,18.9125168 164.898806,15.4068889 C164.898806,11.9012611 167.719589,9.05938823 171.1992,9.05938823 C172.62915,9.05938823 173.985749,9.54046761 175.086871,10.4115406 L175.410114,10.6672516 L175.410463,9.06031834 L177.526595,9.06031834 Z M108.432277,4.02161184 L110.535408,4.02261938 L110.531357,4.13202002 L110.530778,9.05930395 L112.790549,9.06031834 L112.790549,11.1761519 L110.530787,11.1751375 L110.530408,21.7543122 L108.430277,21.7543122 L108.430656,11.1751375 L106.190137,11.1761519 L106.190137,9.06031834 L108.430647,9.05930389 L108.431062,4.14017523 L108.432277,4.02161184 Z M171.1992,11.1752218 C168.879459,11.1752218 166.998937,13.0698037 166.998937,15.4068889 C166.998937,17.7439741 168.879459,19.6385561 171.1992,19.6385561 C173.518941,19.6385561 175.399462,17.7439741 175.399462,15.4068889 C175.399462,13.0698037 173.518941,11.1752218 171.1992,11.1752218 Z M136.446602,11.1752218 C134.228466,11.1752218 132.396357,12.9129036 132.255062,15.1320778 L132.25402,15.6584402 L132.271746,15.8666276 C132.50548,18.0021894 134.293986,19.6385561 136.446602,19.6385561 C138.766343,19.6385561 140.646864,17.7439741 140.646864,15.4068889 C140.646864,13.0698037 138.766343,11.1752218 136.446602,11.1752218 Z M147.200606,2.61004859 C148.139549,2.61004859 148.900713,3.37690317 148.900713,4.32286624 C148.900713,5.2688293 148.139549,6.03568388 147.200606,6.03568388 C146.261664,6.03568388 145.5005,5.2688293 145.5005,4.32286624 C145.5005,3.37690317 146.261664,2.61004859 147.200606,2.61004859 Z" id="形状结合" fill="#E4FF5D"></path>
            </g>
        </g>
    </g>
</svg>