<svg height="29" viewBox="0 0 169 29" width="169" xmlns="http://www.w3.org/2000/svg"><path d="m34.5 3506c2.3373008 0 4.5454379.55302 6.5007037 1.53534l.0000575 6.03713c-1.6993856-1.59532-3.9859612-2.57247-6.5007612-2.57247-5.2467051 0-9.5 4.25329-9.5 9.5s4.2532949 9.5 9.5 9.5c2.5148 0 4.8013756-.97715 6.5007612-2.57247l-.0000575 6.03713c-1.9552658.98232-4.1634029 1.53534-6.5007037 1.53534-8.0081289 0-14.5-6.49187-14.5-14.5s6.4918711-14.5 14.5-14.5zm128 0c2.337301 0 4.545438.55302 6.500704 1.53534l.000057 6.03713c-1.699385-1.59532-3.985961-2.57247-6.500761-2.57247-5.246705 0-9.5 4.25329-9.5 9.5s4.253295 9.5 9.5 9.5c2.5148 0 4.801376-.97715 6.500761-2.57247l-.000057 6.03713c-1.955266.98232-4.163403 1.53534-6.500704 1.53534-8.008129 0-14.5-6.49187-14.5-14.5s6.491871-14.5 14.5-14.5zm-104 0c8.0081289 0 14.5 6.49187 14.5 14.5s-6.4918711 14.5-14.5 14.5-14.5-6.49187-14.5-14.5 6.4918711-14.5 14.5-14.5zm24.84.5 12.66 19.494v-19.494h5v28h-5.437l-12.563-19.346v19.346h-5v-28zm37.66 0v5h-6v23h-5v-23h-6v-5zm68 0v5h-6v23h-5v-23h-6v-5zm-54.184 0 11.373276 28-5.420276-.00054-2.029-5.001.020721.00062-5.666-13.953-5.667 13.953 5.916279-.00062 2.029 5.001-15.373.00054 11.372-28zm-76.316 4.5c-5.2467051 0-9.5 4.25329-9.5 9.5s4.2532949 9.5 9.5 9.5 9.5-4.25329 9.5-9.5-4.2532949-9.5-9.5-9.5z" fill="#fff" transform="translate(-20 -3506)"/></svg>