<svg height="28" viewBox="0 0 23 28" width="23" xmlns="http://www.w3.org/2000/svg"><path d="m6.73200356 5.85305915c.0784946.00811557.15656748.02496308.23316429.04430176.05258453.01327769.10087268.04358267.15364172.05511397.09918576.02165008.1611538.0915313.23097657.15273194.02967929.02601605.06370767.04733226.09301795.07370787.03879921.03495345.08518958.0671589.11009804.11048475.06088735.10588764.12641374.2082825.17794394.32123274.07646503.16765329.05595838.33584591.06133544.50385875.00890906.2779069.00242495.55627608.00242495.83446549h-.00300483c0 .37452327.00055353.74902087-.00039537 1.12354414-.00018451.08341573.02140283.12193901.1183745.12365971.07214229.00128411.14333568.03539005.21566248.05200642.05268996.01212199.10680327.01826003.15980953.02932906.15306184.032.30717801.06043017.45834206.09954414.09225356.02388443.17960451.0654382.26967035.09774639l.09214813.02627287c.03872014.01327769.07585878.03104976.11476343.04355698.05477226.0175923.11202218.02843018.16542382.04900161.05529942.02131621.10738315.05061958.16060027.07694382.010965.00541894.01987406.01515248.03112899.01951846.10556444.04093739.21516167.07386195.31616614.12350561.10482641.05154414.20090194.1197817.30177464.17923596.0587259.03461961.1205095.06448791.1787874.09982661.0978678.0593002.1936797.1217593.2910204.1819326.0580407.0359037.1201932.0661316.1752818.1058106.071457.0514157.1375632.1099198.2063053.164931l.1690876.1341637c.0713252.0598652.141148.1214767.2107072.1833194.0845833.0752745.1718024.1481862.2512723.2283146.0918582.0926357.1771796.1914607.2640297.2887191.0677141.0757882.1350329.1519872.1994786.2304206.0531644.0647191.1033503.1319294.1522447.1998074.073961.1027287.1477902.2056372.2174812.3111139.0393264.0595313.0688475.1251493.1051954.1866581.0373232.0632039.0777039.1247127.1163713.1871718.0066159.0106324.0116239.0222664.0169219.0336437.0355045.0760963.0719842.1518073.1060389.22852.0481564.1083788.0890115.2201734.1429667.3256501.0697437.1363981.1162922.2792167.1554868.4258106.0215873.0807705.054166.1587159.0815521.2380225.0034793.010016.0058515.0204687.0080393.0308699l.040078.2234122c.0084239.0364858.0191224.0720014.0341993.1056537.0445716.09939.0285722.2016051.0572762.3001733.0806033.2766485.066818.562671.0740401.846382.0032684.1278459.0155777.2556918.0134163.3833837-.0028467.1663435-.0147342.3325842-.0251984.4987223-.0049026.0782279-.0127046.1565329-.024434.2340417-.0096734.0637432-.0282296.1261766-.0407234.1895859l-.0235378.1439486c-.0210074.1025233-.0411978.2053291-.0671079.3066966-.0245658.0963082-.053428.1917689-.0850841.2860996l-.1046156.2843017c-.0197422.0576052-.0264108.1198845-.0498432.1757432-.0290994.069496-.0723532.1332649-.1035876.2020417-.0136799.0301252-.0049553.0703949-.0199531.0993644-.043122.0832103-.0949685.1620803-.1399355.2444687-.0341866.0626389-.0597276.1299005-.0951266.1918202-.0742246.1299262-.1491609.2596726-.2299486.3857721-.0706135.1102023-.1463669.2176822-.2259949.3219262-.0655264.0858555-.1409898.1644944-.2103381.2476789-.0800761.0960514-.1517176.1997047-.2391213.2888219-.0915946.0933547-.1992677.1715313-.2966611.2597239-.083608.0757111-.1590715.1601284-.2447618.2332969-.0751999.0642055-.1600204.1176244-.2397802.1768476-.036427.0270433-.0702445.0573483-.1064079.0847255-.0831337.0629213-.1647385.1272038-.2674563.1610273-.0310763.0102215-.0537179.0429919-.0822374.0626388-.0438337.0302536-.0900395.0572199-.1340313.0872681-.0249612.0170529-.0451252.0417078-.071536.0555762-.1063289.0559101-.2149772.1076084-.321306.1635441-.07148336.0375988-.13811679.0845458-.21123433.1185233-.07941714.036931-.16497573.0610723-.24563171.0957175-.07361834.0316148-.1432566.0719872-.21658501.1042697-.04615314.0203146-.09533746.0346966-.14415278.0483852-.08587489.0240642-.17399022.0411942-.25833633.0693419-.08134129.0271461-.15756909.0688796-.23891038.0961541-.06903202.023114-.14170147.0368796-.21358018.0509278-.12414693.0242696-.25899529.0241926-.37070117.0739903-.11507973.051313-.23682808.0050081-.3442903.0588379-.11597591.0581188-.24315404.027557-.3643225.0438138-.31126353.0418106-.6241349.0470755-.93721714.0412456-.20585724-.0038266-.41160904-.0159743-.61728177-.0266581-.08289642-.0042889-.16608277-.0107608-.24797758-.0234735-.05616924-.008732-.11017711-.0303564-.16539746-.0453804-.02063844-.0056244-.0427793-.0148443-.0628115-.0121734-.1031922.0137657-.1915184-.0392167-.28717216-.0584013-.14222864-.0285586-.28398283-.0610208-.42360201-.0998009-.08716644-.0242183-.16979927-.0637689-.25501521-.0949984-.03191973-.0117111-.0655791-.0189535-.09813143-.0290466-.08113042-.0250915-.16397412-.0461509-.2425478-.0773547-.07512076-.029817-.14531254-.0712681-.21856187-.1057336-.02311611-.0108635-.05092397-.0124558-.07359199-.0238587-.10121534-.0508764-.20061196-.1052199-.30216996-.1554286-.07306482-.0361348-.15119041-.0630241-.22214658-.1024719-.08959139-.0498234-.17420108-.108199-.26097215-.1628764-.00184507-.0011557-.00363743-.0025939-.005667-.0032616-.10972903-.036854-.18677393-.1223756-.28232227-.1792103-.11729381-.0697785-.22296368-.1511396-.32312469-.2413612-.01792355-.0161541-.04499338-.0223948-.06407669-.0376244-.06647529-.0530593-.13171173-.1075569-.19657917-.1624654-.04836722-.0409118-.09533747-.0834415-.14312481-.1250209-.04175133-.0363146-.08508415-.0710369-.12543849-.1087897-.07335476-.0686228-.14634051-.1377336-.21692767-.2090016-.05176742-.0522376-.09863224-.1090466-.14926626-.1623885-.04631129-.0487705-.0972089-.0935859-.14141154-.144-.03313221-.0378298-.06004389-.0811043-.08771996-.1231974-.03763945-.0572713-.07870547-.1132841-.10872741-.174305-.04596863-.0934831-.09035578-.1887127-.12243366-.2872038-.01802898-.0552938-.00801288-.1188315-.0140489-.1783114-.01810806-.1789278.03885193-.3453227.09805236-.5087384.0229316-.0633066.09067207-.1098427.12451595-.1711204.06373404-.1154157.18482343-.1703242.27204258-.2602889.01201932-.0123788.03666421-.0121991.05366522-.0210337.22122404-.114748.46013442-.1262793.70065264-.1017015.12986666.0133034.24795122.066183.36358447.1354735.0862439.0516212.15859706.1143885.23474578.1750241.01895152.0151011.02648995.042992.04288473.0620739.06107186.071191.12195921.1426131.18606226.2111846.09101473.0973868.18297835.1941059.27828946.2874863.0447298.0438138.09826323.0790498.14768478.1183178.04138231.0328475.08213203.0664141.12390972.098748.09085658.0702922.18474435.1371172.27262246.2107223.09892217.0828764.21589969.1355249.32478526.2017593.13693064.083313.27934379.152963.42573701.2165778.10914915.047435.2178502.0967191.33003054.1364751.10922822.0387288.22523048.0597882.33335166.1009053.09786785.0372392.20406488.038061.29803173.068931.11196947.0368026.22741821.0293034.33398426.0594029.20957373.0591974.41975371.0267865.62914294.0339518.21054899.0072167.4242346.018106.63148883-.0091171.13023567-.0170787.26758805-.0198524.39231486-.0629727.11033527-.0381124.22565222-.0333869.33482772-.0625362.11571233-.0308699.22773452-.0750947.34107461-.1142857.0891433-.0308186.1782866-.0617143.2666128-.0946902.11594955-.0432745.23395503-.0827737.34576635-.1347287.10988718-.0510562.21344839-.1152103.31922369-.1745105.077493-.0434285.15714736-.0840064.23031761-.13365.0808932-.0549085.15472241-.119602.23300615-.1783114.08974954-.0673387.18479706-.1284366.2703293-.2004238.06468289-.0544205.11739929-.1221958.17675779-.1828058.0171065-.0174895.0424367-.0278908.0577508-.046459l.258758-.3183307c.0585415-.0692135.1286806-.1294382.183611-.2010144.0410924-.053496.0645511-.1194992.0987377-.1783885.0418567-.0721155.0919899-.1400963.1287859-.2144462.0398799-.0806421.0663435-.1674478.1027969-.2498363.0205593-.0463306.0550094-.0870883.0734602-.1339839.0316034-.0803596.0561692-.1634158.0825801-.2456758.02591-.0807191.0529535-.1612584.0748044-.2430562.0219037-.0820802.0411715-.1651364.0557739-.2487576.0134954-.0773034.0114131-.15774.0298374-.2336565.0833709-.3435249.0279924-.6911846.0328687-1.0365843.002135-.1510369-.0398536-.3032809-.067556-.4539582-.0165266-.0899647-.0427002-.1783628-.067266-.2667609-.0276761-.0995955-.0528218-.200398-.0892488-.2970401-.0467593-.124199-.1016107-.2456758-.1571737-.3664848-.0259891-.0565521-.0625479-.1084044-.0929916-.1631075-.0428583-.0769952-.0809459-.1567384-.1276262-.2314221-.049606-.0794094-.1046682-.1558395-.1613383-.2307288-.064472-.0852135-.1308946-.1692712-.2009546-.2501444-.0791536-.0914286-.1609693-.180854-.245948-.2671461-.0681359-.0692135-.14004092-.1354222-.2150826-.1974446-.0779938-.0644109-.16123287-.1228379-.24312768-.1827031-.08885336-.0649245-.17878741-.1284366-.26814157-.1926677-.0051662-.0037239-.00882999-.0097336-.01433884-.0125329-.11247027-.056809-.22554679-.1125137-.3374899-.1703243-.03455555-.0178234-.06405033-.0457142-.09950205-.0610979-.07606966-.0330016-.15495963-.0597881-.23184639-.091146-.05390244-.021984-.10611795-.0479487-.15959866-.0709599-.03400203-.0146132-.07095617-.023679-.10316585-.0411686-.11249663-.0610722-.24420836-.063589-.35849734-.1102792-.0892751-.0364687-.18603591-.0184399-.26769349-.0585554-.10385115-.0510562-.21745483-.0420674-.32478526-.0677239-.42934808-.1026004-.86533843-.0526999-1.29898289-.0544976-.07567428-.0003082-.15184937.0126613-.22702284.0242183-.1253067.019313-.25048161.0400385-.37476034.0648218-.08078776.0161284-.16494937.0299711-.23846228.0637175-.10000286.0459197-.20902022.0535217-.30986654.0896822-.06787227.024321-.12931314.0651043-.19570935.0939454-.09736704.0422986-.19839788.0769181-.29444701.1218106-.05609017.0261958-.10361394.0692905-.15833348.0989021-.06209983.0335409-.12978758.0573483-.19175562.0910947-.09581192.0521091-.1944178.1018812-.28155788.1659326-.09676081.0711396-.18015803.1592295-.27275425.2360963-.08347629.0692905-.17364756.1308764-.25667577.2006292-.05645918.0474607-.10656604.1023435-.15783267.1554286-.04525696.0468443-.08877428.0953065-.13200167.1439229-.07061351.0793836-.13780046.1617978-.21128702.2385361-.05616924.0586838-.11576504.1157239-.18121235.1640065-.06623806.0488475-.13922381.0905553-.21379105.1264847-.0411978.0198523-.09125195.0257336-.1380904.030305-.09027671.0087833-.18218761.005573-.27146271.01939-.12535941.0194158-.24204699-.0183884-.35881364-.044687-.07256402-.0163595-.14004091-.0608411-.20522464-.099878-.10711957-.0641541-.2065162-.1402504-.27481019-.2445714-.06146723-.0938684-.1290232-.1888925-.16400048-.2929567-.04024891-.1197817-.05840968-.2494767-.06536824-.3759614-.00411187-.073862.03263141-.1498299.05055495-.2249503.00788109-.0329759.01012154-.067955.0227471-.0990048.03002194-.073862.05888413-.1491621.09929119-.2177079.0347137-.0589149.08402982-.109817.1282061-.1632359.05759258-.0696758.11344552-.1411493.17580893-.2066132.05714449-.0599936.12325076-.1118202.18292564-.1696051.03479277-.0336694.06215254-.0746581.0973934-.1077881.09338697-.0877561.18948882-.1727384.28390376-.2594671.0305491-.0280963.05735535-.0601734.08901151-.0869085.06265334-.0529824.12733627-.1037047.19151839-.154992l.19544577-.1546324c.01779176-.0138684.03835112-.0243211.05722357-.0369824.05635374-.0378042.11194311-.0768154.16895581-.113695.05827789-.0376501.1183745-.0726035.17673147-.1101252.03922094-.0252713.07546341-.055114.11544874-.0791268.07641231-.0459198.15353629-.09096631.2322154-.13303373.10406202-.0556276.20909929-.10966292.31529632-.16125842.06547368-.03176886.13413669-.05719422.20087555-.08649759.05174107-.02270305.10190065-.04895025.15424796-.07018941.06990184-.02835313.14381013-.04838523.2112343-.08125843.06581633-.03207704.14971436-.02884109.19837152-.09453611l.00545614-.00351846c.11265478-.03202568.22525685-.06428251.33809613-.09576886.06950647-.01936437.13922381-.03811236.20920473-.05585875.01884608-.00480257.03951088-.00285072.05843604-.00747352.07401372-.01805457.14747391-.03829213.22151399-.05619261.05240002-.012687.10508998-.02468058.15825439-.03377207.07435638-.01273837.09246443-.03146068.09249079-.10722312.00021087-.6570016-.00271489-1.31402889.00255674-1.97100481.00121248-.14949599.018398-.30135474.05079218-.44735795.02656903-.11998716.08669199-.23072873.16729525-.33194221.05384972-.06762119.1049582-.1370915.17285682-.1898427.08582217-.06669663.17836567-.12543178.26993393-.18473194.08305456-.05377849.18129143-.05727127.27583815-.073374.04905254-.00837239.09597007-.03215409.14496989-.03634029.07245858-.00624077.14657773-.00693419.21882545.00053933zm9.63501224.00790497c.1067506.0141252.2084404.06988122.3103674.11158909.1433357.05865811.2572029.16.3670901.26247191.0462586.04317175.0709034.10876404.1037457.16505939.0421731.07237239.0863757.14397432.1224337.21922311.0185298.03865169.0250139.08403211.0305754.12712681.0158676.12327448.0379821.24672873.0403807.37046549.0058515.29942857.0019242.5990626.0019242.89861958h-.0024777l.0001318 1.05928732c.0001054.10491172.0089091.10701766.1126811.11985875.0777039.00960514.1530092.03667416.2297114.05465168.0522155.01219904.1049319.02226646.1574637.03302729.1551968.03182023.3119488.05793901.4651161.0971557.1054063.02699197.2057254.07268058.308654.10899518.1005564.0354671.203775.06469342.3017746.10573355.1119695.04689567.2194317.10398716.329029.15627609l.064103.02765971c.1362717.06251043.274942.12070626.4077871.18948314.0938351.04856499.1796045.11182019.2692486.16808989.0464431.0291493.0949948.0553194.1399619.0864719.0940459.0651043.1865103.1323917.279291.199191l.2337179.1696822c.0663698.0487191.1379059.0893997.1919928.1551718.0406706.0495152.1021379.0822086.1483964.1281027.0882999.0876276.1713017.1802889.2586527.2688668.0417777.0423499.0917.0772263.1322916.1205264.0753843.080411.1479747.1634158.2192472.2473451.087061.102472.1736739.2054318.2563331.3112681.0449143.0574254.0812095.1212456.121432.182138.0616781.0933548.1265719.1848604.1841909.2805265.0483936.0803082.0896704.1648283.1316853.2486036.0283351.0564751.0521365.1150561.0786264.1724045.0186089.0403467.0385884.080077.0573554.1203467.0035056.0075762.0012915.0206998.0065368.0239871.0649465.0407063.0523737.1162376.0819739.1728411.0424103.0811814.0761224.1667031.113551.2503756.0058251.0129952.013469.0255281.0171591.039114.0255411.0941509.0501596.1885329.0752526.2827865.0287304.1079936.0555366.2165522.0870873.3237496.0289677.0982857.0634441.1949791.0947049.2926228.0044809.0140225.0049817.029329.0065895.044122.0198741.1860674.029363.3738555.0615464.5578684.0652891.3735216.0234587.748199.0292575 1.1222857-.0603338.1625425-.0282559.3361541-.0632596.502061-.0157358.0744526-.0125201.1528603-.0301801.2266966-.0243813.1021124-.0620998.2011685-.0904875.3024847-.0114395.040732-.009199.0850594-.0202167.1259455-.0330005.1222985-.0656846.2449053-.1059335.3650465-.0272543.0814896-.0691111.158228-.1006091.2385105-.0354781.0904012-.0651047.1829855-.1002664.2735152-.0230371.0593258-.0515566.1166228-.0772822.1749727-.0278342.0631268-.0499223.1293098-.0840825.1889695-.0576717.1007512-.1241206.1967255-.1845335.2960642l-.1274944.2215602c-.0209284.0351846-.0456787.0683403-.0700864.1014703-.0151295.0205201-.0338702.0384463-.0492106.0588379-.073882.0981316-.1461297.1974703-.2209605.2948828-.0472075.0614318-.095522.1223756-.1476584.179801-.0898814.0989791-.1820031.1961348-.2753374.2920578-.0959173.0985682-.1934952.1956725-.292312.2914928-.0425948.0412712-.0894859.0784333-.1355337.1161605l-.1641547.1388493c-.0280782.022021-.0570166.0426638-.0875657.0607012-.132397.0781766-.2246506.2075121-.3755774.2624463-.0633387.0230882-.1140781.0777913-.1727251.1148507-.05211.0328989-.1076994.0605329-.1609165.0918651-.0736974.0433773-.1442319.0924302-.2203279.1311846-.1302357.0662858-.2652949.1235313-.3953197.1901252-.1063288.0544463-.2102854.111358-.3316647.1290273-.0177654.0025939-.0313135.0261445-.0495534.0332841-.0493952.0192874-.1002401.0350049-.1505314.0520578-.1141836.0387288-.2268384.082748-.3429724.1147223-.1469204.0404752-.2973728.0686999-.4450839.1068122-.1020325.0263243-.2017981.0608925-.3028817.0907609-.0186088.005496-.0386937.0082183-.0581724.0087062-.1041411.0026967-.2071488.0094511-.3018537.0587095-.0089881.0046485-.0215873.0031332-.032526.0037496-.1986087.0109406-.397112.0247833-.5958789.0318202-.243075.0086292-.4864926.0193387-.7294621.0145361-.2093365-.0041348-.4180668-.0331043-.627456-.0422215-.0837663-.0036212-.1614174-.0178234-.2371181-.0495666-.0079601-.0033644-.015973-.0112231-.0233533-.0105297-.1365353.0124816-.2607876-.0407833-.3898635-.0679294-.1127603-.0236789-.2262849-.0443017-.3380171-.0719614-.0869556-.0215217-.1722506-.050183-.2572557-.0785618-.1088328-.0363146-.2171912-.0741445-.3247061-.1139519-.0894333-.0331043-.1782866-.0680321-.2657694-.1057849-.103034-.0444558-.204882-.0917111-.3062027-.1398652-.1217484-.0578619-.2448674-.1137207-.3626883-.1785425-.0821057-.0452006-.1556713-.1049374-.2343241-.1563274-.0327368-.0213676-.071457-.0345169-.1026123-.0576309-.0331322-.0245521-.0598594-.0610722-.0234324-.0991075.0820266-.0857014.1722506-.1641348.2517468-.2518395.0724586-.0798973.1351383-.1681926.2022198-.2527127.0440972-.0555505.087799-.1113836.1327133-.1662664.0473129-.0577849.0993176-.1122055.1430458-.1723532.0617308-.0849309.1095445-.1806484.1786556-.2588507.0597276-.0675184.0985004-.1433066.1422286-.2187094.0343974-.0592745.0802606-.1122055.1210367-.1679615.018398-.0251429.0341602-.0529053.0563538-.0743243.0112549-.0108378.0384565-.0190818.0510821-.0132776.0714306.0327961.1409634.0696244.2104962.1061958.080946.0426067.1598359.0891172.2422579.1287448.0638658.0307159.1313954.0545489.1981079.0793836l.2302122.0816693c.1089383.0390113.217244.079923.3268412.1171108.0425157.0144334.08743.0235505.132028.0305618.1546697.0242696.3114217.0387801.4642463.0711396.3813499.0807448.7658628.0288154 1.1485569.0306389.1780494.0008218.3599998-.0263243.5330938-.068443.1068296-.0259647.2173758-.0249631.3206998-.0596598.1078312-.0361861.2131321-.0796404.3211214-.1153643.0525055-.0173612.1108888-.0183885.1626299-.0371878.1360081-.0493355.2725434-.0986966.4035434-.1590498.0905667-.0417335.1709854-.1039101.25831-.1529374.078521-.044122.1635524-.0777913.2397538-.1252006.0849788-.0529053.1627617-.1167512.2446301-.1746132.0320516-.0226003.0692956-.038703.0995285-.0631782.1075413-.0870369.2153725-.1739454.318591-.2656821.0741192-.0658748.1543798-.1310562.2077024-.2116983.0607292-.0918651.1542216-.1518844.2145817-.2372777.0723532-.1023435.1758881-.1842696.2175076-.3081605.0111495-.033207.0403807-.0608667.0624161-.0902985.0308127-.0411686.0673451-.0790241.0927544-.1230947.0267535-.0463307.0410924-.0992617.064762-.1474928l.0844779-.1556854c.0165002-.0328218.0280714-.0680578.041066-.1024976.0335276-.0890401.0660272-.1784655.100161-.2673258.031498-.082106.0710089-.1618748.0949685-.2459326.0202694-.0710369.0216664-.1469792.0343447-.2202761.0134953-.0780995.0322623-.1553258.0454151-.2334767.0175545-.1043981.0427265-.209053.0454678-.3140674.0065105-.2501959.0083555-.5009053-.0007117-.7509728-.0058515-.1609245-.0270962-.3223114-.0553258-.4811813-.0181344-.1021638-.0629696-.1996276-.0928598-.3000707-.0143652-.0482568-.0181871-.0995955-.033264-.1475955-.0288885-.092122-.0586469-.1843467-.0950211-.2737977-.0391946-.0962568-.0841616-.1904848-.1307629-.2836084-.0488153-.0973868-.0961545-.1964173-.1556976-.2875634-.0851105-.1302343-.177654-.2562311-.2728333-.3797624-.0772558-.1002376-.1612593-.1957753-.2459217-.2902857-.038272-.0426838-.0953375-.0715506-.1263083-.1178299-.0522946-.0781509-.1325288-.1244302-.1982397-.1864783-.089117-.0841605-.1876701-.1589214-.2836402-.2359936-.0290467-.0233451-.063365-.0403467-.0945467-.0612777-.086323-.0578619-.17088-.1182921-.2587844-.1737399-.0559057-.0352617-.1167667-.0629728-.1749655-.09487l-.2138965-.117984c-.0450988-.0230112-.0932288-.040809-.1409898-.0582985-.1233825-.0451493-.2508243-.0815153-.3699631-.1353965-.0987904-.0446613-.2040386-.0575795-.3054384-.0875762-.0957856-.0283532-.1893043-.064-.2840092-.095923-.0101479-.0034157-.0215083-.0038523-.0323942-.0049053l-.2135187-.0167239c-.0353755-.0037048-.0704641-.0086758-.1049933-.0161236-.4195428-.0904783-.844041-.058427-1.266905-.0530594-.1566993.0019775-.3134513.0312809-.4658541.0757111-.0953112.0277624-.1940488.0439936-.290177.0692391-.0981051.0257593-.1950241.0558845-.2922066.0847512-.0810777.0240642-.1633415.045252-.2422579.074915-.0571972.0215216-.108622.0572199-.1647385.0820802-.0437018.0193644-.093097.0271461-.1356391.0482825-.0781783.0388829-.152851.0843146-.2295268.1260996-.0657373.0358009-.1304729.074581-.1998213.1020609-.0152086.0060354-.0565119-.024963-.0713251-.0478459-.0665017-.1024719-.124516-.2102343-.1919402-.3120898-.0546932-.0825939-.1188753-.1591525-.1779703-.2389984-.0632069-.0853676-.1243578-.1721734-.1882763-.2570273-.0766759-.1018299-.1532464-.2038652-.2336651-.30287-.0768077-.0945618-.1559876-.1875827-.2391213-.2768283-.0402752-.0431974-.0926225-.0755313-.1383276-.1140802-.0689266-.0581188-.0631541-.1021637.0151032-.1483403.1261238-.0744527.2488474-.15476085.377897-.22394865.058805-.0315634.1134192-.06880257.1810542-.09194221.1219329-.04175923.2292369-.12222151.3473478-.17692456.1005037-.04653612.2084404-.07766292.3115535-.11921669.0728276-.02935474.1423604-.06636277.2148717-.09648797.0233007-.0096565.0520574-.00593258.0772558-.01230176.1179264-.0298427.2358265-.05999358.3530939-.09219904.0836345-.02293419.1654502-.0524687.2495327-.07334831.112154-.02783949.2250197-.05400963.338966-.0730915.053428-.00896308.058436-.04396789.063734-.07920385.005667-.03775281.0021614-.07686677.0021614-.11536436.0002636-.68694703-.0000264-1.37389406.001107-2.06081541.0002373-.13457464.0416196-.25964687.1031659-.37937721.0347664-.06764687.0599121-.14055859.0996075-.2051236.0299165-.04869341.0743036-.08960513.1154751-.13092776.0390364-.0392167.0807087-.07635313.1241733-.11092135.0333958-.02658106.0765704-.0428122.1060389-.07247512.0454414-.04568861.0986058-.07417015.1583334-.09522954.0431483-.01517817.0844516-.03585233.1283379-.04817977.1846126-.05187801.3753139-.06017336.5625095-.03544142zm-.0982553 8.49280768v.0034671c.5356769 0 1.0713538-.0021316 1.6070307.0022857.0811832.0006678.1632361.0279936.2427587.0502601.0646039.0181059.1311055.0390112.1876965.0730401.1208258.0726549.247055.1375281.343684.2458555.0662644.0743243.1113633.157663.1625508.2403853.1078576.1742793.1410689.3602953.1306838.5572006-.006036.1141573-.019426.2281092-.0343974.3415217-.0047445.0358266-.0206912.0721926-.0394055.1038587-.0361897.0612264-.0864811.1156469-.1154224.1795442-.0399853.0882183-.1154751.1439486-.1818186.2056629-.0742245.0690337-.1609956.1271011-.2484256.1803146-.1002665.0610465-.2194844.0691364-.3307422.0995185-.1807116.0493611-.3589191.0318202-.5376011.0324879-.8913539.0034157-1.7827079.0009759-2.6740881.0004109-.0734075-.0000513-.1468677-.0008988-.2202752-.0024655-.0636022-.0013354-.0996075-.0542664-.0822902-.1159036.008461-.0301766.0144443-.0614061.0176336-.092533.0110968-.1078394.0013707-.2220481.0355308-.3221573.0389574-.1141059.0207703-.2254638.0290994-.3375409.0124938-.1681156.0236697-.3368732.0224572-.5052456-.0015288-.2045329-.0131791-.4091942-.0276497-.6133162-.0047972-.0677239-.0313662-.1341123-.0489471-.2008603-.0221936-.0843146.0060624-.1251236.0956274-.1252777zm-12.78611196.0366291c1.57700878-.0000474 3.15401755.0003635 4.73099997.0028547.11075699.0001798.22472968.0063692.33132208.032565.10058275.0247063.20021659.0691108.28785748.1237368.1051427.0655666.20989004.140199.29154762.2308058.09636544.1068635.15448518.2385361.20163993.378016.04965878.1469791.06397126.2916726.05693363.4417079-.00508713.1084302-.02419679.2143178-.07264309.3141958-.03265776.0673901-.05355979.14061-.09040849.2054832-.02654267.0468186-.06808313.086703-.1075413.1252006-.06742418.0657464-.13432119.1332392-.20944195.1899454-.05458775.0412199-.11932339.0736565-.18448077.0967448-.09359783.0331814-.19093852.0574767-.28817377.0793066-.05250546.0118138-.10809482.0146902-.16231356.0147159l-3.58444632.0001797c-1.20799452 0-2.4160154.0013869-3.62398356-.0023627-.1067242-.0003339-.21792928-.0211878-.31885468-.0554222-.14027813-.0475634-.25825726-.1350882-.36645751-.2376115-.08824713-.0835955-.15783267-.1736886-.22320091-.2764944-.12712541-.1998074-.16017854-.4115827-.14670952-.635634.00577243-.096565.01573582-.1992938.05461411-.2861509.06787226-.1516533.14702582-.3026902.27354499-.4180546.07132518-.0650273.15488056-.1197817.23983291-.1674735.08645477-.0485136.17907734-.0891685.2734132-.120886.06465657-.0217272.13679886-.0306902.20562002-.0309728.81043438-.0031075 1.62089511-.0043659 2.43132949-.0043956zm-1.42472714-7.88457771c.24763493-.00919422.48633443.041374.70233956.16441734.48804771.27795827.74699029.68882183.75434421 1.46121348.01721188.57828572-.67142143 1.20138684-1.436757 1.20767897-.23535202.00195185-.4692807-.05495987-.67463713-.16783306-.47397245-.26049438-.75268365-.64760193-.77456092-1.19355377-.01075413-.26871268.04501974-.51811236.18092242-.75051044.27536371-.47085714.70041541-.70109791 1.24834886-.72141252zm9.3822112-.00113185c.2606558-.00128998.5062612.06235047.7334421.18783362.2220675.12270947.4067065.28260674.5296673.50545104.1226709.22225361.2079132.45331621.2014554.63943499-.0008698.35687962-.0717733.62736437-.2367226.86204816-.2937881.4178748-.7145698.6369695-1.2309262.63807676-.7096144.00151232-1.3871509-.58517146-1.4178318-1.28208318-.0170537-.3880321.0562747-.74414125.3049376-1.03756019.2818741-.33263564.6633031-.51089567 1.1159782-.5132012zm9.1338382.00251355c.31498-.00449438.6066594.06641413.8488118.23660996.4255525.29904334.6363915.71550561.619944 1.23587801-.0080656.25504976-.0731439.49941573-.2152935.70310112-.2929973.41969823-.7184444.64356982-1.2409686.6545618-.293709.00613804-.5751614-.08523917-.8133865-.25248154-.3865424-.27138363-.6089262-.64164366-.6126691-1.11578813-.0011597-.14795505-.0017923-.30353772.041356-.4426581.1016634-.32767897.2988225-.60630498.5931377-.79396469.233586-.14893098.5014113-.23450401.7790682-.22525843z" fill="#fff" fill-rule="evenodd"/></svg>