<svg height="28" viewBox="0 0 58 28" width="58" xmlns="http://www.w3.org/2000/svg"><path d="m8.32186808 16.9432797c.6838632 3.0530009-1.48152998 7.0236856-5.15452854 7.8976626-.68828276-2.87651 1.33410621-6.9234302 5.15452854-7.8976626zm40.55387092 5.7952227c.1121936.012685.3093058.2343898.286987.2920374-.0655357.1694577-.2217354.30422-.4068517.5317963-.1636183-.209428-.3213017-.3196681-.3279311-.4382602-.0154368-.2759927.2015949-.4134239.4477958-.3855735zm2.9831974-2.3725108c.2098342.0434555.4453018.0431729.6209476.1450296.1273464.0738493.1754564.2829318.2588913.4317607-.1570205.0696104-.3088323.1606347-.4731451.2000084-.0849817.0203776-.1905144-.0581814-.2895125-.0795324-.7387919-.1592218-1.4177305.5669312-1.1900602 1.2837901.1099522.346294.3957713.4469889.7300791.4074268.1746356-.0206916.3433996-.1178071.5157938-.1207272.1291142-.0021979.3344026.0612271.3700116.1495511.0397129.0985284-.036051.2987252-.127883.3841605-.3448201.320924-1.2847335.3384129-1.7425679.0603793-.4606125-.2796978-.661797-.8075692-.5306309-1.3923347.1990379-.8876982.9084713-1.4390871 1.8580762-1.4695122zm-22.0918279.4141021c.0111436.4529861.0032515.9064117.0032515 1.3596489.0448901.0102987.0897486.020566.1346387.0308647.2174106-.4270823.4339688-.8545727.6528316-1.2809014.0519298-.101166.0879176-.2356143.1729625-.2890545.139437-.0876018.3252478-.1847488.4682835-.1574949.1103627.021037.2376143.2158332.2662152.3522597.0979563.4672096.1557578.9427397.2439595 1.5122769.2153902-.5376677.3897101-.9834007.5735953-1.4251775.0527189-.1266301.1049013-.2943295.2079716-.3492768.1355542-.0722793.3344026-.095106.4791431-.0513051.0641783.0194042.1245368.2792581.0805938.3872376-.3008771.7389007-.6071208 1.4778328-.9666833 2.189197-.0845082.1672284-.3708639.2955854-.5800983.3230591-.2761907.0362024-.3607937-.2050636-.395645-.455341-.0552445-.3966885-.1335653-.7902058-.2180736-1.2769138-.257376.499393-.4522153.935518-.7030251 1.3370106-.1087211.1740732-.3140095.3299667-.5092907.3980386-.2231245.0777741-.4449546-.0404412-.4726716-.3076424-.0783208-.7552593-.1553789-1.5119002-.1839482-2.2698284-.0047984-.1276976.2126438-.3350847.3652447-.3808637.2408027-.0722165.3749994.1208842.3807448.3542064zm4.4380774.1118572c.023329.4119168.0426172.8240534.1432252 1.248561.2311428-.4475541.4681889-.892251.6909977-1.3439183.1159817-.2351119.2646683-.4175371.5502347-.3782262.3011612.041446.3009087.2961192.334813.5236641.0609267.4085257.1299034.8158898.2667518 1.2263622.1791183-.4445084.3545115-.8905868.5397856-1.3325205.0479522-.1144476.1031967-.2709062.196986-.3108765.1456244-.0621062.3372437-.0768949.4880137-.0352919.0525296.0144747.0966305.2777824.0510143.3897495-.2914382.7153832-.6098988 1.4198084-.9174683 2.1286921-.1204645.2775627-.3278048.4201118-.6313968.3839408-.3077274-.0366107-.3565003-.2847844-.3967183-.5290646-.0611477-.3717268-.1203698-.7437675-.1981855-1.225546-.2667518.5200533-.4631695.9464134-.7022359 1.3475919-.0954309.1600695-.2649524.313357-.4363681.3835012-.2932376.1199422-.5423427-.0447429-.5745108-.3610827-.0704287-.6929019-.117497-1.3881273-.1754248-2.0823165-.0234552-.2812049.0787313-.4845102.3773986-.5125176.3467142-.0324661.378756.2262889.3930879.479298zm11.0790985-.3815796c.1853057.1927239.0377872.3735478-.119328.5198962-.2595227.241737-.5217918.4804911-.8024336.7384297.2447172.3694033.4416715.6641723.635911.9606997.1383637.2113746.2024157.4278044-.0584644.5906056-.2522304.1574006-.4552774.0839596-.6055423-.170117-.1466977-.2480167-.3046653-.4894711-.4888661-.7835494-.2625532.2725075-.4954638.5180123-.7331413.7588074-.0794257.0805057-.1631447.1961777-.258986.2121596-.1458769.0243024-.358426.0273481-.4400299-.0578361-.0673983-.070364-.0394919-.3241266.0394919-.4222469.2134014-.265066.4564454-.5161284.7252491-.7249283.3139148-.2438721.3217122-.4643209.0684085-.7443327-.1009238-.1115902-.1703424-.2515019-.2527671-.379388-.1320816-.2048437-.1084054-.3948988.0958413-.5268667.2140327-.1382789.4157224-.0958282.5611258.1208842.1323972.1972768.2561133.4002994.3733893.5846714.2308587-.2144517.4430921-.412325.6561463-.6093506.1852426-.1712787.404421-.2751136.6039955-.0675381zm-4.4172897-.0856677c1.0155509.053974 1.5091206.7556361 1.2080857 1.7285812-.2114126.6834196-.7079813 1.060641-1.3981266 1.191353-.2231876.0422937-.4552143.0386515-.6832003.0560463-.8632341-.0039562-.8813858-.0231721-.7384132-.8502712.0968199-.5601177.2085084-1.1178805.2939637-1.6796623.0472892-.3107823.2278281-.4371926.5164251-.4461412.2669097-.0082578.5348611-.0140665.8012656.0000942zm-2.7383476 2.3105836c.1277567.0106127.2447171.1488289.3665706.229366.0024308.0520273.0048931.1040232.0073238.1560505-.1638708.0989053-.3192813.2472003-.4949903.2769033-.0949573.0161074-.3146724-.1646851-.3210807-.2664162-.0165734-.2646265.1874838-.417129.4421766-.3959036zm-11.3955356-2.3218399c.2787793.0425763.2931113.2756787.3265421.4920143.0670194.4334248.1393107.866096.2240399 1.3890379.2215776-.5506039.4039159-1.0204824.6016911-1.4838299.0524348-.1228937.129051-.2720679.2365725-.3253198.1168657-.0578674.3088007-.0649635.41809-.0047098.0751956.041446.1244105.2594144.084161.3574091-.3129677.7619158-.6297552 1.5240514-.997336 2.260503-.0769319.1541666-.3632876.2646579-.5634935.2829632-.2467059.0226069-.3503129-.1888619-.3829229-.4327968-.0536345-.4009274-.1327761-.7984323-.218484-1.2984846-.2171896.4184163-.3916989.7578025-.5693967 1.0955561-.0767108.1457832-.1270306.3335148-.2484737.4208968-.1602405.1152953-.3871216.2191301-.569081.1967743-.1263047-.0155108-.3043812-.2422393-.3228486-.3913508-.0870969-.7035774-.1311977-1.4126495-.1818332-2.1204029-.0183096-.2558663.119549-.4142403.3736103-.4400812.2806419-.0285413.3929302.1502103.3981705.3961861.0096283.4492182.0027464.8987818.0027464 1.3481885l.1299034.0121198c.2352151-.4598623.4721033-.9189083.7049193-1.3799637.1157608-.229209.2618587-.4192327.5534231-.3747096zm29.4535491.37692c-.121159.7480691-.2475267 1.4959812-.4059994 2.236703-.0294532.1378393-.2047833.3159316-.3380013.3404852-.130156.0240199-.3443782-.0864086-.4316013-.2039646-.3446622-.4644779-.653968-.9549223-1.0279572-1.5126223-.0852659.4678689-.1504859.848293-.2259025 1.2266762-.0243075.1218262-.0403126.2889918-.1225795.3455718-.1290195.0887322-.3178292.1479183-.4678416.1264732-.0764583-.0109581-.1892833-.2342328-.1732466-.3454462.1048066-.7251482.2230929-1.4496056.3791663-2.1651772.0351355-.1609801.2176948-.3650389.3690646-.4024659.1219797-.0301739.3459565.1271953.4435971.2601993.334371.4557177.6330383.9373392.99339 1.4817262.086718-.485609.138269-.886505.2371724-1.2755323.0423014-.166412.1486865-.362056.2867345-.449281.2605012-.1646223.5331247.0330312.4840045.3366546zm-7.9357648-.2904737c.2030471.1987838.0525296.3928265-.1092893.5554079-.0985561.0989995-.1891886.2069161-.2949107.2975007-.4612123.3950872-.7719071.8609781-.7797991 1.4939089-.0016416.1316852-.0431223.3106252-.1341651.3817428-.1219798.095263-.3162509.1536328-.4672734.1341344-.0745642-.0096394-.122106-.2291776-.1804442-.3544262-.0045142-.0097021-.0000631-.0257782.0045459-.0371758.297373-.7343165.0235499-1.3412494-.4100086-1.9264231-.0740276-.09991-.0985877-.2979717-.0516772-.4124192.119107-.2904988.4891186-.3043455.672467-.0365792.1561682.22811.2901123.4712914.4501003.7345049.2479686-.2591631.4724821-.4976033.7013836-.7317104.1745093-.1784691.3916042-.3015826.5990708-.0984657zm-8.0571889 1.0252958c-.0671457.3840663-.1338179.7681955-.2111286 1.2122329.1001819 0 .18821.00376.2696679.0053103l.1179573-.000078.1122898-.0078697c.5756788-.0690453.9480895-.5544346.8735569-1.1251022-.0477312-.3655412-.2854087-.5163168-.7392024-.557386-.3959291-.0358257-.3805869.2297427-.4231409.4728927zm-30.38693103-4.390605c.90373613.1098319 1.71633473.2702782 2.53332123.2966216 2.8050924.0904904 4.8110975 1.9162813 5.1088493 4.6923162.0334939.3121952-.1108362.3573148-.363477.3799531-2.8233704.2529776-4.8307329-1.0252549-6.2597017-3.3356188-.4018639-.6497917-.6901453-1.3690998-1.01899183-2.0332721zm33.68466503-3.6195239c.8773135.0193729 1.2584055.5047621 1.1054889 1.3679067-.1170236.6604359-.2276072 1.3220335-.3389484 1.9834427-.1335969.7935969-.7181148 1.2937748-1.5398366 1.2995208-.89234.0062169-1.7847431.0014129-2.6771147.0009105-.8541424-.000471-1.7082848.0013188-2.5624272-.0009733-.8985905-.0024177-1.3087884-.4886548-1.153441-1.3575452.1226111-.6857117.2321214-1.373841.3641398-2.0577316.1350491-.6994328.6407094-1.1804577 1.3729984-1.2094699 1.1073198-.0438637 2.2171967-.0256839 3.3259686-.0302995.7010679-.0029201 1.4024515-.0112407 2.1031722.0042388zm9.7477892-4.83443833v.00244908c1.1219991 0 2.2439666-.00062797 3.3659341.00018839 1.0503076.00075356 1.5344068.54944221 1.3599606 1.56226336-.3633191 2.1089425-.7321311 4.216943-1.1058677 6.3240958-.1805704 1.0181589-.8764611 1.5873201-1.9163196 1.5873201-2.2057059-.0001264-4.4114117.0009726-6.617086-.0044907-.2144116-.0005338-.4373467-.0136898-.6414039-.0722794-.5916208-.169803-.9121017-.6814414-.8073267-1.2881231.3901521-2.2589017.7832717-4.517301 1.1870929-6.7738164.1362486-.76135062.8895304-1.3321438 1.7326554-1.3362256 1.1474431-.00555753 2.2949178-.00138153 3.4423609-.00138153zm-18.7329366.40321315c.1981855.00012559.396371.01755175.6333224.02876102-.0262648.18412075-.0507618.31819231-.0634838.45339422-.0216242.22946017-.1263046.31768993-.372979.31442449-1.0069327-.01334436-2.0145284.01111507-3.021114-.0124966-.3285624-.00772403-.4420187.1042116-.4939801.40949915-.3505655 2.0587363-.7145791 4.1152433-1.0763829 6.1720957-.1239054.7042682-.6831056 1.3258327-1.3889719 1.378331-.8582462.0638331-1.7249528.0151654-2.5871135.0151654-.0359563-.7086953.0083971-.7574886.6735719-.7582107.5227072-.0005652 1.0454776.0027002 1.5680902-.0040504.5701227-.0073787.7833663-.1814205.8816067-.7303604.3679912-2.0560988.731626-4.1129512 1.0941243-6.169992.0147424-.0836141.0018941-.1720323.0018941-.30265002h-5.5365676c-.0630102-.70546131.0071029-.79350268.6234731-.79384807 3.0214929-.00175831 6.0430173-.00160132 9.0645101-.00006279zm8.9838152 7.12165828h-6.1574521c-.0256019.079815-.0498148.13875-.0631366.2000084-.0348829.1607289-.0680611.3219915-.0964726.4839764-.0590957.3368116.0475103.4815586.3981389.4827518.586654.0020199 1.1733221.0038794 1.7599854.0046853l1.7599637-.001643 1.7598108-.0133096c.1623555-.0019467.4023059-.1523455.4661053-.295554.1129828-.253637.1182547-.5547172.1730572-.8609153zm9.670769-6.73224791c-1.1479482 0-2.295928-.00348523-3.4439077.00175832-.4442917.0020095-.7152421.21040129-.7873755.61556739-.3885422 2.182415-.7752534 4.3651753-1.1504421 6.549851-.0931264.542095.0798677.7230131.6298183.7233898 2.2066529.0014758 4.4132743.0016642 6.6199587.0002512.622242-.0004395.8647809-.2112176.9733126-.8337241.3675492-2.1089739.7345618-4.218042 1.1025215-6.3269531.0921161-.52787143-.0707761-.72740884-.6147919-.72907296-1.1096559-.00342244-2.2194065-.00103615-3.3290939-.00106755zm2.8666947 2.90432591c-.0241497.2040274-.0474471.3608943-.0602954.5186089-.0165733.203682-.1223901.2847843-.3258476.2788814-.344094-.0099533-.6888825.0026375-1.0326924-.0114918-.1998903-.008195-.2969942.0454022-.3296674.2612668-.0928107.6134638-.2156743 1.2223747-.3166612 1.8347395-.0682506.4141775.1080897.6296339.5291156.6516443.3050125.0159504.6110352.0126222.9165213.0209428.0211191.0005965.0415438.0265945.0855184.0566429-.0221925.1605404-.0250021.3404224-.0787628.503726-.0277801.0842735-.145214.1963661-.2236611.1975593-.3935931.0059343-.7956149.0234232-1.1798006-.0453395-.695575-.1245578-1.0445621-.6774852-.924729-1.3725536.1158871-.6721161.2326265-1.3441067.3626877-2.0952842-.660187 0-1.2675603-.0113662-1.8732921.0145061-.074722.0032027-.1686692.1962092-.2066774.3159945-.4115869 1.297731-1.1498107 2.3650285-2.2430511 3.1864445-.0495621.03727-.1032597.0691395-.2488841.1657526-.0545184-.0916522-.1085948-.1929437-.1727415-.2874532-.0634522-.0934105-.1370694-.1800075-.2366673-.3090553 1.0196548-.7933457 1.7729682-1.7647522 2.0933229-3.1089531h-1.4518874c-.0590327-.6968581.0095652-.7762963.6378051-.7764219zm-50.45926469-1.2890776c1.2644982 1.3590523 2.04852749 2.9797797 2.49742814 4.7678296.01155398.0459987.0178045.0933163.03851328.2046553-.91105997-.5681557-1.8795426-.6792749-2.83347227-.7857472-2.76891517-.3089926-4.61057586-2.1846443-5.12116089-4.9211798-.06263142-.3355871-.08697055-.67808185-.13962641-1.01574123-.04596338-.29508302.06490434-.40686165.36960118-.4142403 2.05736661-.04970381 3.79523086.66674697 5.18871697 2.16442363zm15.64114759-8.24755171c-.0986824.93033731-.1322394 1.87332821-.3113893 2.78809187-.267099 1.36407607-.6009965 2.71810463-.9717342 4.05853763-.5008304 1.81087661-1.7071167 3.02709721-3.435763 3.72583921-1.3316124.5382644-2.6848174 1.0234966-4.0232484 1.5454966-.4450809.1736022-.8740936.3880539-1.4135951.5381073.1112465-.336686.190325-.6881607.3393272-1.0074206.6328489-1.3561322 1.5275565-2.5466374 2.4778874-3.6898565 1.0391324-1.25000538 2.1296579-2.45777976 3.1978647-3.68392226.0459949-.05281227.0925581-.10518495.1166447-.17674211-3.467647 2.05352415-5.7332379 5.15085977-7.53316534 8.65267077-.02992671-.0124652-.05988499-.024899-.0898117-.0373642.05038295-.3015511.0910113-.6051118.15279038-.9043708.57034376-2.7651396 1.56755346-5.34684914 3.33313466-7.59199829 1.843902-2.34471376 4.2375969-3.75224534 7.2127791-4.15998616.087444-.01196282.172994-.03774098.2594595-.05708246zm16.9315444 11.45477891c-.3405584.0006908-.5454364.178469-.5989446.5183577-.0204799.1299662-.0411196.2598971-.0659012.4160069l-.0263096.1658071h.5087856l2.5401242.0002092 2.6526538.0003967.0977319-.0011616c.3932463-.0087971.4048503-.0763936.4918797-.5877892.061716-.3625584-.0400601-.508687-.4052417-.5100999-1.7315506-.0067507-3.4631959-.0053691-5.1947781-.0017269zm-.2374217-5.62844003c2.5636268.00675359 5.1272536.00747576 7.6909119.010804.0492465.0000628.0985246.0124652.144267.0186193.1015235.63305639-.0002526.76009469-.595188.75965511-.8800915-.00065937-1.760625.01551086-2.6399904-.00891717-.3616144-.01007892-.5494771.07984636-.5531075.46589082-.0019572.20939657-.0582118.41829067-.0970724.67390587h4.5672958c-.0093126.1530048-.0156579.2625541-.0226976.3720721-.0203931.3183493-.1599248.4438805-.5091644.4333934-.9396293-.0281331-1.8806475-.009608-2.935059-.009608 1.1132547.7234527 2.1383708 1.3896345 3.199159 2.0790198-.200711.2360538-.3699484.4350575-.5605891.6592741-1.3102091-.8427355-2.6004038-1.6725977-3.9279438-2.5264797-.0771529.4186047-.1463821.7892953-.2136225 1.1603627-.1174339.6482219-.1990378.6971721-.9433543.5188601.0828667-.5136793.1665226-1.0320056.2625533-1.6271954-1.552748 1.1071736-3.2251397 1.8688382-4.9716852 2.4684238-.3558059-.5320475-.2985726-.6351287.2501153-.883428 1.1226936-.5080904 2.2284034-1.0533566 3.3389748-1.5877589.1103311-.0531263.2056672-.1370544.4035055-.2717226h-3.5871329c.0310316-.2373098.0181518-.4395474.0934736-.6011241.0442903-.0950746.2281438-.1760827.350092-.1772759 1.2753261-.0127478 2.5510311-.0195298 3.8261993-.0008791.3678018.0054005.5848652-.0606619.5733112-.4817157-.0054297-.19762209.0595377-.39715951.1055643-.67381162h-3.6377053c.0247811-.20107594.0465948-.34792669.0601375-.49553099.0185622-.20280286.1246-.27536478.3287519-.27483392zm12.1125012 1.78317033c2.0011436-.0036736 4.0022871.0047098 6.0034306.0119629.0098178.0000314.0196355.0152282.0838138.0682917-.0178677.1221087-.0428382.2571222-.0563809.3932661-.0227608.2293974-.1316713.3146129-.3747468.3134197-1.8998095-.0093253-3.7996505-.0046156-5.6994599-.0064053-.0855184-.0000628-.1709737-.0206916-.2910593-.0362338.0293269-.2038704.0338727-.3948361.0919267-.5680301.0265805-.0793126.1582833-.1761142.2424758-.1762712z" fill="#fff" fill-rule="evenodd"/></svg>