<svg height="29" viewBox="0 0 66 29" width="66" xmlns="http://www.w3.org/2000/svg"><path d="m10.159888 7.86353539c.1190454 0 .1544611.04625217.1540789.15520663-.0021603.61569987-.0034706 1.23141527.000429 1.84709184.000953.13626294-.0742474.14444934-.1792232.14424734-1.37386531-.0026407-2.74773839-.0029436-4.12161147-.0040621l-3.59176429-.0032698c-.17783498-.0001398-.22004368.0415142-.22041804.2252875-.00145063.7231786-.0025893 1.4463572-.00159881 2.1695435.00050694.3674301.00266729.3666845.37290595.366568 1.92349875-.0006525 3.84699749-.0009398 5.77048844-.0012117.22708626-.0000311.24725472.0224231.24761348.2530776.0008891.5619061.00272968 1.1238122.005202 1.6857184.00074871.1698394-.02773359.1993071-.20662144.1991906l-5.96175346-.0042408c-.17661831-.0001165-.22888005.0497084-.22898144.2227711l.00005459 1.7738264c-.00040555.2251865-.01142567.4505361-.00392294.6753576.00137264.0411026.06389019.1066088.10677741.1145.0948838.0174368.19522697.005367.29334739.0053748 2.51232266.0003184 5.02465312.001631 7.53697583-.0016855.1390578-.0001864.1856886.0335842.183483.1796957-.0090875.5764924-.0047278 1.1531867-.0042832 1.7298112.0001794.2362932-.0057402.2433689-.2486196.2430815-1.45238657-.0017553-2.90478095-.0048854-4.35717532-.0049941-1.84985969-.000132-3.69972717.0005437-5.54957905.0065188-.14744971.0004792-.15588053-.0720328-.15568869-.1802883l.00046329-11.56666359c-.0000078-.21390895.0111917-.2284331.22311652-.2284564 3.31209652-.00043495 6.62420864.00041941 9.93630515-.00199622zm33.7104575-.00085131v.00161647c1.1629309 0 2.3258619.00139805 3.4887928-.00081553.3661987-.00080094.7228826.03774727 1.0816098.12682616.5512089.1368688.9992981.43830325 1.4238809.78939167.3788098.31324018.6327328.72261939.8442833 1.15517511.0953985.19506634.1560209.41309954.196077.62745124.0555764.2974034.1115427.6018204.1055842.9020276-.0115349.5803526-.1580799 1.1272763-.4563875 1.6409887-.2092341.3603233-.4523475.6832877-.7627282.9532661-.213703.1859014-.4397208.3625291-.7126813.4646409-.0700281.0261978-.129777.0784226-.1980424.1107563-.3838013.1817539-.8010374.2162002-1.2140151.2680445-.1158555.0145397-.1503197.1225155-.0769536.2416835.1347371.2188409.2696225.4376197.401084.6584102.2361021.3964705.472711.792677.7035487 1.1921922.2466074.4268238.4839338.8589756.7308766 1.2855974.1359928.2349573.2857745.4619768.4248713.6952099.0900874.1510279.1715022.3071587.2580019.460338l.0959872.1522796c.014669.0257393.0273243.0520994.0359423.0797418.0340587.1092729-.015138.1714472-.1427468.1701474-.6225784-.0064594-1.2458198-.0253408-1.8675247-.0032128-.2417329.0086058-.3369131-.069514-.4449306-.2744444-.2329589-.4419692-.5179691-.8564668-.7741772-1.2866459-.1513804-.2541804-.2843706-.5191569-.4328654-.7751082-.2005771-.345737-.4082281-.687412-.6126423-1.0309432-.1530417-.2572251-.3085011-.5130676-.4579083-.7723665-.1665497-.2890462-.3220871-.5844768-.4925597-.8711464-.1348152-.226701-.291694-.4404003-.4265014-.6671169-.1466542-.246631-.2764077-.5031726-.418827-.7523822l-.2595305-.4221015c-.0234675-.0414987-.0409375-.1197039-.0189596-.1456842.0343628-.0406133.1043831-.0703529.1597957-.0711606.3727733-.0055068.7456793-.0018874 1.1185541-.0017398.7654656.0002951 1.5309936-.0048543 2.2963891.0026873.3444938.0033942.6470285-.071813.9302995-.2856753.256754-.193847.418749-.4278645.4935501-.731831.0810092-.3292633.0464515-.6356764-.0851661-.9585087-.136375-.3344983-.4098347-.5029474-.6758852-.6772606-.1338013-.0876575-.3341601-.1020186-.5045703-.1025933-1.9725473-.0065708-3.9451101-.0040233-5.917673-.0043417-.2058571-.0000311-.4120028.0026019-.617353-.00837276-.0507331-.00271843-.1182499-.04184044-.1452035-.08470611-.2679224-.42611694-.5297068-.85608628-.7915848-1.28594687-.1088754-.17872477-.2183747-.3573874-.3175792-.54142474-.0267041-.04956077-.0333645-.1239291-.0167057-.17673644.0085244-.02699784.0889409-.04422488.1369054-.04431809 1.3052176-.00232231 2.6104508-.00188831 3.9156685-.00188831zm-20.4315465-.02174179c.0001637.00653199.0003353.01306398.0005069.01960373.9517314 0 1.9034785-.00083106 2.8552099.00232231.0506707.00016311.1403993.02810074.1442053.05327336.009858.06518005-.0002496.14678716-.0341133.20281-.165684.2740871-.3754328.52697049-.505046.81605553-.1421697.31710035-.3547029.5898127-.501513.9015461-.0530807.11272918-.1448605.17391708-.2993527.17314808-1.3883794-.0068815-2.777141-.01590664-4.1650212.012699-.3490096.0071921-.7100063.0321162-1.0548433.1734044-.2584542.105902-.5313914.1808762-.7703557.3289837-.2219934.1375834-.4476291.2765648-.6429964.4474294-.1885198.1648686-.3428327.3692009-.5078693.5598867-.298721.3451468-.4717673.7604288-.628342 1.1790895-.0683434.1827636-.0775542.3882144-.1071829.5843215-.0209952.1389659-.0488692.2803395-.0426611.4192587.0141164.3159276.0180393.6367638.0790594.9452196.1186867.5999718.4061379 1.1246588.7879349 1.6047171.277445.3488515.6111449.6336958.9897676.8503154.2433318.1392222.5064967.2565882.7837233.3479661.3167759.1044264.6455857.1079137.9585323.2041537.0905163.0278367.1943534.0164659.2920995.0166212l1.8838715.0019651c.0480814.0002252.1282951.021825.1365076.0499879.0125877.0431764-.0171424.1045196-.0418811.1513697-.0615505.1165349-.1301748.2293729-.1964359.3434224-.0447356.0769936-.0897364.1538396-.1355483.2301962-.2153876.3590418-.4640305.7031011-.6354391 1.0818476-.1199812.2651396-.2852441.3039975-.5288644.2920908-.2740914-.0134057-.5495087.0011185-.8237951-.0100349-.2431524-.009895-.4883794-.0221124-.727445-.0633858-.2166589-.0374056-.4272969-.1119914-.6386368-.1765345-.1960381-.0598675-.3906021-.125032-.5835829-.1940645-.0890345-.0318599-.1723522-.0793314-.2589144-.1182981-.3840665-.1728762-.7630401-.3528126-1.0857589-.6320104-.1469037-.1270902-.3149041-.2303437-.4590469-.3601524-.1537592-.1384688-.3029871-.2856831-.4323195-.4465207-.2628763-.3269255-.554157-.6422938-.75241-1.0063452-.1776166-.3261799-.3891982-.6495326-.4528233-1.0343217-.0259241-.1567832-.1135158-.302483-.1588441-.45734-.0406879-.1390047-.0700359-.282522-.090064-.4260393-.0441975-.3166964-.108462-.6344958-.1101986-.9521398-.0017106-.3266071.059871-.653719.0964098-.9803028.0166745-.1490551.0307206-.2993374.0623304-.445542.036336-.1680453.0854235-.3339546.1387849-.4976037.0636796-.1952684.1193028-.3964629.211644-.5783565.1433708-.282421.3115271-.5526713.4755811-.8242574.1003588-.1661579.195227-.340572.3232257-.4841825.2731087-.30643637.5479567-.6159562.8564811-.8851113.2767275-.2414194.5867961-.45239245.9058571-.63593271.2709172-.15583563.5743644-.25647948.8659024-.37553094.1809235-.07388678.3665263-.13642608.5498831-.2044566.0179145-.00664849.0340898-.02100177.0522383-.02354932.2591562-.03641913.5177586-.094174.7779598-.10276422 1.0475901-.03462496 2.0956794-.05395684 3.1435893-.07892752zm42.3727795.01781811c.0576743.00017088.1152551.03004248.1728748.04615109-.0216815.0637587-.0305413.13623967-.0672438.18978487-.1705974.24891449-.3483544.49299018-.5246296.73801344-.1495788.20790511-.2985494.41630731-.451552.62171923-.2418812.32474301-.4888317.64576567-.7300578.97099017-.2111059.2846424-.420769.5704731-.6242786.8605212-.1085244.1546706-.1951099.3247275-.3050616.4782641-.1603416.2238895-.3365154.436478-.4989549.6589306-.1308377.179183-.246896.3690455-.3775776.5483606-.1642412.2253729-.3311574.4493012-.5076822.6651364-.1016144.1242397-.1193105.2113381-.0204492.3460399.2768601.3772396.5600453.7499512.8321323 1.1305462.32764.4582875.6416082.9262915.9705975 1.3835926.2494306.3467234.5170956.6804062.7691156 1.0253432.173561.2375359.3302839.4872116.5015676.726464.2906957.4060705.5868507.8082498.8810326 1.2118349.0169553.0232541.0328576.0503064.0559351.0655451.0922322.0609004.1466932.1537308.0888161.2432368-.0318359.0492268-.1422945.0662286-.2174621.0665704-.6274529.0028504-1.2549213-.0015457-1.8823975-.0037748-.07842-.0002796-.1579083.007332-.2349946-.0029436-.1124708-.0149902-.2024879-.0569394-.2744736-.1644181-.1869755-.2791822-.4020979-.5397005-.588122-.8194497-.0721884-.1085583-.1301825-.2234933-.2147871-.3281061-.1818047-.2248215-.3348697-.4724078-.5073701-.7050273-.2621666-.3535505-.534745-.6994662-.7952972-1.054174-.1550382-.2110817-.2966074-.4320586-.4420995-.6500063-.0731711-.1096147-.1411169-.2226856-.2122914-.3336362-.0735689-.1146864-.1978475-.094873-.2796054.0283959-.1719778.2592678-.3521136.5132463-.5315863.7674967-.226244.3205411-.4540712.6400026-.6834036.9583689-.1327484.1842937-.2706442.3649136-.4046951.5482907l-.5036188.6934313c-.1830369.2490776-.368944.4960581-.5521759.7449959-.0166199.0225785-.0229606.0526986-.0338949.0793858-.0625175.1525036-.1769381.2327748-.3397286.2326505-.6768679-.0005048-1.353728-.0024698-2.0305881-.0028271-.0487678-.0000233-.098448.0163494-.1460693.0109203-.0487365-.0055534-.1269381-.0181436-.1362814-.0461589-.0173686-.0520694-.0151224-.1328766.0157386-.1750121.1819295-.2484252.3804165-.484835.5616753-.7337106.1661753-.2281768.3148728-.4688894.4765247-.7004526.1002964-.1436881.2114647-.2798035.3158088-.4207577.1694821-.2289535.3368195-.4594837.5060755-.6886003.1264623-.1711831.2562159-.3399739.3813134-.5121279.0862424-.1186942.1648027-.2429106.2506863-.3618767.2497582-.34597.5028545-.6895555.751825-1.0361003.1228826-.17102.2369443-.3483234.3596709-.5194599.1628763-.2271282.3265169-.4539148.4973171-.6751091.0929653-.1203951.0662066-.2169691-.0206988-.3233682-.12764-.1562628-.2491343-.3176052-.3708002-.4785981-.1053813-.1394474-.2092809-.2800987-.3104274-.4226218-.1434097-.2021032-.2827328-.4070647-.4255966-.6095563-.1095773-.1553152-.2205818-.3096673-.3333334-.4627069-.2337467-.317279-.4719154-.6313657-.7030416-.9505243-.2852831-.3939386-.5619873-.79407515-.8485026-1.18712828-.248994-.34157393-.5075886-.67620423-.7596943-1.01554906-.1023476-.13776975-.2031041-.27715503-.2953986-.42163542-.0303151-.04744039-.058774-.12672518-.0386289-.16674816.0197161-.03916085.1021915-.0646286.1575963-.06548297.3628919-.00559218.7259086-.00288153 1.0888864-.00288153v.00709898c.3433629 0 .6869287.00708343 1.0299953-.00278833.1908283-.00549122.2926611.09663611.3751989.24305046.0231867.04114141.0475043.08201875.0750897.1203097.2030728.28180743.4048588.56458572.6115349.84376793.1725706.23310102.3562705.45812444.5260256.6931905l.7464748 1.05790208c.1375527.1918509.2868196.375329.4272189.5652071.1266417.1712685.2435891.3498457.3744891.5177046.0596475.0764887.1172984.109568.1970052-.0153164.165801-.2598115.3626891-.499763.5417798-.7514192.1558337-.2190118.2987209-.4473129.4581422-.6636218.2478319-.3362924.5068867-.6643752.7564889-.99940938.0620496-.08328476.0986118-.18527228.1597489-.26940364.2024723-.27862299.4114023-.55259359.6165887-.82928261.0732413-.09875648.1556855-.1936994.2110045-.30199367.0728124-.14254642.1781236-.21031286.3345968-.20993228.2992201.00073009.5984558.00203494.8976759.00079223.4167759-.00172426.8335518-.00747179 1.2503042-.00630675zm-32.0517247.12023359c.0360708-.00385239.0911402.05187531.1175011.09366138.1902512.30155096.3800578.60359123.5604275.91104505.1203088.20509348.2186866.4229092.3380128.62862404.1413196.24362521.2972001.47882334.4420371.72048344.1588364.2650076.3122524.5332384.4680627.8000479.1280768.2193148.2571908.4380392.3840353.6580607.1952347.3386458.3839807.6811363.5848386 1.0164345.1630635.2722153.3490329.530986.5083528.8052362.2144673.3691621.4084386.750091.6199969 1.1209929.1651459.28952.3458041.5702245.5156996.8571115l.5112619.8793171.6524334 1.1003562c.1376462.2354932.2639448.4776194.4034238.7119942.1719544.2889297.353689.5720653.5285057.8593406.098526.1619094.1949306.32531.2860474.4914368.0664093.1210864.0137732.1984838-.1402199.1987324-.5586804.0009009-1.1173686-.0029903-1.6760491-.005266l-.2353749-.0081932c-.0388872.0003495-.0773272.0030178-.1149058.0101971-.1281392.0244736-.1679458-.0469822-.2185229-.1320145-.1648027-.2770774-.3369755-.5498518-.4991967-.8283972-.1312666-.2253962-.2473951-.4595458-.3790828-.6846934-.1542272-.2636484-.3218531-.5194988-.4765716-.7828675-.1493527-.2542348-.2848385-.5165628-.4353767-.770052-.1379972-.2323554-.2904305-.4561517-.4315785-.6867051-.0718843-.1173971-.1289269-.2437573-.1997037-.3618922-.1644907-.2745842-.3384729-.5436461-.4989939-.820475-.2119872-.3656048-.4102948-.7390852-.623101-1.1042007-.1398611-.2399825-.2999844-.4682059-.4418265-.7071166-.1535252-.2585921-.2933396-.5252385-.4452192-.784848-.0690142-.1179874-.1343706-.1225932-.214015-.0063301-.0965372.1409387-.1722118.2958889-.2598736.4430333-.228147.382995-.4615271.7629453-.6855172 1.1483169-.1165418.2005188-.2141241.4118802-.3269536.6146747-.0742708.1334979-.1620028.2595163-.2409531.3905211-.1471221.244099-.2925129.4892154-.4380986.7342232-.139401.2345922-.2800499.4684777-.4167447.7046389-.2410076.416385-.4765559.8359311-.7199033 1.2509491-.1724614.2941413-.3567228.5814167-.5304789.8748279-.1089533.1839829-.2053735.3752901-.3127749.5602362-.0783809.1349737-.1669474.2640367-.248331.3973327-.0895336.1466396-.1787085.2936209-.2628607.443344-.0484948.0862828-.1139292.1160457-.2130557.1144993-.3335127-.0054749-.6671814-.0021196-1.00078-.0021196l.0000234.0006136c-.3281625 0-.656364.0025087-.9844564-.0024233-.0556387-.0008388-.1456871-.0209707-.1580565-.0546792-.0188894-.0514637.0009047-.1309659.0306583-.1838354.160404-.2850851.3261816-.5672808.4955233-.8472242.1519264-.2511514.3145843-.4959028.4653175-.7477454.0885119-.1478901.1584308-.3067315.244837-.4559808.1313991-.2269729.2734051-.4478565.4041803-.6751557.1092965-.189948.2081968-.3858066.3132273-.5782167.0479254-.0878128.098448-.174282.1496958-.2602231.1698721-.2848987.3399002-.5697119.5112307-.8537329.1507799-.2499397.3081501-.4960581.4538216-.7488949.141226-.2451242.2694977-.4976115.4075651-.744592.0293558-.0525277.0833256-.0911527.1142568-.1430979.1750351-.293986.348136-.5891447.5187724-.8856938.2025035-.351935.3974497-.7082506.6040166-1.0577778.1471377-.2489611.3152628-.4856738.4607472-.7355203l.3896818-.7262854c.1584776-.2720599.3381766-.53180925.497746-.8032789.1278506-.21749727.2367962-.44593813.3594292-.66658877l.1659257-.24934944c.063664-.11081075.1110513-.23128357.1792778-.33890211.0290049-.0457239.0908283-.09045364.142006-.09591379z" fill="#fff" fill-rule="evenodd" transform="translate(0 1)"/></svg>