<svg height="29" viewBox="0 0 91 29" width="91" xmlns="http://www.w3.org/2000/svg"><g fill="none" fill-rule="evenodd" transform="translate(0 5)"><rect fill="#055ad7" height="17.922747" rx="3.090129" width="17.922747"/><g fill="#fff"><path d="m4.98616996 7.69639828c-.00015451-.35150214.28483262-.18803433.45061802-.26745064.00417168-.05531331.00896138-.11750215.01444635-.1907382.06945065-.00826609.13720172-.01630043.21893563-.02595708.0072618-.06581974.0145236-.13287554.02286695-.2088927.0695279-.00486696.13202575-.00911588.20657511-.0142146.01012017-.06806008.02008583-.13488412.03159656-.21182832.06334764-.00633477.12561374-.01251502.19861803-.01977683.00834335-.06782832.01676395-.13565665.02680687-.21630901.06180257-.00587124.12391416-.01166523.19784549-.01861802.01035193-.05678112.02124464-.11688412.03321888-.18293563.05276395-.00648927.10205151-.01259227.1654764-.0204721.00718455-.14006009.0143691-.27950215.02217167-.43215451.06690129-.01027467.1331073-.0204721.21051502-.03236909.00973391-.21723606.01946782-.4331588.02943348-.65541631.07223176-.01197425.1331073-.02217168.21360515-.03561374v-1.3212618c.08080687-.01166524.14206867-.02039485.21677253-.03113305.00996567-.13766523.02000859-.27695279.029897-.41361373.14245493-.101897.4404206.08343347.44582832-.26212017h1.11121031c.00695279.07454935.0132103.14129613.02016309.21538197.07223176.00540773.13496137.01004292.20974248.01560515.00842061.06728755.01691846.13480687.02703863.21584549.06442919.00811159.13117597.01637769.20781116.02587983.00703004.14500429.01382833.28460086.02132189.43856653.06404292.00795708.12522747.01545064.23307296.02866094 0 .20927897.00417167.42520172-.00146781.64081545-.00378541.14330472.03607725.23809442.20920172.22696996v1.14744206c-.0645837.01382832-.11974249.02557081-.19815451.04241202-.0120515.26961373-.02425751.54316738-.03700429.82908154-.0635794.01050644-.12453219.02054936-.20634335.03406867-.00625751.13944206-.01274678.28375107-.02062661.45849785h.21499571c.8493219.00030902 1.698721.00046352 2.5481202.00139056.0641201.00007726.1282403.00749356.1923605.00757082.1373562.0001545.2604206.0133648.2029442.20997425.0878369.00795708.1570558.01413734.2387124.02155364.0084206.06620601.0169957.13333906.0270387.21244636.0625751.00587124.1248412.01174249.205648.01946781.010043.16053219.0159142.32477253.0329872.48785408.0052532.05075536.0345321.10251502.0637339.14670386.0365407.05508154.0843605.10290129.1273133.15381116-.0589442.03893562-.1178884.07787124-.1989271.13140772-.0052532.11418026-.0121287.2602661-.0193133.41531331-.0696051.00672103-.1315622.01274678-.2058798.02000858-.0084979.06597425-.0172275.13349356-.0277339.21538197-.0652017.00733906-.1322575.01490988-.2065751.02333048v.18888412c.0636566.0097339.1303262.01993133.2061888.03144206.005794.05739914.0114335.11348498.018618.18409442.059176.00927038.1193563.01869528.2001631.0313648v.87489269c-.0584806.0101974-.1244549.0217854-.199854.0349185-.0044035.0713047-.0086524.1402146-.0135194.2194764-.0675965.0085751-.1288583.0162231-.2132961.0268841v.6163262c.0674421.0067983.1296309.013133.204412.0207811v.9075708c-.0696051.006103-.1315622.011588-.2036395.018-.0081115.0704549-.0159141.1384378-.0252618.2201717-.0618025.0055622-.1238369.0112017-.2013991.0180772v.2077339c.060103.0068756.1221373.0139829.2024034.0230987v1.1011674c-.0672103.0064893-.1291673.0124378-.2034849.0196223-.0088842.0656653-.018.1327983-.0288155.2126009-.0677511.0059485-.1357339.0119743-.2143004.0188498-.0064893.0673648-.012515.1293991-.0198541.2052618h-6.7800515c-.00741631-.0628841-.01475537-.1242232-.02325322-.1964549-.07115022-.0077254-.1390558-.0150644-.21630902-.0235623-.00903862-.0652789-.01745922-.1265407-.02719313-.1971502-.06620601-.0109699-.12754506-.0210901-.20356223-.0336051v-.2122919c0-1.9818541 0-3.9637854.00023176-5.94563947 0-.05137339.00224034-.10274678.00301287-.15419743.00239485-.1487897.03283262-.27293562.23214593-.24288412z"/><path d="m10.8806292 2.70227897c.3462489-.01676395.1973047-.28390558.269382-.44899571.1316394-.00965665.2702317-.01969957.419794-.03066953.0084206-.06682403.0160686-.12839485.0252618-.2016309h.6463004c.0144463.31998284.2826695.17304721.4593476.23925322.004558.06033477.0095794.12762232.0152189.20317597.0709185.00641201.1332618.01212875.2107468.01923605.0085751.1307897.0171502.26266094.0263433.40303004.0702232.00664378.1321803.01251502.2166953.02062661v.659897c.0801116.01738197.1404464.03043776.2164635.04696995 0 .47765666.005485.95817168-.0077253 1.43822318-.0014678.05376824-.1093905.1045236-.2110558.19514163v.59809442c-.0831244.01066095-.1448498.01869528-.216309.02788841v.24767382h.234c.6885579.00007726 1.3770386.00015451 2.0655193 0 .090618 0 .1803863-.01282403.2057253.11750215.0066438.03422317.0804206.0743176.1265408.07872103.1655537.01606867.3324206.01807725.5128841.02595708.0079571.05585408.0156824.10962232.0249528.17443777.0645837.00540772.1270043.01066094.2048756.01722747.0081115.07068669.0165321.14438626.0264206.23044635.1755193-.02371674.2165407.07547639.2126781.22642918-.005794.22411159-.0014678.44853219-.0014678.68685837-.0662833.00849786-.1273133.01622318-.2051846.02611159-.0108154.13496137-.0218627.2734764-.0339914.42442918-.0660515.00965666-.132721.01939056-.2173133.03175108.0068755.12746781.0136738.25246352.0209356.3864206.0733906.01027468.1349614.01892704.2039485.02858369v.9275794c-.0669785.0072618-.1242232.01344206-.1941373.02093562-.0099657.06504721-.0202404.13233476-.0304378.19854077-.2372446.06551073-.2495279.08969099-.2082747.41971674.059485.0064893.1216738.0132103.2024035.0220172v1.140721c-.0726181.0076481-.1394421.0148326-.215382.022867v.4107553c.0689871.0069528.1307124.0130558.2181631.0217854 0 .2204035.001236.4370987-.0004635.6539485-.0011588.1460086-.0296653.2726266-.2267382.2489871-.0049442.0777168-.0088842.1409872-.0137511.2185494-.1254592.0132103-.2506867.0262661-.3871159.0405579-.01097.0622661-.0217854.1234507-.0346867.196146h-2.2655279v-2.0274335c.0673648-.0088069.1284721-.0168412.208661-.0274249v-1.12712447c-.2194764-.05222317-.2305236-.07470386-.196146-.42396566.0583262-.00633477.119897-.01297854.203794-.02209442.0069528-.14732189.018618-.29842919.0198541-.44969099.0011588-.13936481.0368498-.24064378.2086609-.23029185v-.63139055c-.0689098-.011897-.1301716-.02232618-.205648-.03522747-.0068756-.14245494-.0138283-.28776824-.0214764-.44559657-.0679829-.00579399-.1299399-.01112446-.2054163-.01753648-.0083434-.0648927-.017073-.13233476-.0273477-.21244635-.0640429-.00803434-.1314077-.01653219-.2104377-.02649785-.0055623-.06334764-.01097-.12561374-.017691-.20340773-.0708412-.00795708-.1446953-.01622318-.2299056-.02572532.0160687-.26011159-.1824721-.21522747-.3301803-.21677253-.6884806-.00672103-1.3770386-.00409442-2.0655193-.0047897-.0899227-.00007726-.1799227 0-.2679141 0-.09648931-.3322661-.0380086-.60157082.1575193-.67225751v-1.35324464c.0802661-.01158798.1466266-.02124463.2222575-.03221459.0085751-.12878112.0169957-.25524464.0261116-.39182833.066206-.0095794.1277768-.01854077.2131416-.03090129v-.67109871c.0818112-.01514163.1423004-.0264206.2226438-.04125322z"/><path d="m4.10328155 14.2473322c-.00525322.0806523-.00973391.1496395-.01514164.2310644-.07454935.0051759-.14245493.0098111-.21993991.0151416-.00695279.0697597-.01305579.1315622-.02062661.2077339h-2.01607725c-.00733906-.060103-.01483262-.1214421-.02433477-.1999313-.06334764-.0071073-.13063519-.0146009-.21066952-.0236395-.00811159-.0645065-.0166867-.1320258-.02696138-.2132189-.0587897-.0078026-.12012875-.0157597-.19908154-.0261888v-6.30533051c.06025751-.00780257.12182832-.0156824.19460086-.0251073.00811158-.06589699.01637768-.13380257.02634334-.21476394.06643777-.00733906.13364807-.01475537.21074678-.02340773.00610301-.06767382.01174249-.12986266.01846352-.20340773h2.03052361c.00710729.06713305.01359657.12893563.02139914.20240344.06628326.0084206.13380258.01707296.21275537.02719313.00625751.0683691.01251502.1367382.02016309.21970816.05987124.00888412.12036051.01792274.19939055.02974249.00563949.12128755.01599142.24133905.01606867.36139055.00092704 1.83955364.00054078 3.67918454.00015451 5.51881544 0 .0641974-.00857511.1288584-.00355365.1925923.011897.1524206-.03391416.2503004-.21422317.2292103"/></g><path d="m7.96621288 11.7373597v1.3768068h1.57758798v-1.3778884h1.33339054v-1.583691h-1.3407296v-1.33060942h-1.58732189v1.34173392h-1.37286695v1.5736481z" fill="#f00"/><path d="m86.4424275 2.72162318v1.98386266h1.5802918v-1.31029185c-.0618026-.01969957-.1087725-.03460944-.1658626-.05276395v-.20070386h1.5636824v.66252361c.084515.01823176.1448497.0312103.2215622.04766523v.85619743h.6443691v1.80942489h-3.8180086c-.0047897.096103-.0074936.15203433-.01097.22225751.2011674-.00046352.2200945.1284721.2136824.28197425-.0057939.13990558-.001236.28027468-.001236.4428927h.2483691c1.0169614 0 2.0338455-.00108154 3.0507296.00061803.3298713.00054077.3336567.00378541.3359743.32886695.0034764.48128755.000927.96265236.000927 1.47252361h-.3814764c-.8559657 0-1.7120086-.00061803-2.5679742.00077253-.0960258.0001545-.1946009.00023176-.287073.0216309-.0526094.01220601-.0953305.06751931-.1424549.10344206.0444978.03213734.0879914.065897.1341888.09556223.0149871.00973391.0366953.00911588.0789528.01838627v.63077252c.0838197.0116652.1454678.0203176.2209442.030824.0068755.1514936.0227897.3045322.0182318.4569528-.004867.1653992.0644291.2336138.2262746.221485.0689872-.0050987.1387468-.0008498.2193219-.0008498.0062575-.0698369.011897-.1317167.018618-.2064206.0512962-.0087296.1057597-.0181545.1722747-.0295107.0081116-.0631159.016764-.1304807.0268841-.209897.0634249-.0049442.1259228-.0099657.2045666-.0162232.0080343-.0637339.0163776-.1307897.0263433-.2101287.0641202-.0083434.1313305-.0169957.209897-.0271932.005485-.0633476.01097-.1258455.0177683-.20533902h2.030369c.0029357.06103002.0061031.12808582.0099657.20889272-.0745493.0109699-.1407553.0206266-.2147639.031442-.0113563.1378198-.0224035.2708498-.034455.4162404-.065588.0101974-.1320257.0204721-.2089699.0325236-.0050987.0698369-.0099657.1381287-.0154507.2153047-.0717682.0050215-.1341888.0094249-.2075021.0145236-.0082661.0699142-.0163004.137588-.0258798.2183176-.0540773.006412-.1082318.0128241-.1718885.0203949-.0044806.0706094-.0084206.1332618-.0129785.2078111-.0682918.0099657-.1351931.0196223-.2119828.0308241-.006412.0632703-.0128241.1256909-.0206266.2013218-.0638885.0093477-.1309442.0190816-.2099743.0304378-.0072618.0533047-.0146008.107691-.023176.1708841-.0701459.0047897-.132721.0091159-.2063433.0142146-.0096567.0690644-.018927.1361975-.029588.2131417-.0649699.0053304-.1276996.0104291-.2038712.0166094-.0091159.0641202-.0187726.131176-.0301288.2104378-.0650472.0072618-.1325665.0147553-.2095107.0234077v.2185494c.0650472.0071072.1266953.0139055.1967639.0217081.0079571.0669013.0152962.1290901.0240258.2032532.0652017.0090387.1327983.0183863.2118283.0293562.0069528.0616481.0139828.1237597.0223262.1978455.0652017.0079571.1331845.0162232.2136824.0261116.0087296.0638884.0179227.130867.0285064.2079657.1405236.0091159.2797339.0180772.4284464.0276566.0088069.0668241.0169184.1287039.0271931.2071932h.4053477c.0564721.2869957.2893133.1598369.475648.2189356l-.0000772.3102489c-.0001545.4118369.0035536.8238284-.0040172 1.235588-.0014678.0748584-.0489013.1487897-.0750901.2231846-.0516052-.0413305-.0991932-.0899228-.1561288-.1215966-.0410214-.0227897-.0944034-.0313648-.1424549-.0319056-.2431931-.0030901-.4864635-.0014678-.7308155-.0014678-.0105837-.0892275-.0173819-.1459313-.0268068-.2252704-.2119056-.0105064-.4269013-.0211674-.654103-.0324463-.0086524-.065897-.0166867-.1273906-.0265751-.2027897-.0967983-.0089614-.2024035-.0017769-.2952618-.0328327-.0737769-.0245665-.1319485-.0958712-.1969958-.1463948.0116653-.0183863.0234078-.036618.0352275-.054927-.0689099-.0067983-.1377425-.0135966-.2193219-.0216309-.0087296-.0651245-.0178455-.132103-.0283519-.2106696-.0560858-.0055622-.1113991-.0110472-.1776052-.0175365-.00703-.0661287-.0136738-.1277768-.0213218-.2000858-.0682919-.0092704-.1359657-.0183863-.2180859-.0294335.0116653-.1511845-.0425665-.2489098-.223648-.2155364-.0087297-.0730043-.0159915-.1352704-.0250301-.2119056-.0624206-.010352-.1290901-.0213992-.2075794-.0343777-.0078798-.0526094-.0160687-.107073-.023794-.1586009-.3870386-.0580171-.4076652-.0512961-.4485322.1626181-.0646609 0-.1338025-.0023949-.2025579.000618-.0703777.0031674-.1406009.0116652-.2238026.0190043-.0117425.0635794-.0239485.1297081-.0376996.2037167-.1293218.0067983-.2566352.0135193-.3962317.0209356-.011279.0677511-.0224035.1338026-.036309.2166181h-.4457511c-.0119743.0778712-.0213219.1389785-.0329099.2147639-.2238798.0101202-.4404206.0198541-.6687038.030206.0301287.2024807-.102206.2162318-.2462833.2162318l-.6241288-.0000773c-.0135193.0821975-.0234849.1429185-.0350729.2138369h-.1951416c-.0107382-.2183176-.0210902-.4289098-.0320601-.6526352-.0608756-.0129785-.1211331-.0258025-.2046438-.043648v-1.0860258c.0850558-.0081116.1909699-.000618.2833648-.0324463.0761717-.0261889.1362747-.0990387.2034077-.1512618-.0104292-.0201631-.0209356-.0403262-.0313648-.0603348h.6411245c.0116652-.0779485.0207811-.138824.0319828-.2130644.2142232-.0106609.4245064-.0210901.6475365-.0320601.012206-.0664377.0242575-.1323347.0397854-.216927h.4449013c.0087296-.0797253.0156051-.1413734.0237167-.2149184.1437683-.0083434.2829013-.0163005.4338541-.0249528v-.4109872c-.0637339-.0075708-.1249957-.0149098-.2018627-.024103-.0115107-.2174678-.0227897-.4330043-.0346867-.6568068-.0713819-.0085751-.13303-.0159915-.2153047-.0258799v-.6624463c-.0799571-.0144464-.1409871-.0254163-.2222575-.0400944v-.62714167c-.0142918.00803434-.0286609.01606867-.04303.02410301-.0750129-.07454936-.150103-.14909872-.2252704-.22364807.0099657-.01537339.0198541-.03082404.0298197-.04627468h-1.5774334v-1.79830043h1.3279828v-.94125322h-1.3272876v-1.81220601h1.1154593v-1.99939055zm-29.0489408.1813442v1.16003434h4.5407124c.0121288.07717596.0218627.13843776.033837.21391416.2044892-.00672103.2123691.12522747.2081974.28761373-.0093477.36015451-.0085751.72092704-.0001545 1.0811588.0033991.14593133-.0235623.24056653-.2011674.22156223-.0145236.07292704-.0278112.13990558-.0444979.22357082h-4.5243347v2.25494421h5.0042317v1.81027463h-4.5315193v.2200945c.0684464.0061802.1306352.011897.2017082.0183862.0068755.072.0133648.1409099.0213991.2255794.3438541-.0017768.1752876.2863777.2454335.4558713.0624978.0047897.1248412.0095794.1979227.0151416.0077254.0711502.0149872.1389785.0237168.2190901.0643519.0052533.1265407.0105065.2020171.016764.0088069.0645837.0179228.1318712.0288927.2119056.0517597.0074163.1063005.0151416.1722747.0245665.0057168.0562403.0112017.1110129.0175365.173588.072618.0044807.1352704.0083433.2092017.012824.0091159.0693734.018.1365837.0285065.2159227.0697596.0046352.1379742.0092704.2170815.0145237.0069528.0681373.0132103.1298626.0207811.2048755.1407554.0114335.2793477.0225579.431073.0348412.0067983.0634249.013442.1251502.0220944.2058026.1402918.0089613.2843691.0180772.4387983.0278111.0072618.0687554.0137511.1306352.0220172.209279h.4197167c-.0192361.2138369.1167296.2323777.264824.2345408.3732103.0053304.7464979.0166867 1.1196309.012824.1563605-.0016996.2329957.0338369.2308031.210206-.0076185.6030386-.0029833 1.206309-.0029833 1.8200858h-1.3625151c-.0138283-.0685236-.0261115-.1287811-.0432618-.2136824h-.6381115c.0209356-.1959914-.0794936-.2401802-.2284378-.2359313-.1463949.0040944-.292867.0009271-.4452103.0009271-.0084979-.0928584-.0142146-.1548928-.0208584-.2274335-.1427639-.0101202-.2820515-.0200086-.4331588-.0306696-.0085751-.0644291-.0167639-.1260772-.0266523-.199236-.071382-.0076481-.1456224-.0154506-.2292103-.024412-.0067211-.0657425-.0129786-.1274678-.0203949-.2000086-.1243777-.0125923-.2443519-.024721-.379236-.0383949-.0098112-.060721-.0206267-.1271588-.0332189-.2045665-.066515-.0066438-.1347296-.013442-.2153047-.0214764-.0055623-.0573219-.0108155-.1119399-.0169185-.174206-.0731588-.0044807-.1357339-.0082661-.209588-.0126695-.0089614-.0695279-.0175365-.1368927-.0276566-.2163863-.0685236-.0054077-.1361202-.0108154-.2123691-.0167639-.0049442-.0721545-.0092704-.1346524-.0142919-.2082747-.0695279-.0088069-.1368927-.017382-.2158455-.0274249-.0050214-.0639657-.0098111-.1264635-.0157596-.2037167-.0638884-.0089614-.1307125-.018309-.2096653-.0293563-.007648-.0645064-.0156051-.1321802-.0251845-.2124463-.0629614-.005485-.1252275-.0108155-.2042575-.0176137-.0071073-.0642747-.0146009-.131794-.0237168-.214146-.048206-.0105837-.1012017-.0221716-.1648583-.0362317-.011588-.137897-.023176-.276412-.0354593-.4227296l-.2038712-.0162232c-.0080343-.0590215-.0154507-.114103-.0261888-.1929013-.137897.0083433-.2750215.0166094-.4258198.0257253-.0139056.1318713-.0264978.2513047-.0406352.3845665-.0621116.0089614-.1287811.0185408-.2074249.029897-.0053304.0684464-.0106609.1365837-.0167639.2143005-.0676738.0068755-.1297854.0132103-.2036395.0207811-.0084979.0665923-.0172275.1342661-.0277339.2156137-.0595622.0079571-.1210558.0160687-.1959914.0260344-.0178455.1273905-.0361545.2584892-.0564721.403339-.0631159.0119743-.1299399.0246438-.2092018.0397082.0197769.3046867-.2333819.2049528-.3985493.2565579-.0063348.0628841-.012515.1246867-.0196996.1959142-.0669013.006412-.1295536.0123605-.2064978.0196995-.0123605.0531503-.0259571.1112447-.040867.1755194-.067442.0035536-.1305579.0068755-.2054935.0108927-.009734.0689098-.0192361.1357339-.0299743.21206-.1348841.0111245-.2679914.0220172-.4141545.0340687-.0116652.0638884-.0237167.1299399-.0373133.204412-.0714592.004558-.1409099.0088841-.2252704.0142919.0076481.3289442-.2641287.1750558-.426824.2463605-.0067211.0533047-.0145236.1144893-.0243348.1911245-.2203262.0112789-.4360172.0223261-.6578884.0336824-.0084206.0703776-.0157597.1318712-.0268841.2261974-.227588 0-.4515451-.006103-.6748841.0018541-.1992361.00703-.1990816.0139055-.2523863.2131416h-1.3227296v-2.0234936h1.343897c-.0108155-.1872618.0714592-.2445064.2199399-.2387124.1528841.0059485.3060772.0013905.462824.0013905.0102747-.090618.0173047-.1523433.0254163-.2245751.1461631-.0084206.2856824-.0164549.4408069-.0254163.0071073-.0627296.0140601-.1238369.0230215-.2028669.1403691-.0108155.2844463-.0219399.4357854-.0335279.0054077-.0706867.0101974-.1329528.0156824-.2051846l.1840171-.0231759c.0072618-.0606438.0145236-.1221374.0218627-.1837855.1431502-.0925493.4084378.0617254.4540172-.2332274.0632703-.004867.126-.0096567.199854-.0152962.0082661-.072.0162232-.1398283.0247983-.2140686.3289442-.0052532.1904292-.2785751.2551674-.4475279.0614163-.0057168.1234506-.0114335.1944464-.0179228.0071073-.0722317.0139055-.1407553.0221716-.2234163.0611846-.00703.1226781-.0142146.2035623-.0235622v-.4466009h-4.5332189v-1.81019739h4.9635193v-2.24837769h-4.4165665c-.1149528-.11008583-.1925923-.18432618-.3043777-.29132188 0-.49596567-.0028584-1.0535794.0058712-1.61096138.0005408-.042103.077176-.10591416.1288584-.11927897.0850558-.02186266.1786867-.01297854.2686867-.01305579l2.0370998-.00039592 2.29078.00000965v-1.16281545zm-32.2220472.22245837v1.38854936h2.9631244l.0176253.0625751c.0019801.00843777.0031819.01627468.0031563.02410301-.0030133.96535622-.0071077 1.93063519-.0108159 2.89599142-.0003863.09061802.0129013.1801545-.1221373.19838626-.0329871.00432618-.077176.09162232-.0780258.14145065-.0063347.39808583-.0035536.79624892-.0035536 1.2086266-.2132962-.02896995-.2450472.07918455-.2394077.22758799.0055622.14739914.0011587.29518455.0011587.43872103-.4103691.10212875-.145854.44876393-.2866094.66545923-.0352275.0040944-.0971845.0114335-.1735107.0203948-.0081116.1432275-.0163777.2883863-.0251073.4421975l-.2042575.0183862c-.0068756.0720773-.0134421.1407554-.0203176.209588-.2188584.0743176-.2777253.258103-.2101288.6690129.0602575.0049442.1228326.0101202.198618.0163004.0093477.065279.0190043.132103.0302061.2100515.0679055.0061803.1364291.0123605.2184721.0197768.0086523.0607983.0173047.1215966.0278884.1955279.0684463.0079571.1366609.0169185.2051073.0236395.0692961.0068756.138824.0117425.217236.0182318.0069528.0672103.0133648.1292446.0210129.2033305.0664378.0075708.1345751.0153734.2170815.0248755.0098884.0621888.0203949.1282403.0324464.2040258.0648927.0061802.1273133.0120515.1964549.0185407v2.0227983c-.0703004.0032446-.1294764.0060258-.1976137.0091931-.0078798-.0775622-.0141373-.1396738-.0212446-.2097424-.0741631-.0061803-.1429185-.0119743-.2222576-.0186181-.0065665-.0664377-.0126695-.1287038-.0202403-.20503-.096721-.01097-.2024034-.0059485-.2945665-.0387811-.0708412-.0251073-.1246867-.0977254-.186103-.1492533.0108154-.0168412.0216309-.0336051.0324463-.0504463-.0684463-.006412-.1369699-.0129013-.2191674-.0205494-.0091931-.0635794-.018927-.1304806-.030206-.2084291-.067442-.0063348-.1358884-.0128241-.2192446-.0206267-.0084206-.0596394-.017073-.120206-.0277339-.1954506-.1206695-.0132876-.2399485-.0264979-.3736738-.0414077-.011588-.0512189-.0247211-.1096223-.0392447-.1738198-.0686008-.0035536-.1316394-.0068755-.2078884-.0108154-.0108927-.0674421-.0214764-.1335708-.0336051-.2085837-.1416052-.0112017-.2804292-.0222489-.426206-.0337597-.0067211-.0702231-.0126696-.1321802-.0196224-.2048755-.0684463-.0034764-.1307897-.0066438-.2055708-.0104292-.0106609.0731588-.0203948.1401374-.0318283.2189356-.0673648.0061803-.1354249.0124378-.2122918.0195451-.0064893.0676738-.0125151.1297854-.0196224.2042575-.066206.0085751-.1337253.0172275-.2147639.0276567-.0078798.0521459-.0159914.1061459-.0247983.1645493-.1271588.0130558-.247133.0254163-.3790815.0388584-.0085751.0619571-.017073.1232189-.0279657.2025579-.0631931.0058713-.130867.012206-.2133734.0198541-.0091931.0624979-.0190815.1293991-.0288154.1964549-.1443863.0911588-.4369442-.0930128-.4463691.2488327-.0723863.0058712-.1418369.0115879-.2248842.0183862-.0096566.065279-.0194678.1315623-.0309012.2081975-.1414507.0087296-.2805837.0173819-.4295279.0265751-.0074164.0673648-.0142146.1293991-.022867.2077339-.1286266.0081116-.2604206.0165322-.4026438.0255708-.0065665.0694506-.012515.131485-.0197768.2078111h-.4620515v-1.7878712c.084206-.0102747.1576738-.0191588.2326867-.0282747.0133648-.0712275.0257253-.1373562.0373906-.1998541.1351931-.0108154.2558626-.0204721.3854935-.030824.006103-.0689099.011588-.1309442.0181545-.2054936.1411417-.0108927.2798884-.0217081.4311502-.0334506.0074163-.0638884.0146009-.1256137.023485-.2017082.0647382-.0069527.132721-.0142145.2139914-.0229442.0088069-.0636566.0181545-.1305579.0291245-.209897.0681373-.0057167.1364292-.0114334.215382-.018.0072618-.0658197.0139828-.1274678.0220944-.2007038.0617253-.0092704.1232961-.0184635.1972275-.0295108v-.2017854c-.1474764-.0843605-.4082833.0786438-.4583434-.2155364-.0683691-.0035537-.1317167-.0067983-.2068841-.010661-.0090386-.0703004-.017691-.137279-.0278112-.2159227-.0715364-.0043262-.1402146-.0084206-.2195536-.0131331-.0099657-.0654335-.0191588-.1261545-.0299743-.1972274-.1243004-.0144464-.2436566-.028352-.3762231-.0438026-.0089614-.0635794-.0183863-.1302489-.0295108-.2081974-.0688326-.0054078-.1367382-.0107382-.2121373-.0166867v-.91197429c.0679056-.01058369.1239914-.0193133.2071159-.03229185v-.8352618c.0258798.00548498.0519141.01081545.0778712.01622318.0407125-.09432618.1127897-.18741631.1165751-.28328756.0139056-.35860944.0055623-.71814592.0055623-1.0826266.0931673-.01985408.1534248-.03267812.2283605-.04859228v-1.55626609h-1.0981545v-1.59149357h1.3553304l.000103-.65967954c-.0000686-.10741917-.0002317-.21408011-.0005665-.32074106-.0002317-.09162231-.0078798-.16972532.11897-.20333047.0529184-.01390558.0804978-.12375966.1324892-.21167382zm18.4001408-.22370214v2.23972532c.0770214.01622317.1373562.02896995.211442.0445751.011279.06087554.023485.12754507.0384721.20912447h4.7207125v2.05601717h-4.726352c-.0037854.08613733-.0064892.14793991-.0097339.22218025.0663605.01444635.1263863.0275794.2194764.04797425v.83634335c.0933992.01096996.15497.01823176.2346181.02750215v.45046351c.3633218.005794.1758283.28575966.2612703.45795709.2426524.03545922.1279314.26660085.1882661.42806008.0576309.00587125.1195108.01220601.1963777.02000859.0104292.13805146.0209356.27672106.0323691.42836906.0673648.0088842.1341116.017691.2075794.0273477.0057167.0685236.0108927.1314077.0172275.2075794.0645064.0090386.1316395.0184635.210824.0295107.0068756.0659743.0139828.1337253.0220944.2115193.0653563.0062575.1276224.0123605.2029442.0194678.0086524.064352.017691.1316395.0285065.2113648.066515.0067211.1341888.0134421.2101287.0211674.0062575.0676738.0119743.1300944.0188498.204721.0657425.0083434.1333391.0168412.2136052.0269614.0059485.060721.0119742.1226781.0196223.1996996.0550815.0101202.1149528.0210901.1844807.0337596.0090386.0448069.0187725.0929357.031133.1535022.1389013.0135193.2770301.0269614.4221889.0410215.0056394.0694506.0105837.1316394.0164549.20503.1420687.0107382.2810472.0212446.4300687.0324463.0095794.065279.018618.1270043.0293562.2005494.1374335.0094249.27703.018927.4301459.0294335.0116652.0640429.023794.1302489.0372361.2042575.1347296.0063348.2681459.0125923.4109871.019236.0081888.0688327.0156051.130249.0245665.2048756.143073.0074935.2823605.0149098.4361717.0230987v2.2601202h-.4305322c-.0115107-.0631932-.0224807-.1236824-.0373133-.2056481-.2024034-.0091931-.4107554-.0187725-.6268326-.0285837-.0076481-.0716137-.0142919-.1334163-.022867-.2140687h-.4496137c-.0097339-.0794163-.0171502-.1406781-.0261116-.2144549-.1424549-.0101974-.281588-.0201631-.4360172-.0312876-.0071073-.0608755-.0141373-.1219828-.0234077-.2022489-.126927-.0098111-.2580257-.0199313-.3980858-.0307468-.0066438-.0682918-.0125923-.1304034-.0197769-.2042575-.1379742-.0133648-.2761802-.0268068-.4241974-.0411759-.0098111-.0671331-.0188498-.1285494-.0289699-.1979228-.0712275-.0066438-.1399829-.0129785-.221485-.0205493-.006412-.0560859-.0125923-.1102404-.0196223-.1715022-.0722318-.0050987-.1350387-.0095021-.2111331-.0149099-.0098111-.0655879-.0197768-.1322575-.0315965-.2116738-.0678284-.0057167-.1359657-.0115107-.2131417-.018-.0085751-.0677511-.0164549-.1292446-.0251845-.197382-.1232189-.019236-.2414936-.0376223-.3699657-.0576309-.0091159-.0649699-.0177682-.1267725-.0285064-.2034077-.2047211.0307468-.2414936-.1145665-.2383262-.2652103.0032446-.1578283-.0678283-.2054163-.2171588-.1893476-.0096567-.0740086-.0186953-.1420687-.0292017-.2218713-.0617253-.0071845-.1237597-.0145236-.1975365-.0230987-.0077253-.0653562-.0157597-.1334163-.0252618-.2144549-.0637339-.0085751-.1307125-.0175365-.2094335-.0281974-.0054077-.0561631-.0108154-.1113992-.0172275-.1766009-.0673648-.0069528-.1293218-.0132876-.2048755-.0210129-.0115107-.1386695-.0228669-.2771845-.035382-.4288326-.0624206-.0071845-.1240686-.0142146-.185794-.0213219-.1088497-.1405236.1053734-.4540171-.2556309-.4537081l-.0138283-.226352h-.1811588c-.0047124.0672876-.0091159.1295537-.0142146.202867-.0686781.0099657-.1356566.0197768-.2118283.0309785-.0090386.1409099-.0180773.2801202-.0276567.4288326-.067133.0082661-.1290901.0159915-.2013218.0249528-.0080344.0723863-.0162232.1468584-.0251846.2283606-.067133.0069527-.1287811.0132875-.1991588.0205493-.0119742.1266953-.0232532.2467468-.0357682.3805494-.0641202.0098111-.1307897.0200858-.2084292.0319828-.0059485.0679056-.0119743.1361974-.0187725.2134506-.0672103.0067211-.1293992.0129013-.2042576.0203949-.0083433.0648154-.0170729.1323348-.0275794.2131416-.0652017.0075708-.1324892.0154507-.2078111.0241803-.0058713.0676738-.011279.1302489-.0177683.2055708-.0655107.0098112-.1323347.0197768-.210206.0313648-.0061802.0627296-.0122832.1249957-.0196995.2000858-.0496739.0108927-.1032103.0226352-.1689528.0370816-.0069528.0579399-.0143691.1199742-.023176.1939056-.0650472.0082661-.1329528.0168412-.2132189.0270386-.0084206.0647382-.0170729.1318712-.0269613.2081974-.0662061.0053305-.1290129.0101974-.2052618.0162232-.0090387.0641974-.0185408.1313305-.0297425.2104378-.0654335.00703-.1332618.0143691-.2146867.0230987-.0066438.054618-.0131331.1086952-.0203949.16903-.1441545.0092704-.2776481.018-.4238111.0274249-.0104292.0663605-.0208584.1327983-.0329872.210206-.0693734.0049442-.1380515.0098884-.2168498.0156824-.0080343.0661288-.0154506.1277768-.0247982.2049528-.1293219.0097339-.2612704.0195451-.4017168.0300515-.0066437.0682919-.0126695.1300944-.019854.2041803l-.4442061.0279656c-.0074163.0700687-.0139828.1318713-.0228669.2149185h-.6469957c-.0159914.0855966-.0282747.1514163-.0442661.2365493h-.6217339c-.0146781.0780258-.0261116.1385151-.0407125.2161545h-.6598197v-2.2683862c.1480172 0 .2941803.0072618.439339-.0017768.2046438-.0126696.2043348-.0177683.2494507-.2227211h.4084378c.0095021-.0748583.0173047-.1361974.0275794-.2170043.1412961-.007648.2865321-.0155279.4427382-.0240257.0082661-.0642747.0161459-.125382.0257253-.2000859.1409099-.0112017.2795021-.0222489.431691-.0343004.0059485-.0634249.0117425-.1253047.019236-.2048755.1341889-.0119743.2719313-.0242575.420721-.0374678.011897-.0529957.0240258-.1062232.0375451-.1664035.0597168-.0044806.1153391-.0086523.179691-.0135965.004867-.0729271.0090386-.1353477.0139056-.208661.0701459-.0084206.1377425-.0165322.2177768-.0261116.0052532-.0632703.0105064-.1256137.0169185-.2026352.0641201-.0083433.1313304-.0170729.2110558-.0275021.0083433-.0638884.0170729-.1310987.0271931-.2090472.0638111-.0058713.1262317-.0116652.2010901-.0185408.0083434-.0649699.0169957-.1326438.0272704-.2131416.0641202-.0082661.1312532-.0169185.209897-.0269614.0048669-.0703777.0096566-.138515.0149871-.2160772.0701459-.0067983.1318713-.0129013.2066524-.0201631.0106609-.1417597.0211674-.2805837.0326008-.43238629.0641975-.00664378.1259228-.0130558.2049528-.02124464.010661-.12739056.0216309-.25841202.0333734-.39916738.0675966-.00664378.1296309-.01274678.2061889-.02016309v-.43308155c.067751-.0193133.1246867-.03553648.1991588-.05670386v-.64398283c.0776394-.01514163.138206-.02711588.2174678-.04256653v-.85967382h-4.7221803v-2.06134764h4.9552532v-2.50006866zm25.8786772-.18269614v.8724206h6.7822919v1.8132103h-7.2419485v.68013734c-.0805751.01351931-.1415279.02379399-.2262747.03808584v.61663519c-.0872189.01421459-.1530386.02479828-.22697.03677253-.0087296.15728755-.02503.31024893-.0234077.46305579.0014678.14508155-.054618.21854936-.1943691.20642061-.0980343.15643776.1065322.45339914-.2502232.47271244-.0049442.0683691-.0100429.1380515-.0162232.22349356-.2595708.03623176-.1609957.26119314-.198618.42558799-.0696824.00563948-.131794.01073819-.2054935.01668669-.0117425.14168241-.023176.28027468-.035382.42883262-.0662833.00865236-.1282404.01660944-.2061889.02680687v5.89557936h-1.8155279v-3.8332274h-.4432017c-.0102746.0634249-.0210901.1297081-.0335279.2061116-.0699914.0050987-.1389785.0100429-.2222575.0162231-.0090386.0611073-.0180772.1215193-.029588.1990816-.1404463.0118197-.2792703.023485-.4245064.0358455-.0467382.2694592-.2490644.1442317-.4237339.168721v-.6660773c0-.4957339-.0019313-.9913905.0008498-1.48704716.0016223-.27803434.0050987-.27818884.2806609-.30762232.0372361-.00401717.0747039-.00494421.1210558-.00787983l.0179228-.20587983c.0714592-.00757081.139751-.01467811.222721-.02348498.0073391-.06033476.0147554-.12159656.0241803-.1993133.1337253-.01390558.271545-.02835193.4257424-.0444206.0054078-.07230901.0097339-.1296309.0149099-.19923605.0669013-.00950215.1342661-.0191588.2139142-.03059228.0081116-.06473819.0166867-.13225751.0264206-.20951073.0642747-.00703004.1263862-.01390558.2018626-.02224892.0159915-.11672962.0322146-.23562232.0504464-.36911588.0608755-.01274678.1265408-.02649786.2001631-.0419485.0047124-.07115022.0091931-.13967382.0143691-.21700429.0722317-.00571674.1346523-.01050644.1958369-.01529614.0861373-.15203434-.0819657-.41245494.2197081-.46830901v-.22040344c.0706867-.01042918.1314078-.01939056.2071932-.03051502.0142146-.20008584.0280429-.39638626.0426438-.60257511.0681373-.00919313.1299399-.01761373.2103605-.02842918v-.45309013c.2381716-.04913305.2479055-.0696824.2232618-.46583691h-2.8990043v-1.80378541c.1349614-.00679828.2680686-.01900429.4011759-.01923605.8690215-.00177682 1.738043.00007725 2.6071417-.00146781.3596137-.00061803.3601545-.00301287.3635536-.36324463.0016223-.16555365.000309-.3311073.000309-.50562232zm-34.4920944.40720944-.0001545 1.18112446c-.0003863.20587983-.0024721.41183691-.0044807.61779399-.0014678.14376825-.0169957.27695279-.2218712.24466095-.0040172.08335622-.0074164.15303863-.0114335.23716738-.3416138-.00332189-.1779142.27401717-.2508412.44513305-.0553133.00795708-.1220601.01745923-.2000086.02858369-.005176.06914163-.0102747.13704721-.0160687.21460944-.0715365.00463519-.1340343.00872961-.2080429.01367382-.0087296.06883262-.0173047.13627468-.0275794.21654077-.0625751.00486696-.1248412.00973391-.2013219.01575966-.0092704.05044635-.0191588.1043691-.0312875.17080687-.0482833.00818884-.1029013.01730472-.1700344.02866094-.0072618.06404292-.0148326.13148498-.0236395.2087382l-.2180858.01406008c.0000773.32824893-.2634335.19297855-.43903.25949357v1.13044635h2.4633734v1.76569957h-2.4829185v.3987039c-.0017768 1.1780343-.0033991 2.3560686-.005794 3.534103-.0001545.0641201-.0140601.1288583-.0084978.192206.0130557.1480944-.0442661.2206352-.208043.1963004-.0091158.0811159-.0173819.1546609-.0266523.2375537-.0675966.0048669-.1299399.0094248-.2033305.0147553-.0089614.0694507-.0176137.1367382-.0278112.2162318-.0702231.0046352-.1386695.0090386-.2185493.0143691-.0078026.0664377-.0149099.1277768-.024412.2092017h-2.4385751v-1.7968326h1.1010128c.0074163-.0812704.0132103-.1434593.0200086-.2183949.0641202-.0120515.1299399-.024412.2051073-.0384721v-2.94396564h-2.4734935v-1.7724206h2.4873991v-1.81135623c.1627725-.00965665.3017511-.01792274.4545579-.02696137.0062575-.06496996.0121288-.12669528.0196224-.20356223.0702231-.00857511.1437682-.01745923.2267382-.0275794-.0176138-.32523605.2511502-.17706438.4065064-.24697854.0056395-.05546781.011897-.11765666.0194678-.19236052.0646609-.00849785.1321803-.01738197.2122918-.02788841.0076481-.06520172.0154507-.13256652.0242576-.20904721.0660515-.00602575.1285493-.01181974.204103-.01861803.0084206-.06473819.0173047-.13225751.0278111-.21329613.0630386-.00903863.1297082-.01861803.2100515-.03012876v-.43941631h-3.8425751v-1.58909871zm38.3548403 3.21988326v1.98571674h2.6889528v1.59203433h-2.6761287v2.97772536h2.9040257v1.8010043h-7.9247124v-1.7815365h2.9493734v-2.99224895h-2.7072618v-1.58029184h2.7148326v-2.00240344zm9.2489794 6.57046353v1.7812275h-4.4770558v-1.7812275zm-1.1224738-10.02216825c.0555451.34501288.0245665.41987125-.2113648.47402575v.66978541c-.0830472.00988841-.1446953.01707296-.2297511.02711588v.40519313c.0000773.14276395-.0292789.25980258-.2264292.23245494v.44150214c-.0686008.01761374-.1261545.03229185-.1991587.05098713v.43053219c-.077794.00865236-.1396739.01552789-.2158455.0239485-.0091159.144-.0181545.28884978-.0276567.44103862-.0716137.00610301-.1337253.01143348-.193133.01645494-.0753219.14871244.0740085.41987124-.2503777.41345922v.22712447h.8764377c.0052533-.0683691.0104292-.13604292.0163005-.21136481.0719227-.00602575.1341888-.01127897.2124463-.01784549.0066438-.13503863.0131331-.26760515.0200859-.40866953.0693734-.00772532.1308669-.01467811.2010901-.02263519.0074936-.06751932.0142918-.12986266.0225579-.20418026h1.5665408c.0031674.06875536.0060258.13001717.0094249.20255794-.0702232.0108927-.1316395.0204721-.2186266.03399142v.61091845c-.0753219.01761373-.1283176.0300515-.1969185.04604292v.43169099c-.0798798.01228326-.145854.02240343-.2225665.03414592-.0075708.14230043-.0149871.28197425-.0230987.43640343-.0636567.00718455-.1249185.01421459-.2058026.02348498-.0089614.14021459-.0180772.28429185-.0277339.43802575-.0699914.00556223-.1321802.01042919-.1912017.01514163-.0993476.13550215.0971073.43655794-.2548584.414-.0051759.07895279-.0096566.14786266-.0148326.22642919-.0687554.00718455-.1307897.01382832-.2077339.02201716-.0066438.06504721-.0136738.13318455-.0221717.21723606-.3190558.00417167-.1857167.27309012-.2512274.4501545-.0550043.00556223-.1168842.01174249-.1923606.01931331-.0081888.06458369-.0167639.132103-.0270386.21283262-.0503691.00834334-.1046008.01730472-.1697253.02812017-.0058712.05461802-.0118197.10962231-.0186953.17381974-.0685236.00579399-.1308669.01096996-.2064206.01730472v.22086691h2.0316824l.0003548.928887c-.0001144.152289-.000432.3038169-.0011273.4553362-.0006953.144618-.0770987.1871073-.2221803.1864204-1.2165064-.0058024-2.4330901-.0058024-3.6495965 0-.1446181.0006869-.2242661-.0416478-.2232618-.1855706.0033991-.4941116.0119742-.9882232.0190043-1.4822575.0019313-.14214593.1177339-.11649786.198309-.1223691.1628498-.011897.2411845-.08853219.2655965-.2518455.0112018-.07539914.077794-.14253219.119279-.21345064l.0560086.01908154c.0042489-.06296137.0085751-.12584549.0135966-.20031759.0699914-.00888412.1369699-.01730472.2109785-.02665236.0052532-.06991417.0099657-.13279829.0156051-.20850644.065897-.00927039.1329528-.01861803.2112876-.02966524.006103-.06813734.012206-.13658369.0193906-.2171588.0622661-.0084206.1234506-.01668669.1832446-.02487553.0084978-.01259228.0207039-.02248069.0217854-.03337339.0514217-.54847372.0545676-.58275332-.4258966-.5848958l-1.136318-.00014283v-1.62293562c.0711502-.0072618.1325665-.01359657.2090472-.02155365.0104292-.05508155.0217082-.11479828.0354592-.1872618.0583262-.00610301.1197425-.01251502.1942919-.02024035.0111245-.14152789.0221717-.28035193.0342232-.43385407.0617253-.00687554.1231416-.01382833.205957-.02325322.0071846-.14044635.0145237-.28498713.0226352-.44150215.0576309-.00795708.1110902-.01521888.1708069-.02348498.0076481-.1583691.016764-.30507296.0214764-.45185407.0044034-.13496138.0143691-.26096138.2258112-.20441202v-.45463519c.1890386.02224892.2257339-.08320172.2231845-.23090988-.0038626-.22426609-.0010043-.44876394-.0010043-.6792103.0841288-.01575965.144618-.02711588.2152275-.04024892.0104292-.14484979.0203948-.28375108.0313648-.43671245zm-55.110121 3.2320661h-1.3596567c-.0136738.1416824-.0258025.26760515-.0387811.40187124-.1708069-.01328755-.2000858.07895279-.1985408.216.0052533.46220601.0020086.92456652.0020086 1.38684979-.0282747-.00618026-.0566266-.01228327-.0849013-.01846352-.0384721.09069527-.1045236.17961373-.1102403.27224034-.0179228.28838627-.0136738.57808584-.0166867.86724463-.0013906.14199142-.0086524.27718455-.2066524.25238627v.6342489c.1441545.0140601.2691503.0261889.3899743.0379314.0084206.0804978.0148326.1420686.0212446.2037939.0818884.0085752.150103.0156052.2216395.0230988.0061803.0717682.0115107.1337253.0171502.1993905h.4372532c.0115108-.1537339.0217854-.2921717.0319056-.427442.0789528-.0084206.1406009-.0149099.2070386-.0218627.004558-.0825837.0084206-.1518798.0135194-.24296137.2183176.04990557.2143004-.10181975.223957-.24103005.0088069-.12538197.0157597-.2508412.0234078-.37359656.0791845-.01066095.1355794-.01823176.2147639-.02889271v-.67287553c.083279-.01313305.1440773-.0227897.2120601-.0335279.0024721-.04766524.0057167-.08528756.0062575-.12298713.0082661-.57198283.0149871-1.14396566.0260343-1.71587124.0011588-.05979399.0093477-.13612017.0458885-.17567382.1412961-.15303863.1460085-.14863519-.0584035-.23075537-.006412-.060103-.013133-.12260085-.0202403-.18911587z" fill="#055ad7"/></g></svg>