<svg height="29" viewBox="0 0 91 29" width="91" xmlns="http://www.w3.org/2000/svg"><g fill="#fff" fill-rule="evenodd" transform="translate(0 .918196)"><path d="m14.832618 5c1.706631 0 3.0901288 1.38349777 3.0901288 3.09012876v11.74248924c0 1.706631-1.3834978 3.0901288-3.0901288 3.0901288h-11.74248924c-1.70663099 0-3.09012876-1.3834978-3.09012876-3.0901288v-11.74248924c0-1.70663099 1.38349777-3.09012876 3.09012876-3.09012876zm-6.00001027 3.13552275h-1.11121031c-.00540772.34555364-.30337339.16022317-.44582832.26212017l-.029897.41361373c-.07470386.0107382-.13596566.01946781-.21677253.03113305v1.3212618c-.08049785.0134421-.14137339.0236395-.21360515.0356137-.00996566.2222575-.01969957.4381803-.02943348.6554163-.07740772.011897-.14361373.0220945-.21051502.0323691-.00780257.1526524-.01498712.2920945-.02217167.4321546-.06342489.0078798-.11271245.0139828-.1654764.0204721-.01197424.0660515-.02286695.1261545-.03321888.1829356-.07393133.0069528-.13604292.0127468-.19784549.018618-.01004292.0806524-.01846352.1484807-.02680687.216309-.07300429.0072618-.13527039.0134421-.19861803.0197768-.01151073.0769442-.02147639.1437683-.03159656.2118284-.07454936.0050987-.13704721.0093476-.20657511.0142146-.00834335.0760171-.01560515.1430729-.02286695.2088927-.08173391.0096566-.14948498.0176909-.21893563.025957-.00548497.0732361-.01027467.1354249-.01444635.1907382-.1657854.0794163-.45077253-.0840515-.45061802.2674507-.19931331-.0300515-.22975108.0940944-.23214593.2428841-.00077253.0514506-.00301287.102824-.00301287.1541974-.00023176 1.9818541-.00023176 3.9637854-.00023176 5.9456395v.2122919c.07601717.012515.13735622.0226352.20356223.0336051.00973391.0706095.01815451.1318713.02719313.1971502.07725322.0084979.1451588.0158369.21630902.0235623.00849785.0722317.01583691.1335708.02325322.1964549h6.7800515c.0073391-.0758627.0133648-.137897.0198541-.2052618.0785665-.0068755.1465493-.0129013.2143004-.0188498.0108155-.0798026.0199313-.1469356.0288155-.2126009.0743176-.0071845.1362746-.013133.2034849-.0196223v-1.1011674c-.0802661-.0091158-.1423004-.0162231-.2024034-.0230987v-.2077339c.0775622-.0068755.1395966-.012515.2013991-.0180772.0093477-.0817339.0171503-.1497168.0252618-.2201717.0720773-.006412.1340344-.011897.2036395-.018v-.9075708c-.0747811-.0076481-.1369699-.0139828-.204412-.0207811v-.6163262c.0844378-.010661.1456996-.018309.2132961-.0268841.004867-.0792618.0091159-.1481717.0135194-.2194764.0753991-.0131331.1413734-.0247211.199854-.0349185v-.8748927c-.0808068-.0126695-.1409871-.0220944-.2001631-.0313648-.0071845-.0706094-.012824-.1266953-.018618-.1840944-.0758626-.0115107-.1425322-.0217082-.2061888-.0314421v-.1888841c.0743176-.0084206.1413734-.0159914.2065751-.0233305.0105064-.0818884.019236-.1494077.0277339-.2153819.0743176-.0072618.1362747-.0132876.2058798-.0200086.0071846-.1550472.0140601-.3011331.0193133-.4153133.0810387-.0535365.1399829-.0924721.1989271-.1314078-.0429528-.0509098-.0907726-.0987296-.1273133-.1538111-.0292018-.0441889-.0584807-.0959485-.0637339-.1467039-.017073-.1630815-.0229442-.3273219-.0329872-.4878541-.0808068-.0077253-.1430729-.0135965-.205648-.0194678-.010043-.0791073-.0186181-.1462403-.0270387-.2124463-.0816566-.0074163-.1508755-.0135966-.2387124-.0215537.0574764-.1966094-.065588-.2098197-.2029442-.2099742-.0641202-.0000773-.1282404-.0074936-.1923605-.0075708l-2.5481202-.0013906h-.21499571c.00787983-.1747468.0143691-.3190558.02062661-.4584978.08181116-.0135194.14276395-.0235623.20634335-.0340687.01274678-.2859142.02495279-.5594678.03700429-.8290816.07841202-.0168412.13357081-.0285836.19815451-.042412v-1.14744203c-.17312447.01112446-.21298713-.08366524-.20920172-.22696996.00563948-.21561373.00146781-.43153648.00146781-.64081545-.10784549-.0132103-.16903004-.02070386-.23307296-.02866094-.00749356-.15396567-.01429185-.29356224-.02132189-.43856653-.07663519-.00950214-.14338197-.01776824-.20781116-.02587983-.01012017-.08103862-.01861802-.14855794-.02703863-.21584549-.07478111-.00556223-.13751072-.01019742-.20974248-.01560515-.00695279-.07408584-.0132103-.14083262-.02016309-.21538197zm-4.98148069 4.33075365h-2.03052361c-.00672103.0735451-.01236051.1357339-.01846352.2034077-.07709871.0086524-.14430901.0160687-.21074678.0234077-.00996566.0809614-.01823176.148867-.02634334.214764-.07277254.0094249-.13434335.0173047-.19460086.0251073v6.3053305c.07895279.0104291.14029184.0183862.19908154.0261888.01027468.0811931.01884979.1487124.02696138.2132189.08003433.0090386.14732188.0165322.21066952.0236395.00950215.0784892.01699571.1398283.02433477.1999313h2.01607725c.00757082-.0761717.01367382-.1379742.02062661-.2077339.07748498-.0053305.14539056-.0099657.21993991-.0151416.00540773-.0814249.00988842-.1504121.01514164-.2310644.18030901.0210901.22612017-.0767897.21422317-.2292103-.00502146-.0637339.00355365-.1283949.00355365-.1925923.00038627-1.8396309.00077253-3.6792618-.00015451-5.5188154-.00007725-.1200515-.01042918-.240103-.01606867-.3613906-.07903004-.0118197-.13951931-.0208584-.19939055-.0297425-.00764807-.0829699-.01390558-.151339-.02016309-.2197081-.07895279-.0101202-.14647211-.0187726-.21275537-.0271932-.00780257-.0734678-.01429185-.1352704-.02139914-.2024034zm8.39024036-5.44529357h-.6463004c-.0091932.07323605-.0168412.13480687-.0252618.2016309-.1495623.01096996-.2881546.02101288-.419794.03066953-.0720773.16509013.0768669.43223176-.269382.44899571v1.0956824c-.0803434.01483262-.1408326.02611159-.2226438.04125322v.67109871c-.0853648.01236052-.1469356.02132189-.2131416.03090129-.0091159.13658369-.0175365.26304721-.0261116.39182833-.0756309.01096996-.1419914.02062661-.2222575.03221459v1.35324459c-.1955279.0706867-.25400861.3399915-.1575193.6722576l1.3006738.0001351 1.0327596.0046546c.1477082.001545.346249-.0433391.3301803.2167725.0852103.0095021.1590644.0177682.2299056.0257253.006721.077794.0121287.1400601.017691.2034077.07903.0099657.1463948.0184636.2104377.0264979.0102747.0801116.0190043.1475536.0273477.2124463.0754764.0064121.1374334.0117425.2054163.0175365.0076481.1578283.0146008.3031417.0214764.4455966.0754764.0129013.1367382.0233305.205648.0352275v.6313905c-.1718111-.0103519-.2075021.0909271-.2086609.2302919-.0012361.1512618-.0129013.3023691-.0198541.4496909-.083897.0091159-.1454678.0157597-.203794.0220945-.0343776.3492618-.0233304.3717425.196146.4239656v1.1271245c-.0801889.0105837-.1412962.018618-.208661.0274249v2.0274335h2.2655279c.0129013-.0726953.0237167-.1338799.0346867-.196146.1364292-.0142918.2616567-.0273476.3871159-.0405579.0048669-.0775622.0088069-.1408326.0137511-.2185494.1970729.0236395.2255794-.1029785.2267382-.2489871.0016995-.2168498.0004635-.433545.0004635-.6539485-.0874507-.0087296-.149176-.0148326-.2181631-.0217854v-.4107553c.0759399-.0080344.1427639-.0152189.215382-.022867v-1.140721c-.0807297-.0088069-.1429185-.0155279-.2024035-.0220172-.0412532-.3300257-.0289699-.354206.2082747-.4197167.0101974-.066206.0204721-.1334936.0304378-.1985408.0699141-.0074936.1271588-.0136738.1941373-.0209356v-.9275794c-.0689871-.0096567-.1305579-.018309-.2039485-.0285837-.0072618-.1339571-.0140601-.2589528-.0209356-.3864206.0845923-.0123605.1512618-.0220944.2173133-.0317511.0121287-.1509528.023176-.2894678.0339914-.4244292.0778713-.0098884.1389013-.0176137.2051846-.0261116 0-.2383261-.0043262-.4627467.0014678-.6868583.0038626-.1509528-.0371588-.250146-.2126781-.2264292-.0098885-.0860601-.0183091-.1597597-.0264206-.2304464-.0778713-.0065665-.1402919-.0118197-.2048756-.0172274-.0092704-.0648155-.0169957-.1185837-.0249528-.1744378-.1804635-.0078798-.3473304-.0098884-.5128841-.0259571-.0461202-.0044034-.119897-.0444978-.1265408-.078721-.025339-.1303262-.1151073-.1175022-.2057253-.1175022h-2.2995193v-.2476738c.0714592-.0091931.1331846-.0172275.216309-.0278884v-.5980944c.1016653-.090618.209588-.1413734.2110558-.1951417.0132103-.48005145.0077253-.96056647.0077253-1.43822313-.0760171-.01653219-.1363519-.02958798-.2164635-.04696995v-.659897c-.084515-.00811159-.1464721-.01398283-.2166953-.02062661-.0091931-.1403691-.0177682-.27224034-.0263433-.40303004-.077485-.0071073-.1398283-.01282404-.2107468-.01923605-.0056395-.07555365-.0106609-.1428412-.0152189-.20317597-.1766781-.06620601-.4449013.08072962-.4593476-.23925322z"/><path d="m7.96621288 16.7373597v1.3768068h1.57758798v-1.3778884h1.33339054v-1.583691h-1.3407296v-1.3306094h-1.58732189v1.3417339h-1.37286695v1.5736481z"/><path d="m64.4424275.63981869v1.98386266h1.5802918v-1.31029185c-.0618026-.01969957-.1087725-.03460944-.1658626-.05276394v-.20070387h1.5636824v.66252361c.084515.01823176.1448497.0312103.2215622.04766523v.85619743h.6443691v1.80942489h-3.8180086c-.0047897.09610301-.0074936.15203434-.01097.22225751.2011674-.00046352.2200945.12847211.2136824.28197425-.0057939.13990558-.001236.28027468-.001236.44289271h.2483691c1.0169614 0 2.0338455-.00108155 3.0507296.00061802.3298713.00054077.3336567.00378541.3359743.32886695.0034764.48128756.000927.96265237.000927 1.47252361h-.3814764c-.8559657 0-1.7120086-.00061803-2.5679742.00077253-.0960258.00015451-.1946009.00023176-.287073.0216309-.0526094.01220601-.0953305.06751932-.1424549.10344206.0444978.03213734.0879914.065897.1341888.09556223.0149871.00973391.0366953.00911588.0789528.01838627v.63077253c.0838197.01166524.1454678.0203176.2209442.03082404.0068755.15149356.0227897.30453219.0182318.45695279-.004867.16539914.0644291.23361373.2262746.22148498.0689872-.00509872.1387468-.00084979.2193219-.00084979.0062575-.06983691.011897-.13171674.018618-.2064206.0512962-.00872961.1057597-.01815451.1722747-.02951073.0081116-.06311588.016764-.13048069.0268841-.209897.0634249-.0049442.1259228-.00996566.2045666-.01622317.0080343-.06373391.0163776-.1307897.0263433-.21012876.0641202-.00834334.1313305-.01699571.209897-.02719313.005485-.06334764.01097-.12584549.0177683-.20533906h2.030369c.0029357.06103005.0061031.12808584.0099657.20889271-.0745493.01096996-.1407553.02062661-.2147639.03144206-.0113563.13781974-.0224035.27084978-.034455.41624034-.065588.01019743-.1320257.0204721-.2089699.03252361-.0050987.06983691-.0099657.13812875-.0154507.21530472-.0717682.00502146-.1341888.00942489-.2075021.0145236-.0082661.06991417-.0163004.13758799-.0258798.2183176-.0540773.00641202-.1082318.01282403-.1718885.02039485-.0044806.07060944-.0084206.1332618-.0129785.20781116-.0682918.00996566-.1351931.01962232-.2119828.03082403-.006412.06327039-.0128241.12569099-.0206266.20132189-.0638885.00934764-.1309442.01908155-.2099743.03043777-.0072618.05330472-.0146008.10769099-.023176.17088412-.0701459.0047897-.132721.00911588-.2063433.01421459-.0096567.06906438-.018927.13619743-.029588.21314163-.0649699.00533047-.1276996.01042919-.2038712.01660944-.0091159.06412018-.0187726.13117599-.0301288.21043779-.0650472.0072618-.1325665.0147553-.2095107.0234077v.2185494c.0650472.0071073.1266953.0139055.1967639.0217081.0079571.0669013.0152962.1290901.0240258.2032532.0652017.0090387.1327983.0183863.2118283.0293563.0069528.061648.0139828.1237596.0223262.1978455.0652017.007957.1331845.0162231.2136824.0261115.0087296.0638885.0179227.130867.0285064.2079657.1405236.0091159.2797339.0180773.4284464.0276567.0088069.066824.0169184.1287038.0271931.2071931h.4053477c.0564721.2869957.2893133.1598369.475648.2189356l-.0000772.3102489c-.0001545.411837.0035536.8238284-.0040172 1.235588-.0014678.0748584-.0489013.1487897-.0750901.2231846-.0516052-.0413305-.0991932-.0899228-.1561288-.1215966-.0410214-.0227897-.0944034-.0313648-.1424549-.0319056-.2431931-.0030901-.4864635-.0014678-.7308155-.0014678-.0105837-.0892275-.0173819-.1459313-.0268068-.2252704-.2119056-.0105064-.4269013-.0211674-.654103-.0324463-.0086524-.065897-.0166867-.1273906-.0265751-.2027897-.0967983-.0089614-.2024035-.0017768-.2952618-.0328326-.0737769-.0245666-.1319485-.0958713-.1969958-.1463949.0116653-.0183863.0234078-.036618.0352275-.054927-.0689099-.0067983-.1377425-.0135966-.2193219-.0216309-.0087296-.0651245-.0178455-.132103-.0283519-.2106696-.0560858-.0055622-.1113991-.0110472-.1776052-.0175364-.00703-.0661288-.0136738-.1277769-.0213218-.2000859-.0682919-.0092704-.1359657-.0183862-.2180859-.0294335.0116653-.1511845-.0425665-.2489098-.223648-.2155364-.0087297-.0730043-.0159915-.1352704-.0250301-.2119056-.0624206-.0103519-.1290901-.0213992-.2075794-.0343777-.0078798-.0526094-.0160687-.107073-.023794-.1586009-.3870386-.0580171-.4076652-.0512961-.4485322.1626181-.0646609 0-.1338025-.0023949-.2025579.000618-.0703777.0031674-.1406009.0116652-.2238026.0190043-.0117425.0635794-.0239485.1297081-.0376996.2037167-.1293218.0067983-.2566352.0135193-.3962317.0209357-.011279.067751-.0224035.1338025-.036309.216618h-.4457511c-.0119743.0778712-.0213219.1389785-.0329099.2147639-.2238798.0101202-.4404206.0198541-.6687038.030206.0301287.2024807-.102206.2162318-.2462833.2162318l-.6241288-.0000773c-.0135193.0821975-.0234849.1429185-.0350729.213837h-.1951416c-.0107382-.2183176-.0210902-.4289099-.0320601-.6526352-.0608756-.0129786-.1211331-.0258026-.2046438-.0436481v-1.0860258c.0850558-.0081115.1909699-.000618.2833648-.0324463.0761717-.0261889.1362747-.0990386.2034077-.1512618-.0104292-.0201631-.0209356-.0403262-.0313648-.0603348h.6411245c.0116652-.0779485.0207811-.138824.0319828-.2130644.2142232-.0106609.4245064-.0210901.6475365-.03206.012206-.0664378.0242575-.1323348.0397854-.2169271h.4449013c.0087296-.0797253.0156051-.14137337.0237167-.21491844.1437683-.00834334.2829013-.01630043.4338541-.02495279v-.41098712c-.0637339-.00757082-.1249957-.01490987-.2018627-.024103-.0115107-.21746782-.0227897-.4330043-.0346867-.65680687-.0713819-.00857511-.13303-.01599142-.2153047-.02587983v-.66244635c-.0799571-.01444635-.1409871-.02541631-.2222575-.04009442v-.62714163c-.0142918.00803433-.0286609.01606867-.04303.024103-.0750129-.07454936-.150103-.14909871-.2252704-.22364807.0099657-.01537339.0198541-.03082403.0298197-.04627468h-1.5774334v-1.79830043h1.3279828v-.94125321h-1.3272876v-1.81220601h1.1154593v-1.99939056zm-29.0489408.18134421v1.16003433h4.5407124c.0121288.07717597.0218627.13843777.033837.21391416.2044892-.00672103.2123691.12522747.2081974.28761374-.0093477.3601545-.0085751.72092704-.0001545 1.0811588.0033991.14593133-.0235623.24056652-.2011674.22156223-.0145236.07292704-.0278112.13990558-.0444979.22357081h-4.5243347v2.25494421h5.0042317v1.81027468h-4.5315193v.22009442c.0684464.00618025.1306352.01189699.2017082.01838626.0068755.072.0133648.14090987.0213991.2255794.3438541-.00177682.1752876.28637768.2454335.45587125.0624978.0047897.1248412.0095794.1979227.01514163.0077254.07115021.0149872.13897854.0237168.21909013.0643519.00525322.1265407.01050643.2020171.01676395.0088069.06458369.0179228.13187124.0288927.21190557.0517597.00741631.1063005.01514164.1722747.02456653.0057168.05624034.0112017.11101287.0175365.17358798.072618.00448069.1352704.00834335.2092017.01282404.0091159.06937339.018.13658369.0285065.21592274.0697596.0046352.1379742.00927039.2170815.01452361.0069528.06813734.0132103.12986263.0207811.20487553.1407554.0114335.2793477.0225579.431073.0348412.0067983.0634249.013442.1251502.0220944.2058026.1402918.0089614.2843691.0180772.4387983.0278111.0072618.0687554.0137511.1306352.0220172.209279h.4197167c-.0192361.2138369.1167296.2323777.264824.2345408.3732103.0053305.7464979.0166867 1.1196309.012824.1563605-.0016996.2329957.0338369.2308031.210206-.0076185.6030387-.0029833 1.206309-.0029833 1.8200859h-1.3625151c-.0138283-.0685236-.0261115-.1287812-.0432618-.2136824h-.6381115c.0209356-.1959915-.0794936-.2401803-.2284378-.2359314-.1463949.0040944-.292867.0009271-.4452103.0009271-.0084979-.0928584-.0142146-.1548927-.0208584-.2274335-.1427639-.0101202-.2820515-.0200086-.4331588-.0306695-.0085751-.0644292-.0167639-.1260773-.0266523-.1992361-.071382-.0076481-.1456224-.0154506-.2292103-.024412-.0067211-.0657425-.0129786-.1274678-.0203949-.2000086-.1243777-.0125923-.2443519-.024721-.379236-.0383948-.0098112-.0607211-.0206267-.1271588-.0332189-.2045666-.066515-.0066437-.1347296-.013442-.2153047-.0214764-.0055623-.0573218-.0108155-.1119399-.0169185-.174206-.0731588-.0044807-.1357339-.0082661-.209588-.0126695-.0089614-.0695279-.0175365-.1368927-.0276566-.2163863-.0685236-.0054077-.1361202-.0108154-.2123691-.0167639-.0049442-.0721545-.0092704-.1346524-.0142919-.2082747-.0695279-.0088069-.1368927-.017382-.2158455-.0274249-.0050214-.0639656-.0098111-.1264635-.0157596-.2037167-.0638884-.0089614-.1307125-.018309-.2096653-.0293562-.007648-.0645065-.0156051-.1321803-.0251845-.2124464-.0629614-.005485-.1252275-.0108154-.2042575-.0176137-.0071073-.0642747-.0146009-.131794-.0237168-.214146-.048206-.0105836-.1012017-.0221716-.1648583-.0362317-.011588-.13789701-.023176-.27641203-.0354593-.42272962l-.2038712-.01622318c-.0080343-.05902146-.0154507-.114103-.0261888-.19290129-.137897.00834335-.2750215.01660945-.4258198.02572532-.0139056.13187125-.0264978.25130473-.0406352.38456653-.0621116.00896137-.1287811.01854077-.2074249.02989699-.0053304.06844636-.0106609.13658365-.0167639.21430045-.0676738.0068755-.1297854.0132103-.2036395.0207811-.0084979.0665923-.0172275.1342661-.0277339.2156137-.0595622.0079571-.1210558.0160687-.1959914.0260344-.0178455.1273905-.0361545.2584892-.0564721.403339-.0631159.0119743-.1299399.0246438-.2092018.0397082.0197769.3046867-.2333819.2049528-.3985493.2565579-.0063348.0628841-.012515.1246867-.0196996.1959142-.0669013.006412-.1295536.0123605-.2064978.0196996-.0123605.0531502-.0259571.1112446-.040867.1755193-.067442.0035536-.1305579.0068755-.2054935.0108927-.009734.0689098-.0192361.1357339-.0299743.2120601-.1348841.0111244-.2679914.0220171-.4141545.0340686-.0116652.0638884-.0237167.1299399-.0373133.204412-.0714592.004558-.1409099.0088842-.2252704.0142919.0076481.3289442-.2641287.1750558-.426824.2463605-.0067211.0533047-.0145236.1144893-.0243348.1911245-.2203262.0112789-.4360172.0223261-.6578884.0336824-.0084206.0703777-.0157597.1318712-.0268841.2261974-.227588 0-.4515451-.006103-.6748841.0018541-.1992361.00703-.1990816.0139056-.2523863.2131416h-1.3227296v-2.0234936h1.343897c-.0108155-.1872618.0714592-.2445064.2199399-.2387124.1528841.0059485.3060772.0013906.462824.0013906.0102747-.0906181.0173047-.1523434.0254163-.2245752.1461631-.0084206.2856824-.0164549.4408069-.0254163.0071073-.0627296.0140601-.1238369.0230215-.2028669.1403691-.0108155.2844463-.0219399.4357854-.0335279.0054077-.0706867.0101974-.1329528.0156824-.20518456l.1840171-.02317597c.0072618-.06064378.0145236-.12213734.0218627-.18378541.1431502-.09254935.4084378.06172532.4540172-.23322747.0632703-.00486695.126-.00965665.199854-.01529613.0082661-.072.0162232-.13982833.0247983-.21406867.3289442-.00525322.1904292-.27857511.2551674-.4475279.0614163-.00571674.1234506-.01143348.1944464-.01792275.0071073-.07223176.0139055-.14075536.0221716-.2234163.0611846-.00703005.1226781-.0142146.2035623-.02356224v-.44660085h-4.5332189v-1.81019743h4.9635193v-2.24837768h-4.4165665c-.1149528-.11008584-.1925923-.18432618-.3043777-.29132189 0-.49596567-.0028584-1.0535794.0058712-1.61096137.0005408-.04210301.077176-.10591417.1288584-.11927897.0850558-.02186266.1786867-.01297854.2686867-.0130558l2.0370998-.00039592 2.29078.00000966v-1.16281545zm-32.22204722.22245836v1.38854936h2.96312447l.0176253.06257511c.00198003.00843777.00318184.01627468.00315622.024103-.00301328.96535623-.0071077 1.9306352-.01081586 2.89599142-.00038626.09061802.01290129.18015451-.12213734.19838626-.03298712.00432618-.07717596.09162232-.07802575.14145065-.00633476.39808584-.00355364.79624893-.00355364 1.20862661-.21329614-.02896996-.24504721.07918455-.23940773.22758798.00556223.14739914.0011588.29518455.0011588.43872103-.4103691.10212876-.14585408.44876395-.28660944.66545923-.03522747.00409442-.09718455.01143347-.17351073.02039485-.00811159.14322747-.01637769.28838626-.0251073.44219742l-.20425751.01838627c-.00687554.07207725-.01344206.14075536-.0203176.20958798-.21885837.0743176-.27772532.25810301-.21012875.66901288.06025751.0049442.12283262.01012017.19861802.01630043.00934764.06527897.0190043.132103.03020601.2100515.06790558.00618026.13642919.01236051.21847211.01977682.00865236.06079829.01730472.12159654.02788841.19552794.06844635.007957.13666094.0169184.20510729.0236394.06929614.0068756.13882404.0117425.21723606.0182318.00695278.0672103.0133648.1292446.02101287.2033305.06643777.0075708.13457511.0153734.21708155.0248755.00988841.0621889.02039485.1282404.03244635.2040258.0648927.0061802.1273133.0120515.19645493.0185407v2.0227983c-.07030043.0032447-.12947639.0060258-.19761373.0091932-.00787983-.0775623-.01413734-.1396739-.02124464-.2097425-.07416309-.0061803-.14291845-.0119743-.22225751-.0186181-.00656652-.0664377-.01266952-.1287038-.02024034-.20503-.09672103-.01097-.20240343-.0059485-.29456652-.0387811-.07084121-.0251073-.1246867-.0977253-.18610301-.1492532.01081545-.0168412.0216309-.0336052.03244635-.0504464-.06844635-.006412-.13696995-.0129013-.21916738-.0205493-.00919313-.0635794-.01892704-.1304807-.03020601-.2084292-.06744206-.0063348-.13588841-.0128241-.21924463-.0206266-.0084206-.0596395-.01707296-.1202061-.02773391-.1954507-.12066953-.0132875-.2399485-.0264978-.37367382-.0414077-.01158798-.0512189-.02472103-.1096223-.03924463-.1738198-.06860086-.0035536-.13163949-.0068755-.20788841-.0108154-.01089271-.0674421-.0214764-.1335708-.03360515-.2085837-.14160515-.0112017-.28042919-.0222489-.42620601-.0337597-.00672103-.0702231-.01266953-.1321802-.01962232-.2048755-.06844635-.0034764-.1307897-.0066438-.20557082-.0104292-.01066094.0731588-.02039485.1401374-.03182832.2189356-.06736481.0061803-.13542489.0124378-.21229185.0195451-.00648927.0676738-.01251502.1297854-.01962232.2042575-.066206.0085751-.13372532.0172275-.21476394.0276567-.00787983.0521459-.01599142.1061459-.02479829.1645493-.1271588.0130558-.24713304.0254163-.37908154.0388584-.00857511.0619571-.01707296.1232189-.02796567.2025579-.06319313.0058713-.13086695.0122061-.21337339.0198541-.00919313.0624979-.01908154.1293992-.02881545.196455-.14438626.0911588-.4369442-.0930129-.4463691.2488326-.07238626.0058712-.14183691.011588-.22488412.0183862-.00965665.065279-.01946781.1315623-.03090129.2081975-.14145064.0087296-.28058369.0173819-.42952789.0265751-.00741631.0673648-.01421459.1293991-.02286695.2077339-.12862661.0081116-.26042061.0165322-.40264378.0255708-.00656652.0694506-.01251502.131485-.01977683.2078112h-.4620515v-1.7878713c.08420601-.0102747.15767382-.0191588.2326867-.0282747.0133648-.0712274.02572532-.1373562.03739056-.199854.13519313-.0108155.25586266-.0204722.38549356-.0308241.006103-.0689099.01158798-.1309442.0181545-.2054935.14114163-.0108927.27988842-.0217082.43115022-.0334507.00741631-.0638884.01460086-.1256137.02348498-.2017081.06473819-.0069528.13272103-.0142146.21399141-.0229442.00880687-.0636567.01815451-.130558.02912447-.209897.06813734-.0057168.13642918-.0114335.21538197-.018.0072618-.0658198.01398283-.12746786.02209442-.20070391.06172532-.00927038.12329614-.01846352.19722747-.02951073v-.20178541c-.1474764-.08436051-.40828326.07864378-.45834335-.21553648-.0683691-.00355364-.13171674-.00679828-.20688412-.01066094-.00903862-.07030043-.01769099-.13727897-.02781116-.21592275-.07153648-.00432618-.14021459-.0084206-.21955365-.01313304-.00996566-.06543348-.01915879-.12615451-.02997424-.19722747-.12430043-.01444635-.24365666-.02835193-.37622318-.04380258-.00896137-.0635794-.01838627-.13024892-.02951073-.20819742-.06883262-.00540773-.1367382-.0107382-.21213734-.0166867v-.91197425c.06790558-.01058369.12399142-.0193133.20711588-.03229184v-.8352618c.02587983.00548497.05191416.01081545.07787125.01622317.04071244-.09432618.1127897-.18741631.1165751-.28328755.01390558-.35860944.00556224-.71814592.00556224-1.08262661.09316738-.01985408.15342489-.03267811.22836051-.04859228v-1.55626609h-1.09815451v-1.59149356h1.35533048l.000103-.65967955c-.00006867-.10741917-.00023176-.21408011-.00056652-.32074105-.00023176-.09162232-.00787983-.16972533.11896995-.20333048.05291846-.01390558.08049786-.12375965.13248927-.21167382zm18.40014082-.22370214v2.23972532c.0770214.01622318.1373562.02896996.211442.04457511.011279.06087553.023485.12754506.0384721.20912446h4.7207125v2.05601717h-4.726352c-.0037854.08613734-.0064892.14793991-.0097339.22218026.0663605.01444635.1263863.0275794.2194764.04797425v.83634334c.0933992.01096996.15497.01823176.2346181.02750215v.45046352c.3633218.00579399.1758283.28575965.2612703.45795708.2426524.03545923.1279314.26660086.1882661.42806009.0576309.00587124.1195108.012206.1963777.02000858.0104292.1380515.0209356.27672103.0323691.4283691.0673648.00888412.1341116.01769098.2075794.02734764.0057167.0685236.0108927.13140772.0172275.2075794.0645064.00903862.1316395.01846352.210824.02951073.0068756.06597424.0139828.13372532.0220944.21151931.0653563.00625751.1276224.01236051.2029442.01946781.0086524.06435193.017691.13163949.0285065.21136481.066515.00672103.1341888.01344206.2101287.02116738.0062575.06767382.0119743.13009442.0188498.20472103.0657425.00834335.1333391.0168412.2136052.02696137.0059485.06072103.0119742.12267811.0196223.19969957.0550815.01012018.1149528.02109013.1844807.03375966.0090386.04480687.0187725.09293562.031133.15350215.1389013.01351931.2770301.02696137.4221889.04102146.0056394.06945064.0105837.13163948.0164549.20503004.1420687.0107382.2810472.02124463.4300687.03244635.0095794.06527897.018618.12700434.0293562.20054934.1374335.0094249.27703.0189271.4301459.0294335.0116652.0640429.023794.1302489.0372361.2042575.1347296.0063348.2681459.0125923.4109871.0192361.0081888.0688326.0156051.1302489.0245665.2048755.143073.0074936.2823605.0149099.4361717.0230987v2.2601202h-.4305322c-.0115107-.0631932-.0224807-.1236824-.0373133-.2056481-.2024034-.0091931-.4107554-.0187725-.6268326-.0285837-.0076481-.0716137-.0142919-.1334163-.022867-.2140687h-.4496137c-.0097339-.0794163-.0171502-.1406781-.0261116-.2144549-.1424549-.0101974-.281588-.0201631-.4360172-.0312875-.0071073-.0608756-.0141373-.1219829-.0234077-.202249-.126927-.0098111-.2580257-.0199313-.3980858-.0307468-.0066438-.0682918-.0125923-.1304034-.0197769-.2042575-.1379742-.0133648-.2761802-.0268068-.4241974-.0411759-.0098111-.0671331-.0188498-.1285494-.0289699-.1979228-.0712275-.0066438-.1399829-.0129785-.221485-.0205493-.006412-.0560859-.0125923-.1102404-.0196223-.1715022-.0722318-.0050987-.1350387-.0095021-.2111331-.0149098-.0098111-.065588-.0197768-.1322576-.0315965-.2116739-.0678284-.0057167-.1359657-.0115107-.2131417-.018-.0085751-.067751-.0164549-.1292446-.0251845-.1973819-.1232189-.0192361-.2414936-.0376224-.3699657-.0576309-.0091159-.06497-.0177682-.1267726-.0285064-.2034078-.2047211.0307468-.2414936-.1145665-.2383262-.2652103.0032446-.1578283-.0678283-.2054163-.2171588-.1893476-.0096567-.0740086-.0186953-.14206868-.0292017-.22187125-.0617253-.00718455-.1237597-.01452361-.1975365-.02309872-.0077253-.06535622-.0157597-.1334163-.0252618-.21445493-.0637339-.00857511-.1307125-.01753648-.2094335-.02819743-.0054077-.05616309-.0108154-.11139914-.0172275-.17660085-.0673648-.00695279-.1293218-.01328756-.2048755-.02101288-.0115107-.13866953-.0228669-.27718455-.035382-.42883262-.0624206-.00718455-.1240686-.01421459-.185794-.02132189-.1088497-.1405236.1053734-.45401716-.2556309-.45370815l-.0138283-.22635193h-.1811588c-.0047124.06728755-.0091159.12955365-.0142146.20286695-.0686781.00996567-.1356566.01977682-.2118283.03097854-.0090386.14090987-.0180773.28012017-.0276567.42883262-.067133.00826609-.1290901.01599142-.2013218.02495279-.0080344.07238627-.0162232.14685837-.0251846.22836051-.067133.00695279-.1287811.01328756-.1991588.02054936-.0119742.12669528-.0232532.24674678-.0357682.38054936-.0641202.00981116-.1307897.02008583-.2084292.03198283-.0059485.06790558-.0119743.13619742-.0187725.21345064-.0672103.00672103-.1293992.01290129-.2042576.02039485-.0083433.06481545-.0170729.1323348-.0275794.2131416-.0652017.0075708-.1324892.0154507-.2078111.0241803-.0058713.0676738-.011279.1302489-.0177683.2055708-.0655107.0098112-.1323347.0197768-.210206.0313648-.0061802.0627296-.0122832.1249957-.0196995.2000859-.0496739.0108927-.1032103.0226351-.1689528.0370815-.0069528.0579399-.0143691.1199742-.023176.1939056-.0650472.0082661-.1329528.0168412-.2132189.0270386-.0084206.0647382-.0170729.1318712-.0269613.2081974-.0662061.0053305-.1290129.0101975-.2052618.0162232-.0090387.0641974-.0185408.1313305-.0297425.2104378-.0654335.00703-.1332618.0143691-.2146867.0230987-.0066438.054618-.0131331.1086953-.0203949.16903-.1441545.0092704-.2776481.018-.4238111.0274249-.0104292.0663605-.0208584.1327983-.0329872.210206-.0693734.0049442-.1380515.0098884-.2168498.0156824-.0080343.0661288-.0154506.1277769-.0247982.2049528-.1293219.0097339-.2612704.0195451-.4017168.0300515-.0066437.0682919-.0126695.1300944-.019854.2041803l-.4442061.0279656c-.0074163.0700687-.0139828.1318713-.0228669.2149185h-.6469957c-.0159914.0855966-.0282747.1514163-.0442661.2365494h-.6217339c-.0146781.0780257-.0261116.138515-.0407125.2161545h-.6598197v-2.2683863c.1480172 0 .2941803.0072618.439339-.0017768.2046438-.0126696.2043348-.0177683.2494507-.2227211h.4084378c.0095021-.0748583.0173047-.1361974.0275794-.2170042.1412961-.0076481.2865321-.0155279.4427382-.0240258.0082661-.0642747.0161459-.12538197.0257253-.20008584.1409099-.01120171.2795021-.02224892.431691-.03430043.0059485-.06342489.0117425-.12530472.019236-.20487553.1341889-.01197425.2719313-.02425751.420721-.03746781.011897-.05299571.0240258-.10622318.0375451-.16640344.0597168-.00448068.1153391-.00865236.179691-.01359656.004867-.07292704.0090386-.13534764.0139056-.20866095.0701459-.0084206.1377425-.01653219.2177768-.02611159.0052532-.06327038.0105064-.12561373.0169185-.20263519.0641201-.00834335.1313304-.01707296.2110558-.02750214.0083433-.06388842.0170729-.13109872.0271931-.20904722.0638111-.00587124.1262317-.01166523.2010901-.01854077.0083434-.06496995.0169957-.13264377.0272704-.21314163.0641202-.00826609.1312532-.01691845.209897-.02696137.0048669-.07037768.0096566-.13851502.0149871-.21607726.0701459-.00679828.1318713-.01290128.2066524-.02016309.0106609-.14175965.0211674-.28058369.0326008-.43238626.0641975-.00664378.1259228-.0130558.2049528-.02124464.010661-.12739055.0216309-.25841201.0333734-.39916738.0675966-.00664378.1296309-.01274678.2061889-.02016309v-.43308154c.067751-.01931331.1246867-.03553648.1991588-.05670387v-.64398283c.0776394-.01514163.138206-.02711588.2174678-.04256652v-.85967382h-4.7221803v-2.06134764h4.9552532v-2.50006867zm25.8786772-.18269614v.8724206h6.7822919v1.8132103h-7.2419485v.68013734c-.0805751.01351931-.1415279.02379399-.2262747.03808584v.61663519c-.0872189.01421459-.1530386.02479828-.22697.03677253-.0087296.15728756-.02503.31024893-.0234077.4630558.0014678.14508154-.054618.21854935-.1943691.2064206-.0980343.15643777.1065322.45339914-.2502232.47271244-.0049442.0683691-.0100429.13805151-.0162232.22349357-.2595708.03623176-.1609957.26119313-.198618.42558798-.0696824.00563949-.131794.0107382-.2054935.0166867-.0117425.1416824-.023176.28027467-.035382.42883261-.0662833.00865236-.1282404.01660945-.2061889.02680687v5.89557935h-1.8155279v-3.83322742h-.4432017c-.0102746.06342489-.0210901.12970816-.0335279.20611159-.0699914.00509871-.1389785.01004292-.2222575.01622318-.0090386.06110729-.0180772.12151931-.029588.19908154-.1404463.01181974-.2792703.02348498-.4245064.03584549-.0467382.26945923-.2490644.14423176-.4237339.16872103v-.66607725c0-.4957339-.0019313-.99139056.0008498-1.48704721.0016223-.27803433.0050987-.27818884.2806609-.30762232.0372361-.00401716.0747039-.0049442.1210558-.00787983l.0179228-.20587982c.0714592-.00757082.139751-.01467812.222721-.02348498.0073391-.06033477.0147554-.12159657.0241803-.19931331.1337253-.01390558.271545-.02835193.4257424-.0444206.0054078-.07230901.0097339-.1296309.0149099-.19923605.0669013-.00950215.1342661-.0191588.2139142-.03059227.0081116-.0647382.0166867-.13225751.0264206-.20951073.0642747-.00703005.1263862-.01390558.2018626-.02224893.0159915-.11672961.0322146-.23562232.0504464-.36911588.0608755-.01274678.1265408-.02649785.2001631-.0419485.0047124-.07115021.0091931-.13967382.0143691-.21700429.0722317-.00571674.1346523-.01050644.1958369-.01529614.0861373-.15203433-.0819657-.41245493.2197081-.46830901v-.22040343c.0706867-.01042919.1314078-.01939056.2071932-.03051503.0142146-.20008583.0280429-.39638626.0426438-.6025751.0681373-.00919314.1299399-.01761374.2103605-.02842919v-.45309013c.2381716-.04913304.2479055-.0696824.2232618-.46583691h-2.8990043v-1.8037854c.1349614-.00679829.2680686-.0190043.4011759-.01923605.8690215-.00177683 1.738043.00007725 2.6071417-.00146782.3596137-.00061802.3601545-.00301287.3635536-.36324463.0016223-.16555365.000309-.3311073.000309-.50562232zm-34.4920944.40720944-.0001545 1.18112447c-.0003863.20587983-.0024721.41183691-.0044807.61779399-.0014678.14376824-.0169957.27695279-.2218712.24466094-.0040172.08335623-.0074164.15303863-.0114335.23716738-.3416138-.00332188-.1779142.27401717-.2508412.44513305-.0553133.00795708-.1220601.01745923-.2000086.02858369-.005176.06914163-.0102747.13704721-.0160687.21460944-.0715365.0046352-.1340343.00872962-.2080429.01367382-.0087296.06883262-.0173047.13627468-.0275794.21654078-.0625751.00486695-.1248412.0097339-.2013219.01575965-.0092704.05044636-.0191588.1043691-.0312875.17080687-.0482833.00818884-.1029013.01730472-.1700344.02866094-.0072618.06404292-.0148326.13148498-.0236395.2087382l-.2180858.01406009c.0000773.32824893-.2634335.19297854-.43903.25949356v1.13044635h2.4633734v1.76569957h-2.4829185v.39870387c-.0017768 1.17803433-.0033991 2.35606862-.005794 3.53410302-.0001545.0641202-.0140601.1288583-.0084978.192206.0130557.1480944-.0442661.2206352-.208043.1963004-.0091158.0811159-.0173819.154661-.0266523.2375537-.0675966.0048669-.1299399.0094249-.2033305.0147553-.0089614.0694507-.0176137.1367382-.0278112.2162318-.0702231.0046352-.1386695.0090386-.2185493.0143691-.0078026.0664378-.0149099.1277768-.024412.2092017h-2.43857514v-1.7968326h1.10101288c.00741631-.0812704.0132103-.1434592.02000858-.2183949.06412017-.0120515.12993991-.024412.2051073-.0384721v-2.94396563h-2.47349357v-1.7724206h2.48739915v-1.81135622c.16277253-.00965666.30175107-.01792275.45455794-.02696138.00625751-.06496995.01212875-.12669528.01962231-.20356223.07022318-.00857511.14376824-.01745923.2267382-.0275794-.01761373-.32523605.25115025-.17706438.40650645-.24697854.0056395-.05546781.011897-.11765665.0194678-.19236051.0646609-.00849786.1321803-.01738198.2122918-.02788842.0076481-.06520171.0154507-.13256652.0242576-.20904721.0660515-.00602575.1285493-.01181974.204103-.01861802.0084206-.0647382.0173047-.13225751.0278111-.21329614.0630386-.00903863.1297082-.01861803.2100515-.03012876v-.4394163h-3.84257509v-1.58909872zm38.3548403 3.21988327v1.98571673h2.6889528v1.59203434h-2.6761287v2.97772534h2.9040257v1.8010043h-7.9247124v-1.7815365h2.9493734v-2.99224894h-2.7072618v-1.58029184h2.7148326v-2.00240343zm9.2489794 6.57046351v1.7812275h-4.4770558v-1.7812275zm-1.1224738-10.02216824c.0555451.34501288.0245665.41987125-.2113648.47402576v.6697854c-.0830472.00988841-.1446953.01707296-.2297511.02711588v.40519314c.0000773.14276394-.0292789.25980257-.2264292.23245493v.44150215c-.0686008.01761373-.1261545.03229184-.1991587.05098712v.43053219c-.077794.00865236-.1396739.0155279-.2158455.0239485-.0091159.144-.0181545.28884978-.0276567.44103863-.0716137.006103-.1337253.01143347-.193133.01645493-.0753219.14871245.0740085.41987125-.2503777.41345923v.22712446h.8764377c.0052533-.0683691.0104292-.13604292.0163005-.21136481.0719227-.00602575.1341888-.01127897.2124463-.01784549.0066438-.13503863.0131331-.26760515.0200859-.40866953.0693734-.00772532.1308669-.01467811.2010901-.02263519.0074936-.06751931.0142918-.12986266.0225579-.20418026h1.5665408c.0031674.06875537.0060258.13001717.0094249.20255794-.0702232.01089271-.1316395.02047211-.2186266.03399142v.61091845c-.0753219.01761374-.1283176.03005151-.1969185.04604292v.43169099c-.0798798.01228326-.145854.02240343-.2225665.03414592-.0075708.14230043-.0149871.28197425-.0230987.43640344-.0636567.00718454-.1249185.01421459-.2058026.02348497-.0089614.1402146-.0180772.28429185-.0277339.43802576-.0699914.00556223-.1321802.01042918-.1912017.01514163-.0993476.13550214.0971073.43655794-.2548584.414-.0051759.07895279-.0096566.14786266-.0148326.22642918-.0687554.00718455-.1307897.01382833-.2077339.02201717-.0066438.06504721-.0136738.13318455-.0221717.21723605-.3190558.00417167-.1857167.27309013-.2512274.45015451-.0550043.00556223-.1168842.01174249-.1923606.0193133-.0081888.06458369-.0167639.13210301-.0270386.21283262-.0503691.00834335-.1046008.01730472-.1697253.02812017-.0058712.05461803-.0118197.10962232-.0186953.17381974-.0685236.00579399-.1308669.01096996-.2064206.01730472v.22086696h2.0316824l.0003548.92888698c-.0001144.15228898-.000432.30381688-.0011273.45533619-.0006953.14461803-.0770987.1871073-.2221803.18642041-1.2165064-.00580238-2.4330901-.00580238-3.6495965 0-.1446181.00068689-.2242661-.04164788-.2232618-.18557062.0033991-.49411159.0119742-.98822318.0190043-1.48225751.0019313-.14214593.1177339-.11649786.198309-.1223691.1628498-.011897.2411845-.08853219.2655965-.25184549.0112018-.07539915.077794-.14253219.119279-.21345065l.0560086.01908155c.0042489-.06296138.0085751-.1258455.0135966-.2003176.0699914-.00888412.1369699-.01730472.2109785-.02665236.0052532-.06991416.0099657-.13279828.0156051-.20850644.065897-.00927038.1329528-.01861802.2112876-.02966523.006103-.06813734.012206-.1365837.0193906-.2171588.0622661-.0084206.1234506-.0166867.1832446-.02487554.0084978-.01259227.0207039-.02248069.0217854-.03337339.0514217-.54847371.0545676-.58275332-.4258966-.58489579l-1.136318-.00014284v-1.62293562c.0711502-.0072618.1325665-.01359657.2090472-.02155365.0104292-.05508154.0217082-.11479828.0354592-.1872618.0583262-.006103.1197425-.01251502.1942919-.02024034.0111245-.1415279.0221717-.28035193.0342232-.43385408.0617253-.00687554.1231416-.01382833.205957-.02325322.0071846-.14044635.0145237-.28498712.0226352-.44150214.0576309-.00795709.1110902-.01521889.1708069-.02348498.0076481-.1583691.016764-.30507296.0214764-.45185408.0044034-.13496137.0143691-.26096137.2258112-.20441202v-.45463519c.1890386.02224893.2257339-.08320172.2231845-.23090987-.0038626-.2242661-.0010043-.44876395-.0010043-.6792103.0841288-.01575966.144618-.02711588.2152275-.04024893.0104292-.14484979.0203948-.28375107.0313648-.43671245zm-55.11012102 3.2320661h-1.35965665c-.01367382.1416824-.02580257.26760515-.03878112.40187124-.17080686-.01328755-.20008583.07895279-.19854077.216.00525322.46220601.00200859.92456653.00200859 1.38684979-.02827468-.00618026-.05662661-.01228326-.08490129-.01846352-.0384721.09069528-.10452361.17961373-.11024035.27224034-.01792274.28838627-.01367381.57808584-.01668669.86724464-.00139056.14199141-.00865236.27718455-.20665236.25238626v.63424893c.14415451.01406009.26915021.02618884.38997425.03793133.0084206.08049786.01483262.14206867.02124463.20379399.08188842.00857511.15010301.01560515.22163949.02309872.00618026.07176824.01151073.13372532.01715021.19939055h.43725322c.01151073-.1537339.02178541-.29217167.03190558-.42744206.07895279-.0084206.14060086-.01490987.20703863-.02186266.00455794-.08258369.0084206-.15187983.01351931-.24296137.2183176.04990558.21430043-.10181974.22395708-.24103004.00880687-.12538198.01575966-.25084121.02340773-.37359657.07918455-.01066094.1355794-.01823176.21476395-.0288927v-.67287554c.08327897-.01313305.14407725-.0227897.21206008-.0335279.00247211-.04766523.00571674-.08528755.00625751-.12298712.0082661-.57198284.01498713-1.14396567.02603434-1.71587125.0011588-.05979399.00934764-.13612017.04588841-.17567382.14129614-.15303862.14600858-.14863519-.05840343-.23075536-.00641202-.06010301-.01313305-.12260086-.02024035-.18911588z" transform="translate(22 7.081804)"/></g></svg>