<svg height="29" viewBox="0 0 43 29" width="43" xmlns="http://www.w3.org/2000/svg"><path d="m1.16352351 14.8800725c.13137193.0174364.25878927.0656359.38786753.1004688.01273383.0034314.02503264.0139651.03721282.0134863.29505299-.0122893.58002173.0484389.86491138.1150723.11768901.0275711.23873943.0408579.35852438.0590125.12611231.0191122.25404374.0292469.37837648.0564588.11753082.0256958.23118614.0690674.34701648.1031821.03784556.0110922.07664022.0205885.11567216.0254164.28575966.0353516.57472256.0866235.80800463.2583142.20820989.153217.37853467.3583043.56855338.5372569.07229016.0681097.15747232.1224539.22873428.1915212.11104527.107611.21232267.2255162.32305158.3334863.15577184.15198.3187806.296379.47395925.4488778l.22814109.2534464c.07126196.0708229.15869825.1253666.22814109.1977057.10752568.1120399.17301391.2437905.16850567.4082993-.00609009.2209675-.00087002.4422543-.00158184.6634214-.00071183.2235212-.11816356.3832419-.26578892.538015-.11250848.117985-.19175874.267571-.29216612.3981247-.16937568.2202892-.34662102.4344339-.5149685.6554813-.08660582.1137556-.16067555.237167-.2415472.3554314-.01415748.0207481-.03531461.0364289-.05065847.0564987-.12073405.158005-.23612939.3204788-.36236034.4738155-.14197027.172409-.27002034.3704738-.44687022.4961596-.22774563.1618354-.49863599.2517307-.78815252.1227332-.03867603-.017237-.0888995-.0059053-.13208377-.0154015-.23806714-.0521098-.47569928-.1062145-.71325233-.1604389-.16981068-.0387831-.33954227-.0778055-.50875977-.1191422-.0418397-.0101746-.08193939-.0285686-.12207861-.0450873-.20354346-.0837107-.41088333-.1513416-.62530194-.2049676-.19792792-.0495162-.39209896-.1264837-.57662077-.2153017-.1642347-.0789626-.32368432-.1771172-.46605005-.2912319-.21742412-.1742045-.38885619-.3890673-.43544142-.6788629-.02182941-.1358204-.04796934-.2721197-.05481081-.4090174-.03064818-.61602-.05504808-1.2322793-.08170211-1.8484589l.03373277-.0008379c0-.4061446-.006011-.812409.00213549-1.218394.00529916-.2644987.0079883-.5329077.0553249-.7915411.03709419-.2027332.11772856-.4073816.22434467-.5831821.05702539-.094005.21469544-.1216159.31846424-.1919202.16530244-.112.34776785-.1120399.52952144-.0879002zm9.48954219-.6276669c.2648399.0150424.5280978.0577357.7921072.0878604l.1467949.012409c.3346781.0370274.6740226.052389 1.0014243.123571.1199826.0260948.2511173.166823.3058886.288.0637086.1410474.0559576.317606.0665955.479601.0094515.1437207.001305.2886384.0015027.4329975.0001187.092409-.0476134.1267631-.1361965.1413267-.2725908.044808-.5431648.1018255-.8155184.1485088-.1532409.0262543-.3084591.0409376-.4626491.0618054l-.349628.0437987c-.0580037.0085194-.1156707.0185521-.172696.0314532-.2849292.0644788-.566062.1458354-.8488557.2198504-.0129316.0033915-.0268913.0082593-.0395461.0064638-.2626252-.0374663-.3704277.1590823-.5011669.3290973-.11191529.1455561-.12192043.3182444-.12559821.4836309-.0109938.4961596-.00960969.9928379-.00039546 1.4890374.00359868.1930374.03428641.3915013.22561014.5019052.07612612.0438903.16308786.0867033.24803274.0935661.23956989.0193916.47467109-.0036708.70542219-.0921695.120655-.0462045.264128-.0285287.3894099-.0661946.262032-.078803.2697039-.0552618.2711671-.3616957.000435-.0902544-.0075533-.1813068.0016214-.2706035.0142761-.1393317-.0977578-.2032519-.2342707-.1647082-.2217742.0626034-.440701.1355012-.6629498.1963092-.0896508.0244987-.1548623.0006384-.1529245-.1191422.0058133-.3562693.0043105-.7126982.0068019-1.0690473.0007118-.1022644.0851426-.1710524.209159-.1886484.2524619-.0358703.5196745-.0367481.7520865-.1271222.2621903-.1019851.5343066-.094404.7960222-.1632319.2192037-.0576958.4388424-.1144739.6601816-.1626335.0715388-.015561.1491281-.0024339.2339543-.0024339 0 .8697856.0045874 1.7226135-.0043896 2.5753217-.0015423.145995-.0691264.2755512-.1803299.3964489-.2429313.2641796-.5468822.3447781-.8792271.3870324-.1822281.0231422-.3628348.0644788-.5417411.1076908-.231028.0557406-.4592877.1231721-.6896038.1823042-.0917073.0235412-.1857478.0379053-.2785623.0573367-.0555622.011611-.1106103.0257357-.166212.037187-.1151976.0238205-.23257024.0396609-.34543463.0717008-.11341804.0322793-.22046916.0874613-.33392674.1193815-.10954252.0308429-.22375148.0450075-.33598313.0662344l-.58707997.1155009c-.09802437.0178768-.1962743.0339921-.29495485.0467336-.27543815.035591-.55692684.0663541-.83212771.0468029-.19203556-.0136458-.3802747-.1093266-.56578516-.1802294-.18155586-.0693865-.35745663-.1538154-.51623397-.2231222.0962946-.1416858.19041417-.2847282.28916062-.4244987.12805007-.181227.25851245-.3607382.39051712-.5390524.0539408-.0728579.12021996-.136818.17103661-.211591.09143044-.1346235.12753597-.2815362.12263227-.4502743-.01182427-.4058255.00332186-.812409-.00783012-1.2182744-.00490371-.1790723-.07280425-.3380349-.22193236-.461965-.10800023-.0897357-.1841659-.2172968-.28398009-.3185636-.20231753-.2051272-.41519385-.3997207-.61585044-.6064838-.18222814-.1877706-.3523552-.3874314-.5309451-.5788728-.13243968-.1419651-.26978307-.2793018-.40514915-.4185138-.05358488-.0551022-.08945314-.1023042-.00739511-.1722094.0459525-.0391422.06137545-.1124788.09874645-.1643891.12318591-.1712119.31719877-.1964289.50037601-.2159002.32688755-.034793.65626649-.0448479.98434042-.0689077.154625-.0113716.3173174-.0045487.46118588-.052429.40463506-.1346234.82726356-.0535062 1.23640686-.129995.22992066-.0429725.46893691-.0341546.70281217-.0588129.22035052-.0232619.43848646-.0707831.65907426-.0875412.23146296-.0175561.46545686-.024778.69699886-.011611zm-9.52596409 1.7855322c-.04587341.0033117-.11887539.0486783-.1272196.0864638-.0469807.2129078-.09858827.4282893-.1097798.6449078-.01775617.3421047-.00474553.6858454-.00474553 1.0288678-.00818603.0004389-.01637206.0008379-.02455809.001197.02562584.5066135.04354019 1.0137457.08023891 1.5195212.01743981.2401197.04907664.4794015.3378418.5807481.19555515.0686285.37204912.1906035.5623051.2769477.1078025.0489177.22474013.0801995.34013547.1084489.23581302.0576558.47324743.1086882.71032592.1609177.09716461.0213865.1945665.0498354.29299659.0558204.15600912.0094165.31296734.0037107.46949056.0023142.11559306-.0009576.25262008-.1364987.2649189-.2550823.01502749-.1447581.04132561-.288798.04840435-.4338753.01874482-.3834015.0109147-.7656459.06805873-1.1500848.03990195-.2685287.02408354-.5515012-.04579431-.8344339-.07280426-.2949027-.04872072-.6137456-.07280426-.9216958-.00529917-.0680698-.01763753-.1477905-.05690674-.1983441-.07652159-.0985137-.16012191-.2105137-.26681712-.2613865-.14291938-.0680299-.31106913-.081197-.46735507-.1217357-.19270784-.0500349-.38478294-.102783-.57642304-.1568479-.08166256-.0230224-.15992417-.0667531-.24253584-.0763291-.23616894-.0275312-.47352425-.047202-.71091911-.0603691-.15593003-.0086584-.31320462-.007222-.46885782.0040299zm41.21349589-7.83519999c.1984025.00211471.2131532.02597506.14984.21147132-.0427493.12516708-.0804762.25320698-.1363152.37238902-.0826117.17635911-.1603592.36065836-.2764268.51359601-.0829676.10936659-.2199551.18230424-.3427851.25420449-.1271009.07445387-.2628625.13761596-.4013527.18721197-.0809112.02896758-.1745167.02944639-.2624671.02964589-.9484326.00215461-1.8968652.00395012-2.8452582-.00071821-.1282874-.0006384-.1675566.03463342-.1661725.16686285.0066437.62739155.0024914 1.25490275.0028869 1.88237405.0000791.1919601.0158975.204409.2091985.2042095 1.1587384-.0011172 2.3175164.000399 3.4762944-.0037905.1564441-.0005586.2074981.0561396.2031085.206404-.005141.1758803.007751.3526783-.0039546.5279601-.0235299.3515212-.1696921.5352219-.557006.536778-1.0646979.0043491-2.1294354.0030723-3.194173-.0008379-.1096611-.000399-.1356429.0399003-.1352474.1406085.0022937.5913217.0012655 1.1826035-.0016609 1.7739252-.0005537.1141546.0404951.1566483.1584609.156369 1.5300758-.0038703 3.0602306-.0032319 4.5903063-.0042693.1877646-.0001197.1907305.0016758.1898605.1854165-.0006722.1534563-.006881.3073117.0011469.4603691.0122988.2330573-.0769566.4164389-.2586311.5502643-.044687.0329177-.1196268.0313217-.1809231.0325586-.2012498.0041496-.4026182.0026334-.6039076.0027132l-3.4495217.0018354c-.1003283.0001596-.2037412.0282893-.3002731.0114514-.129276-.0225037-.1428007.0386234-.1427612.138414.0002373.4468429-.0009095.8937656-.0033218 1.3406084-.0007514.1313916-.0080674.2544838-.0679797.3845586-.0818998.1779552-.0934868.3880699-.1698107.5696559-.060189.1432419-.1581841.2781047-.2655911.3913816-.12283.129596-.2631789.2519301-.4172107.3390324-.1459645.0825536-.3188202.1603591-.4809985.1628728-.9750866.0151222-1.9505292.0076608-2.9258531.0086583-.1066161.0001197-.167082-.0047082-.1401512-.1561296.0264563-.1485088-.0158975-.308828-.0204848-.4642394-.0015423-.0513517.0186657-.1038604.0319137-.1550923.0861708-.3329277.2833473-.4878604.6234828-.4884988.581564-.0011571 1.1634048-.0118902 1.744613.0023542.3368136.0082992.5714797-.1266035.7223479-.4191921.0413256-.0801596.0784593-.173566.0800412-.261586.0079487-.4506733.0036777-.901586.0036777-1.3755212h-.2739354c-1.6062018-.0002394-3.2123641.000798-4.8185264-.0021147-.2178591-.0003591-.4356392-.0217057-.6535774-.0303641-.0811089-.0032718-.1047179-.0412968-.1029779-.1200997.0047456-.2120699.0112311-.4247382.0003955-.6362893-.0140388-.2745935.1926287-.4778454.4721401-.4762494 1.740342.0099751 3.4807236.0027132 5.2211052.0071022.1331119.0003192.1671215-.0445685.1663306-.1676608-.0035987-.586813-.0036778-1.173586.0002768-1.7603192.0007909-.1121995-.0367778-.1445586-.1471508-.1441995-1.4271769.0042693-2.8543539.0040698-4.2815704.0048678-.0447265.0000399-.0894926-.0009975-.1341797-.0029127-.1359197-.0058254-.2029107-.1382145-.1695338-.2761097.0257444-.1062544.025784-.2253167.0086606-.3341247-.0329419-.2094763.1070906-.5396509.2910588-.6242793.0537431-.0247382.1199036-.0302843.1803695-.030404 1.3600673-.0024738 2.7201741-.0045486 4.080281-.0012768.1320047.0003192.1713134-.046803.1705621-.1732469-.0038756-.6455062-.0041128-1.2910524-.0000791-1.93651869.0007118-.11036409-.0289477-.14563591-.1431962-.14535661-1.6330141.00391022-3.2660677.00179551-4.8990818.00482793-.1551391.0002793-.218215-.02250374-.2084471-.20612469.0098074-.18449875.0007118-.36999501.0017004-.55509227.0010282-.20037905.0755725-.34537656.2561397-.45885287.1049948-.06587531.1986398-.07333666.3049395-.07333666 2.9171135-.0007581 5.8341874-.0011571 8.7512217.0001197.1293946.00003991.2288529-.03068329.3283507-.12967581.0776685-.07728678.2066281-.13230922.3168034-.14024937.2804605-.02014963.5632146-.01133167.8449801-.00833915zm-22.676983.00645985c.0103611.14276309.0283941.27882294.02875.41492269.0019773.74904738.0010677 1.49813465-.00261 2.24718205-.0006723.1400898-.0236881.2800199-.0250722.4201496-.0004746.0476808.0225412.1089277.0565508.1387731.0212758.0186334.0851822-.0037506.1263496-.0181945.117689-.0413766.2326098-.1198604.3502988-.123212.1051529-.0029925.2191246.0631222.3170801.1199801.0986278.0572568.181635.1301546.2188478.2594314.0327046.1136758.1231068.2096758.1834936.3160898l.2377508.4344339c.1272591.2321795.256021.463601.3815797.696778.025784.0479601.0401392.1021447.0586468.1506634-.1502354.1049775-.2806187.2078404-.4219563.29199-.2121249.1262045-.489659.1293167-.7050267-.0675112-.1805277-.1650275-.263693-.3755013-.3614508-.5872918-.0847867-.1837008-.1997866-.3533566-.3047022-.527202-.014197-.0234613-.0476134-.0351122-.092775-.0666334-.0126152.149586-.0285918.2800199-.0329419.4108928-.0030846.0936857.0143157.1879301.0143552.2818952.0008701 2.053187.0013446 4.1063741-.0012259 6.1595611-.0001582.1385337-.0188634.2780648-.0407324.415202-.0213549.1339451-.2806978.3469327-.4331477.3517606-.2363272.0074614-.4730893.0019551-.7256303.0019551-.0132084-.0884987-.0363823-.1712918-.0364219-.2540848-.0019377-3.6416159-.0018586-7.283192-.0018982-10.92476805 0-.21378554.0413652-.40718205.2564561-.5110025.0265354-.01276808.054969-.03016458.0826512-.03036409.2812514-.00227431.5625424-.0013965.872781-.0013965zm5.5998494-.00110923c.101396-.0004389.0807135.0797606.0811089.13693766.0019773.31134164.0003164.62276309-.0003954.93414463-.0004746.20620449.0221853.26306235.2455018.25879302.5186858-.00989526 1.0377671-.00343142 1.5566506.00275312.0947128.00111721.1912842.02441895.2831892.05099252.4135329.11954114.7039195.39892269.9063556.76604492.1656979.3004488.2284575.6325386.2260056.9804688-.006446.9208179-.0022936 1.8416758-.0022541 2.7625337 0 .1788728.0188635.1974264.202278.1975461.1789458.0000798.3579312.0008379.5367979-.001995.0888995-.0014364.1278128.0295262.1249655.1267631-.0066438.2254763-.0074347.4513516-.0028473.6769476.0069601.3388728-.3098432.4868229-.5718357.4471621-.0893345-.0135262-.1840473.0143242-.2763477.0145636-.6710963.0015162-1.3421926-.000798-2.0132493.0033915-.0644205.000399-.1723811.0231821-.1832168.0591721-.019338.0640399.0173212.1469127.0361847.2204888.0119033.0466434.0377664.0895361.0508562.13598.0461897.1642294.0807134.3323691.1366711.4929676.0478507.1373366.1127062.2698853.1823072.3976858.0400997.0736159.12196.1259651.1547832.2012967.0898091.2062843.2389372.3638903.3729982.5379352.1616247.2099152.3760828.3292569.5829877.473217.2980585.2072418.6196469.3512418.9640138.452389.2355362.0691471.4021436.2898354.4055841.5419252.0032823.2391222.0022937.4783641.0001582.7175262-.0011468.1274812-.0626805.1589226-.1831772.1132768-.0897695-.0339951-.185471-.0518704-.2788392-.0758504-.2050857-.052788-.4115951-.1004289-.615099-.1587631-.139993-.0401397-.2844942-.0782444-.4119511-.1460748-.3067981-.1633516-.6198446-.3222344-.9016496-.5237706-.229723-.1642294-.4216399-.3838005-.6221778-.5870923-.0680588-.0689875-.1102939-.1637905-.1660539-.245586-.0401787-.0589327-.0904417-.1119601-.1236604-.1743641-.1100566-.2070424-.216475-.4160399-.3204415-.6262743-.1455295-.2940648-.2611225-.597187-.2992054-.9283591-.0109938-.0957606-.0700755-.1852569-.1019497-.2793815-.0194961-.0575761-.0291849-.1186235-.0463875-.1910823-.0306877.0146034-.0719342.0205885-.079527.03998l-.1817536.4960399c-.0406929.1078903-.0877131.2133466-.1319651.3198404-.103927.2501746-.1955947.5064938-.3158542.748409-.0888995.178793-.1710762.3647282-.3365368.5006284-.0892554.0732968-.1261123.2081596-.2073794.2955412-.1007238.1082094-.2176614.2034114-.3373673.2905935-.12544.0914114-.2822401.1465137-.3895285.2538454-.1524895.1525785-.3476492.2076808-.5289677.290394-.3166847.1445187-.6435723.2664139-.9669798.3956109-.0399019.0158803-.0853008.0172769-.1275755.027611-.168387.0411771-.335469.0884988-.505161.1228928-.0907187.0183541-.1857478.0150025-.297149.022783-.0045082-.0671122-.0113497-.1233715-.011587-.1797107-.0009491-.2166184.0073556-.4335561-.0013841-.6498155-.0096097-.2395211.1057857-.4047481.3052954-.4946433.2241865-.1009876.4658919-.1617158.695773-.2508529.1445012-.05602.2810537-.132788.4216794-.1990624.1184404-.0558204.2483096-.0944837.3537393-.168778.1215645-.085586.2252147-.1985836.3305258-.3058354.0963737-.0981546.1894255-.2004589.2751218-.3080698.1087911-.1366185.2145372-.276429.3108318-.4221447.1036502-.156808.2109386-.3147332.2867088-.4857057.0683355-.1542943.0981533-.3262644.1411793-.4914913.0187449-.0721795.0280777-.1468728.0479694-.254404h-.2454227l-2.7782278-.0015561c-.1687034-.0003192-.1989561-.0360299-.19784-.2087182.0012567-.1895661.0129228-.3797706.0013358-.5685387-.0197335-.3214364.2263219-.4867431.4892635-.4866633.9036665.000399 1.807333-.0011571 2.7110391-.0009576.1975324.0000399.2074189-.0073815.2074585-.2033716.0003164-1.0472219.0005932-2.0944439.0005141-3.1416658-.0000396-.1878504-.010282-.1947132-.1999052-.1946334-.7096141.0002793-1.4193073-.0013566-2.1289214-.0013167-.0818603.0000399-.1651047.0156808-.2449086.0042294-.0295013-.0041895-.0717761-.0650773-.0726461-.1009875-.0061692-.2526085-.0088978-.505616-.0009886-.75814467.0058132-.18433916.2112549-.3671621.4248035-.3679601l1.8118808-.00219452c.0849449-.0000798.1702852-.00518703.2547951.00131671.1115198.00853866.1531223-.04740149.1536759-.14958603.001305-.25272818-.000435-.50549626.0037569-.75818454.0033219-.19886284.1681497-.39740649.3670663-.41081297.2538856-.01715711.5095902-.00714214.764504-.00821945zm-7.4982569 2.65537357c.1573141.0008778.2141813.0800798.1824654.2390025-.0190612.0956409-.0321114.1931571-.0393878.2904738-.0240836.3217955-.0205244.6477806-.0715388.9649875-.0775498.481596-.133112.9637108-.1570373 1.4505736-.0063274.1292369-.0168466.2620648-.0536245.3845985-.0226203.0753716-.0866453.1527781-.1531618.1971471-.1552972.1037407-.2937479.2642993-.522324.1758005-.073002-.0282493-.167517-.0060249-.2513942.001596-.1886346.0170774-.2141813-.0041895-.2096335-.2751521.0234508-.1924788.0567881-.4661945.0900463-.7398703.0016609-.0134464.0034801-.0268529.0044292-.0403391.0223039-.3136559.0452011-.6271921.0664768-.9408878.0187844-.2774664.0167676-.5581247.059675-.8316409l.032672-.2508041c.0187505-.1255431.0494256-.2497446.1293877-.3656149.111243-.1612768.2502868-.2359701.4236567-.2555611.154625-.0174763.31273-.0052269.4692928-.0043092zm7.8388274-.1054284c-.2386604-.0059452-.2569306.031601-.2575238.2598703-.0014237.5095262-.000435 1.0190923-.0008305 1.5286583 0 .527601.0025705 1.055202-.001951 1.5827631-.0010149.118823.0578691.1673018.1580788.1679003.5719938.0036708 1.1440273.003192 1.7160607.0025536.088939-.0001197.1393602-.0411771.1363547-.1407282-.0283545-.9389725.0544549-1.8796209-.0440147-2.8176359-.0230553-.2192519-.159331-.3716309-.3226957-.47601-.1148417-.0732967-.276229-.0916508-.418397-.0980748-.321193-.0145636-.6434932-.0013167-.9650815-.0092967zm-20.54716398-4.91118208c.25068233.04452868.50009919.11367581.75244245.1271222.29046565.01544139.52612048.16801995.7764469.2725586.30363447.12680299.56527106.34134663.80495959.57300748.1282478.12400998.2564165.24957606.37133729.38583541.26460253.31361596.44785887.672.60058567 1.0554015.07011512.1760399.10645793.35830424.17467484.53139152.02625857.06651372.09332865.12532668.16427424.05833416.10673476-.10090773.19338012-.22340149.29952169-.32510723.09597823-.09200997.20093341-.17743641.31221596-.24961596.14829764-.0961995.30308083-.18390025.4615418-.26190523.12650778-.06228429.25894745-.12157606.39542085-.15201995.21604-.04811971.4367464-.08530674.6572156-.09919202.1330328-.00833916.270139.03184039.4039627.05777556.2656703.05143142.5305892.10789027.7673909.24989526.0762843.04572568.1511845.09384538.2252938.14300249.201487.13358604.3768342.29482294.536442.47864339.1919169.22100748.3081427.478803.4355996.73867332.1492072.3041995.2325702.61195008.2341521.94539648.0015027.3216758.0323486.6503741-.0232927.9626733-.036145.2026933-.0508957.4325985-.2089217.6135063-.1050738.1202992-.1451735.2962194-.2412308.427212-.1185195.1615561-.2531342.3158503-.4026578.4481596-.1397952.1237306-.3039903.2218453-.4654568.3174463-.1060625.062803-.2242656.1072519-.3409264.1489477-.1603987.0573366-.3239611.1060548-.4872467.1548528-.0624432.0186734-.1272196.0335561-.1919565.0395013-.1891091.0173566-.3786533.0301247-.5681579.0432918-.324238.0225436-.64843638.0457256-.97287207.0654763-.3872348.0235012-.77474642.0426134-1.16198122.0657157-.20421573.0121695-.40858965.0238204-.61209356.0442493-.3732355.0374265-.74587781.0811572-1.11879694.1222943-.00889786.0009975-.01767708.0031122-.02657494.0033915-.63293432.0187133-1.2658291.0463641-1.89884252.0504161-.19432923.0012149-.39225715-.0498176-.58271086-.0995732-.19571334-.0511122-.39411581-.1102843-.57357573-.201576-.22477967-.1143541-.44429972-.2482993-.64230673-.4045088-.21279723-.1679002-.41630114-.3558304-.59042234-.563591-.18997916-.2266733-.3512479-.4800798-.50587291-.7337257-.07984345-.1309127-.11294348-.2899551-.17653351-.4320399-.09514776-.2126284-.13789703-.4386633-.19211465-.663182-.10009102-.4146833-.12105042-.83678805-.08826675-1.25570076.02523037-.32319202.06370866-.64742145.18349361-.96195512.10392699-.2729975.22161599-.53594015.34250823-.8006783.11025435-.24155611.28564103-.43535162.4421247-.62954613.17586122-.21813467.39577674-.4158005.64206946-.58170574.15023539-.10118703.32000653-.17923192.46272818-.29877307.08534035-.07150124.21429997-.09053366.3243566-.13123192.08415396-.03112219.16890112-.06072818.25420192-.08853865.33859317-.11040399.68477918-.17037407 1.04191945-.15489277.0019773-.01169077.0039546-.02342145.0059319-.03511222zm.70245626 1.77197008c-.21694956-.00414963-.4226285.03818453-.63242023.11738653-.32933939.12440898-.59611696.31884289-.8172584.58370075-.08197894.09823441-.12674505.22910723-.21204585.32327182-.16451152.18154613-.23264934.40825935-.28801379.63078304-.05655084.22751122-.05611583.46946634-.08063437.70507731.00569463.0005586.0114288.0011571.01716298.00175561l-.00007909.09468334c-.00569463.3444189.03096454.6788628.21604.9809476.06018907.0982344.10974025.2030923.17064115.3007681.09985374.1600798.23608984.2866434.36528674.4226234.18468.1942743.41645932.309985.64337448.3773766.36568221.1086084.74714329.1259251 1.12377975-.0584938.2619134-.1281995.50982751-.2613067.70099305-.481197.14311711-.1646284.28659013-.3342843.39589538-.5218953.08771311-.1505037.13085784-.3293765.18143722-.4993516.03725237-.1251272.05714402-.2558005.07960617-.3848778.00917468-.052788.00664374-.1079302.00620873-.161995-.00150275-.19391522.01384111-.39026435-.0119429-.58094764-.02471628-.18270325-.07430701-.3673217-.14588533-.53701746-.11076845-.26246384-.25886836-.50669327-.45659855-.71573067l-.112756-.12799409c-.01954746-.02019544-.04014216-.03884216-.06278886-.05446975-.11306212-.07796509-.23806714-.13813467-.35761481-.2066035-.09234-.05294763-.17819445-.12963591-.27729682-.15545137-.14343347-.03738653-.29604163-.04951621-.44509065-.05234912zm5.28145242 1.44534663c-.3091314.05202992-.5343066.23557107-.7079137.45187032-.1666865.2077606-.3033576.47553118-.35069422.73588035-.05370352.2954613-.1037688.6193715.04737612.9176259.0252304.0498354.042947.1040598.0599518.1575661.06185.1946334.1684661.359182.3200461.4943641.1275755.1137157.2690712.2000199.4208489.2820149.1570373.084828.3134419.1012669.4713888.0929676.1294737-.0068628.2582356-.0661945.383122-.1133965.268399-.1014663.4722983-.2852868.6289402-.5249277.0459129-.0702643.1139321-.1349027.1333492-.2120299.063155-.2504938.1084748-.505616.1529641-.7214364-.0344842-.2468629-.0590818-.4449676-.0908373-.64187533-.0191402-.11858354-.1248863-.19786534-.1660538-.29406484-.1017124-.23768578-.2848501-.38276309-.4832921-.50382045-.2487446-.15174064-.5246177-.17033416-.8191961-.12073815z" fill="#fd8002" fill-rule="evenodd" transform="translate(0 .081804)"/></svg>