<svg height="30" viewBox="0 0 101 30" width="101" xmlns="http://www.w3.org/2000/svg"><g fill="none" fill-rule="evenodd"><path d="m97.3164054 19.8417672c1.0083204.0873033 1.7400962.471337 2.6159688 1.1850646l-1.1840582 1.2012663c-.530643-.3980212-.9829876-.6151987-1.4319106-.662193-1.0653048-.1115184-1.5394385.4073918-1.4951415 1.0968617.03182.4952701.7984693 1.0632118 1.635729 1.3480013l.0839367.027522c.5348571.1688171 1.0125096.3826571 1.4545745.7132391.7061016.5280321 1.1422099 1.2544814 1.1422099 2.1739476 0 1.7905882-1.2611422 2.9162904-2.9529041 2.9162904-1.3385879 0-2.6959302-.761542-3.3918757-1.9877237l1.1985976-1.304279c.275074.9089125 1.2459121 1.5678648 2.1932781 1.5678648.8685805 0 1.3542078-.4334734 1.3542078-1.1921525 0-.5129487-.5272408-.9249143-1.3570777-1.2031607l-.0900588-.0292989c-1.4749635-.4655432-2.7682743-1.3979378-2.86549-2.9110722-.1166762-1.8160319 1.186941-3.1049513 3.0900142-2.9401778zm-26.6268882.1582328.000138 6.3793103c0 .9522151.7719228 1.724138 1.7241379 1.724138.9271568 0 1.6833856-.7318299 1.722545-1.6493484l.0015929-.0747896-.0004138-6.3793103h1.724l.0005518 6.3793103c0 1.9044302-1.5438457 3.4482759-3.4482759 3.4482759s-3.4482759-1.5438457-3.4482759-3.4482759v-6.3793103zm-16.4347241 0 4.365 6.72.0008966-6.72h1.7241379l-.0000345 9.655h-1.875l-4.332-6.67.0001379 6.6701724h-1.7241379v-9.6551724zm38.159 0v1.7241379l-4.138069-.0001379v2.241l3.7932414.0005172v1.724138l-3.7932414-.0006552v2.242l4.138069.0000345v1.7241379h-5.862069v-9.6551724zm-10.862069 0c1.6187657 0 2.9310345 1.3122688 2.9310345 2.9310345 0 1.4279471-1.0211254 2.6173975-2.373003 2.8779781l2.7941772 3.8455967h-2.131l-2.7550707-3.7926093h-.018l.0001379 3.7931724h-1.7241379v-9.6551724zm-41.7679655.0004264-.7 1.725-2.039717-.0009712 1.9541379 4.8113793 1.9537931-4.8113793-.008214.0009712.7-1.725 1.8697849-.0004264-3.9217849 9.6551724h-1.188l-3.921-9.6551724zm10.561069-.0004264v1.7241379l-4.138069-.0001379v2.241l3.7932414.0005172v1.724138l-3.7932414-.0006552v2.242l4.138069.0000345v1.7241379h-5.862069v-9.6551724zm17.2413793 0v1.7241379l-2.069069-.0001379.0001035 7.9311724h-1.724138l-.0009655-7.9311724-2.068.0001379v-1.7241379zm13.9655172 1.7241379h-1.5517241v2.4137931h1.5517241c.6665506 0 1.2068966-.540346 1.2068966-1.2068965 0-.6443322-.5049233-1.1707333-1.1406775-1.2051108zm-6.2068965-14.82758618c.805819 0 1.567115.1906254 2.2412535.52924162l.0002902 2.08186294c-.5859849-.55005759-1.3744196-.88696662-2.2415437-.88696662-1.8092087 0-3.2758621 1.46665344-3.2758621 3.27586204 0 1.8092087 1.4666534 3.2758621 3.2758621 3.2758621.8671241 0 1.6555588-.336909 2.2415437-.8869666l-.0002902 2.0818629c-.6741385.3386162-1.4354345.5292416-2.2412535.5292416-2.7614238 0-5-2.2385762-5-5 0-2.76142372 2.2385762-4.99999998 5-4.99999998zm-26.0344828 0v1.72413794l-2.0690689-.00013794.0001034 7.93117238h-1.7241379l-.0009655-7.93117238-2.068.00013794v-1.72413794zm40.6896552 0-.0001379 7.93099998 3.4484138.0000345v1.7241379h-5.1724138v-9.65517238zm-27.7586207 0c1.6187657 0 2.9310345 1.31226884 2.9310345 2.93103449 0 1.61876569-1.3122688 2.93103449-2.9310345 2.93103449l-1.5518621-.000069.000138 3.7931724h-1.724138v-9.65517238zm-22.6496207 0 3.9217849 9.65517238-1.8697849-.0004263-.7-1.725.008214.0009712-1.9537931-4.8113794-1.9541379 4.8113794 2.039717-.0009712.7 1.725-5.301.0004263 3.921-9.65517238zm43.7931035 0 3.9217848 9.65517238-1.8697848-.0004263-.7-1.725.008214.0009712-1.9537931-4.8113794-1.9541379 4.8113794 2.039717-.0009712.7 1.725-5.301.0004263 3.921-9.65517238zm-14.7641724 0v9.65517238h-1.724138v-9.65517238zm-16.5986897 0 1.9486897 3.17793108 1.9483103-3.17793108h2.022l-3.109 5.07099998.0007586 4.5841724h-1.7241379l-.0006207-4.5841724-3.108-5.07099998zm10.2193793 1.72413794h-1.5517241v2.41379314h1.5517241c.6665506 0 1.2068966-.540346 1.2068966-1.20689659 0-.64433221-.5049233-1.17073326-1.1406776-1.20511074z" fill="#fff" fill-rule="nonzero"/><path d="m15.3245504 0 6.5494496 12.674-21.874 16.9811724zm9.0314496 17.478 6.2931008 12.1771724-12.8901008-.0001724z" fill="#dcf754"/></g></svg>