<svg height="29" viewBox="0 0 23 29" width="23" xmlns="http://www.w3.org/2000/svg"><g fill="none" fill-rule="evenodd" transform="translate(0 .081804)"><path d="m11.5494016 2c5.1751127 0 9.3703704 4.19525771 9.3703704 9.3703704 0 5.1751126-4.1952577 9.3703703-9.3703704 9.3703703-5.17511261 0-9.37037033-4.1952577-9.37037033-9.3703703 0-5.17511269 4.19525772-9.3703704 9.37037033-9.3703704z" fill="#ff0e51"/><g fill="#fff"><path d="m6.26878801 12.1919566c-.01945083.0593522-.0492153.1097062-.05039177.1607417-.00504898.2183852-.00191175.4369777-.0012843.6554913.00033333.119208.04943099.1710338.16539087.1697596.73427858-.0080302 1.46859638-.0145294 2.20278673-.028476.09522475-.0018075.19369457-.0335529.28336054-.0697529.08322484-.0335924.15471448-.095483.23486091-.138271.18693972-.0998093.30725251-.2613609.40349685-.4424003.10086196-.1897215.15344979-.3922932.14975374-.6111327-.00563721-.3344226-.00146078-.669023-.00145097-1.0035543.0000196-.6987237-.00001961-1.3974574.00011764-2.09618118.00002941-.14020701.16013601-.3118433.28849775-.30994688.1509008.00222237.283439.14596542.2834978.30842579.0002255.63667514.0000588 1.27336017.0002549 1.91003527.0003235 1.0979804-.0007549 2.1959608.0036372 3.2939215.0004412.1089259.0328037.2180592.0539016.3264023.0085489.0439141.0206959.0891221.0414898.1281864.0431664.0810722.0897052.1608702.1415479.2365395.0413331.0603497.0919895.1143188.1395774.170214.0778033.0914037.1780868.147447.2828017.2046953.1506851.082366.3011349.150262.4745453.1494619.1941554-.0009087.3847323.0112798.57627-.0703553.1175874-.050117.2365766-.0997401.33437-.1744711.1488223-.113746.2748508-.2620424.3542325-.4322761.0631956-.1354956.1164991-.2909234.1178422-.4380247.0108039-1.1815317.0092941-2.363182.0076078-3.5447829-.0001274-.0913938.0283625-.1649296.0746465-.2364604.0561858-.0868503.2443412-.1529684.3274582-.0990585.1039502.0674218.1897534.152751.1884495.2994572-.0044117.4936532-.0050882.9874149.0011471 1.4810286.0013039.1025847.0358232.2053077.0598819.306796.0144802.0610412.0268135.1275543.060225.1781158.0855581.1294902.177126.2528664.2892036.365032.1643124.1644556.3694285.2342085.5751818.3052553.0881366.0304316.1894103.0298489.2847723.0302242.6667497.0025582 1.3335092.0015507 2.0002785.0020644.0910679.0000691.1552243-.0642908.1532439-.1518622-.0050686-.2237781-.0062941-.4479512.0012843-.6716108.0042451-.1255492-.0422938-.1629048-.1658615-.1630234-.589113-.0006025-1.1782261.0014125-1.7673195-.0016988-.1156854-.0006026-.2330374.0250881-.3470757-.0404769-.0687936-.0395384-.1640085-.1322558-.1644203-.2167949-.0021765-.4532059.001598-.9065106-.0074019-1.3595684-.0028823-.1459358-.0076862-.2924642-.0600486-.4377679-.0411957-.1143386-.0747347-.22564487-.1384401-.33341512-.0946561-.16011947-.2245374-.28365374-.3676932-.38473712-.1189304-.08397605-.2669881-.13678949-.4097125-.17362161-.2743508-.07080973-.5491623-.0519245-.8078466.07320001-.0924012.04469438-.1714398.11672888-.2621744.16576923-.1136168.06139674-.1793418.16602604-.2529392.26319804-.0394997.05214179-.0675583.11384473-.0960679.17350309-.0418134.08754168-.0974502.17374998-.1145971.26663528-.0256959.1391699-.0309704.2836143-.0312841.4258362-.0023529 1.0899107-.0013333 2.1798116-.0016667 3.2697322-.0000098.0404077-.0018039.0809141-.0048235.121223-.0074117.0991771-.0737641.1673693-.1500184.203194-.1311853.061614-.3229289.0013433-.3810657-.1563069-.0169018-.0458698-.0145979-.1003426-.0146763-.1508843-.0008922-.5908152-.000549-1.1816305-.000549-1.7724556 0-.5881089.0092058-1.1764153-.002598-1.764297-.0117745-.58649895.0519015-1.17485478-.0383037-1.75955604-.0142352-.09229265-.0176469-.18811148-.0457741-.27589025-.0249704-.0779312-.0733916-.14955085-.1185775-.21927409-.0548231-.08459831-.1077443-.17399694-.1787633-.2433646-.0718328-.07015783-.1721359-.11015065-.2468314-.17802685-.1281265-.1164128-.290586-.15914162-.445075-.17955781-.16767517-.02214471-.34476202-.04163245-.51754499.03155768-.07561705.03204168-.16025365.04480303-.23699815.08683057-.13087153.07164928-.24418437.16007995-.35479135.2615683-.14643023.13434982-.23119427.30354644-.29753689.4779286-.05343096.1403848-.06168579.29993139-.07809743.45228737-.01149011.10669363-.0033137.21558001-.0033137.32348854.00003921.90646128-.00624505 1.81300158.00530388 2.71931468.00260782.2041323-.16490068.3344128-.33650718.3335831-.65335765-.0032003-1.3067349-.0013335-1.96011216-.0013631z"/><path d="m21.1749482 23.0580759c.0162057.0175419.0049313.0581669.014696.0850526l.0620975.1416491.027941.0965695c.0334115.0898135.0691857.178738.1033815.2682651.0351174.091937.0674309.18501.1046463.2760581.0463819.1134497.0965874.2253091.1449988.3379192.0069608.0161887.0151077.0322293.0193332.0491885.0159214.0638166.0304507.127979.0454996.192013l.0316959.0086524c.0268527-.0361802.0633916-.0687651.0782739-.1094.0216273-.0590756.024588-.1247985.04148-.1860175.0094804-.0343826.0340488-.0642513.0464409-.09814.0404702-.1105556.0770778-.2225533.1178226-.3330003.0369016-.0999968.0812837-.1973565.1146461-.2984596.0206763-.0626018.022794-.1312089.0406958-.1949959.0241371-.0860701.0517839-.1716166.0856856-.2541506.0118332-.0288019.0438722-.0523591.0716269-.0707307.073323-.0485662.1421067-.1047478.2413118-.0967176.0984404.007961.1979593.0035953.2969879.0025286.0990091-.0010569.1347245.0333454.1338323.1327299-.0005392.0593324.0059313.1195439-.0020882.1777799-.0098039.0711357-.0187548.1478915-.0527349.2080734-.0207449.0367531-.0878915.0469068-.1395479.0715505-.0254802.0440622-.0630486.0969152-.0879013.1552599-.0273331.0642018-.0330586.1389624-.0660485.1992035-.0477545.0872059-.0356566.2003593-.1217442.2710702-.0155096.0127416-.0073234.0518653-.0155979.0769731-.0339703.1031873-.0483819.2227015-.1111952.3038527-.0694602.0897641-.0620387.2024828-.1276853.2879305-.0258135.0335924-.0354899.080766-.0487643.1229516-.031186.099098-.0544309.2011592-.0917738.2977386-.0293821.0759953-.088764.1417775-.1098913.2190173-.0250292.091463-.1135481.1573637-.0984208.2629116.0019608.0136898-.0061176.0303922-.013343.0435782-.0298135.0544136-.0745877.1046491-.0887542.1626481-.0230489.094357-.1132933.1311496-.1511263.2031248-.0549603.1045404-.1838123.0994339-.2389589.1930699-.0058921.0099957-.0185587.0193297-.0297841.0222237-.108107.0278043-.2154591.0611103-.3252426.0789485-.1072148.0174136-.2107042-.0051559-.3074191-.0622857-.0293233-.0173246-.0780582-.0003061-.1086756-.0166035-.0756563-.0402793-.1565478-.0807166-.2136062-.141738-.0251567-.0269055-.0041078-.105459.0082352-.1576206.0091862-.0387976.0380095-.0729135.0582839-.1090049.0280488-.0499589.0485878-.1077307.0877052-.1463506.0195586-.0193099.0763327-.0131564.1107834-.0017186.0751367.0249498.1268716.08929.2191846.0975177.1610772.0143417.2645665-.0583447.3625266-.1683077.0507152-.0569421.0969894-.1102.0907345-.1928921-.0009607-.0128601.0107255-.0289797.0205293-.0400224.0692838-.0780102.065774-.1237121-.0041764-.2074807-.0192156-.0230139-.0116764-.0669774-.0276175-.0948212-.0457349-.0798474-.0804013-.1625592-.1100285-.2504071-.0327253-.097093-.0943718-.1838741-.1365284-.2782706-.0474604-.106269-.086166-.216469-.1309891-.3239824-.0138823-.033306-.0384311-.0620487-.0526369-.0952559-.0384605-.0899221-.0716563-.1821555-.1112246-.2715442-.0618329-.1397033-.1251265-.2788732-.193126-.4155837-.0111959-.02252-.0479702-.0395681-.075666-.0450006-.1056169-.0207421-.1277834-.0426103-.1287147-.1473383-.0009412-.1051726-.0015392-.2103649-.0008726-.3155374.0004608-.0727951.0346664-.1065356.1061169-.1067529l.1879288.0042062c.0311806-.0002564.0621738-.0018686.0928043-.006152.1661065-.0232312.258743.0829587.353958.1860274zm-16.07275697-.1836164c.07120532-.0021433.13344013.0132552.18082212.0621178.05822503.0600436.11873436.1150201.11570497.2184148-.00822542.2803448-.00651955.5611441-.00186273.8416371.00302939.1823531.01300971.3650123.03086251.5464369.00562741.0571496.04934275.1097655.07121513.1662039.02866644.0739507.09257771.0686861.15308704.0796597.06215638.0112699.1297833.0588385.18226328.0441709.13569502-.0379186.27428218-.0624339.38555582-.1815926.07984251-.0855267.1042933-.1993517.18795932-.2760087.01133324-.010381.01277441-.0350148.01359793-.0532975.01059796-.2352653.02382334-.4705009.02907821-.7059144.00463721-.2076189-.00021569-.4154453-.0002451-.6231927-.00001961-.1113359.00358821-.1155831.11071482-.1165906.13118525-.0012347.26239992.0001778.39359497-.000721.11098933-.0007507.12463628.0111316.1246853.1217267.00015686.3453271-.00017647.6906541-.00049999 1.0359812-.00019608.2131304-.00106862.4262609-.00097058.6393913.00003921.0964411.05614662.1566032.15177332.1651272.14171458.012633.14123419.012633.14069498.1553784-.00035294.0890135-.00118626.1781158.00245096.2669909.0020392.0497911-.01135285.076183-.06520537.0758768-.20082196-.0011359-.4020851.0069437-.60232863-.0040299-.10414625-.0057091-.21877281-.0685973-.20300822-.2138614.00457839-.0423436.00070587-.0856354.00070587-.1284828-.00899993-.0071412-.01799986-.0142824-.02699979-.0214236-.03575462.0360123-.07033278.0733086-.10751877.1077702-.07861703.0728543-.16247912.1387452-.24767453.2039052-.07507785.0574261-.15787132.0326738-.22457668.0682317-.10563643.0563001-.21502774.0766966-.32797784.0635599-.07735234-.0089883-.15131254-.0457809-.22746881-.0677577-.05147999-.0148553-.10558741-.0213644-.15595957-.0390248-.10204822-.0357951-.17900841-.1082246-.23384131-.1982258-.04339182-.0712443-.06504851-.1556451-.1058129-.2288648-.05242116-.0941694-.04369574-.1950651-.04452907-.2945879-.00277448-.3318249-.00250978-.6636695-.0025588-.9955142-.00002941-.1487409.00078431-.1515559-.1532341-.1466963-.05953875.0018865-.10577368-.0084845-.12155787-.0702369-.01246069-.0487736-.01994102-.09974-.02226454-.1500743-.00373526-.080766-.00349016-.1618776-.00092156-.2427127.00205881-.065081.02798018-.1058738.10431291-.1040959.16592028.0038916.33208565.005304.4979373.0003259zm3.56137123-.0701114c.09649925.0177.19038087.0558458.28719384.0645278.10879327.0097587.18189074.0894876.27432139.1173907.08067584.0243572.092813.095641.14657729.1329966.01099991.007645.01775476.0269154.01955867.0416819.01565674.1278901.03250955.2557802.04120556.3842136.00126469.0187469-.03806833.0571989-.05954856.0579002-.15439095.0050374-.30901719.0026965-.45985915.0026965-.01799006-.0657724-.03062722-.1194748-.04800943-.1715771-.00630388-.0188753-.02076455-.0385112-.0369703-.0499391-.09928354-.0700492-.21184149-.0868899-.32791901-.0657032-.06124462.0111908-.11942064.0394199-.18629267.0624733-.01905867.029039-.04772512.067728-.07103866.1094691-.03751931.0671947.02349982.1075234.05597015.1418269.04543102.0479736.10727368.0837983.16773399.1129459.11360696.0547692.2312727.1009747.34712474.1510522l.01109795.0102427c.17443002.0126033.28820364.160159.44907493.2058015.03932322.0111514.06988181.0600041.1004502.095088.15738112.1805751.17679274.4011332.14121458.620111-.01662732.1023971-.0963816.1976726-.15914581.2879899-.03867617.055658-.09380319.1049354-.15158706.1404736-.05997012.0368717-.130548.0594609-.19922393.0779312-.09742081.0262043-.19780238.0410003-.29611534.0641624-.14615572.034432-.28498797.0152603-.41944771-.0489515-.01395087-.0066572-.03069584-.0105093-.04612709-.0104303-.16696928.0007507-.29949766-.0777139-.42456531-.1793603-.06216619-.0505318-.14130282-.0824549-.19519456-.1395946-.02536255-.0268956-.0283037-.104412-.00819601-.1398317.04598983-.0809733.11439126-.1486816.16999867-.2245287.05442114-.0742273.11671478-.0884702.16824378-.0132552.03158799.046087.08344053.0874627.13518522.1082147.10948935.0439042.19644945.1501237.3350268.1208773.03699971-.0078129.08179348.0294637.12171474.0267475.09576396-.006519.19180242-.0195174.28563503-.0397558.05269566-.0113687.08455816-.1641987.05382311-.2293192-.02911742-.0617227-.06376421-.1097457-.14079302-.1264382-.05873484-.0127317-.10874425-.0617622-.16626341-.0858428-.09035224-.0378199-.18418484-.0671255-.2756253-.1024464-.02692136-.0104106-.05069569-.0290489-.0759798-.0437956-.11969515-.0698615-.24666474-.1299545-.35634036-.2131996-.06357794-.0482601-.0935777-.1388835-.14877335-.201426-.1315774-.1490668-.05923483-.3272122-.07687195-.492211-.00227449-.021236.00679407-.0478551.01929397-.0658415.06063678-.0871664.11552851-.1811184.18974362-.2550395.05257802-.0523788.13349896-.0752742.20038079-.1137756.13338131-.0767755.27991938-.0884899.42856528-.093468.02199002-.0007408.04322515-.0146775.06549949-.0184605.0382448-.0064992.07873468-.01931.115254-.0126231zm6.26786184-.0026965c.0887641.0072499.175734.0368618.2634098.0572483.0178626.0041485.037382.0168111.0529309.0128404.1286853-.0328417.2337727.0433215.3324778.0945249.1093815.0567347.1996945.1500842.2520765.2798017.0247253.0612584.0721171.116156.0864601.1876275.0158528.0789781.0563329.1558525.0581074.2342874.0069117.3070133.0027156.6142835.0027745.9214648.0000196.0672835-.006049.1329769.0499898.1893659.0359213.0361505.0663426.0581471.1190677.0515985.0612642-.0076153.0930483.013275.1177736.08446.0283527.0816549.0395291.1442863-.0038726.2221879-.0181273.0325158-.0036078.084381-.0013039.1273074.0027353.0505417-.0159508.0731111-.0691563.0725283l-.5540055-.001689c-.1239108-.0017384-.1914397-.0741976-.211812-.2425448-.0566761.0224213-.1201756.0280316-.1488616.0627993-.0660289.0800153-.150391.126132-.2388903.1675966-.1923907.0901295-.3925362.1191981-.599113.0567445-.1368028-.0413657-.2707528-.0953052-.377899-.1915586-.0521369-.0468377-.0745582-.1256776-.121901-.1798739-.0767347-.0878578-.0552643-.2005963-.0892248-.2942322-.0451859-.1246208.0278037-.2241238.0237449-.3374747-.0021765-.0607942.0720289-.1314459.1243422-.1852372.0600387-.0617227.1315872-.1131928.2025278-.1627468.0808523-.0564779.1623615-.1129064.2679195-.1178944.0396467-.0018865.0781758-.0237448.1176167-.0350246.0539212-.0154084.1075384-.037889.1624987-.0424424.1776751-.0146973.3559482-.022036.5339076-.0334343.05748-.0036842.0890386-.1014093.0702446-.1828963-.0192352-.0833933-.0688524-.1482273-.1134109-.2163406-.0116372-.017779-.0367742-.0297304-.058176-.0372963-.0691661-.0244363-.1382146-.0541667-.2098317-.0649921-.0478918-.00724-.1005384.0120798-.1501655.0234584-.0437742.0100451-.0856856.0286834-.1295774.0378396-.0487545.0101735-.0907444.0180555-.0925679.0839563-.0039706.1440789-.105911.2151553-.249753.1866101-.0718328-.0142528-.1466459-.0209989-.2197336-.0187568-.0648034.0019754-.0999011-.028881-.0991855-.083581.0016275-.1243244.0082941-.2494292.0262351-.3722424.0060392-.0413361.045382-.086475.0817151-.1126694.0644701-.0464722.1389499-.0786324.2080278-.1189018.1284107-.0748693.2721449-.0695652.4124869-.0852107.0582349-.0064992.1161854-.0417806.1721065-.0372075zm-2.4768247.0040922c.061823.010134.1228912.0261548.1849887.033138.1317539.0148257.2640568.0247029.3959381.038531.0148822.0015705.0291664.0144997.0425389.0238732.023088.0161789.0430487.043035.0681465.0490009.0883228.020989.1665379.0600336.2177042.1345276.0396369.0577026.0812052.1231293.0918032.1899684.0174704.1102889.030137.2236003.0069411.3374055-.0116371.0570804-.0206077.0769336-.0897248.0649328-.0963326-.016732-.1973808-.0057782-.2963898-.0069338-.1161462-.0013532-.1567047-.0408225-.1619497-.153077-.0032353-.0690911-.0291077-.1184179-.108107-.1251443-.0937052-.0079808-.1867241-.0248807-.2804782-.0311231-.0785779-.005225-.1439303.0358444-.215214.0636488-.0794406.0309848-.1327049.0847168-.1995475.1251936-.089764.0543444-.1134207.1447308-.1490381.2311267-.0189802.0460278-.0443428.0893493-.064921.1347548-.0072843.0160703-.0119705.0346197-.0125391.052211-.0016373.0511936-.0005785.102476-.0006667.153719-.0000784.0296711-.0003333.0593423-.0000196.0890233.0005098.0491589-.0099215.0991277.0423722.1356141.0199116.0138874.0368723.0512331.0341566.0755014-.0108234.0964609.0722838.1371352.1163913.1947885.0655583.0857342.1725084.1230898.2662822.1767033.1176167.067244.2337825.0770324.3574776.0723111.0768131-.0029237.1527243-.014164.2169493-.0699505.0228527-.0198531.0704504-.0082968.0984404-.0251177.0718622-.0431832.1420283-.090495.2074101-.1430714.0874209-.070306.1890868-.0469168.2340864.0541765.0279018.0627005.0620094.1240775.102509.1792022.0426762.0580978.0387546.1400589-.0179704.183647-.0659014.0506504-.1234794.1189414-.1969396.1514868-.1272932.0564088-.2434687.1444048-.394546.1447407-.0656661.0001481-.1304107.0450598-.1970867.0503639-.1171951.009324-.2369589.0154775-.3529972.0012149-.1140285-.0140158-.2283022-.0457414-.3359386-.0869491-.1027443-.039341-.1984494-.0985055-.2945663-.1536796-.0541957-.0311033-.1057443-.0684984-.1532243-.1092814-.0303723-.0260956-.0551074-.0611992-.0754308-.0963522-.0538623-.0931322-.1033815-.1888128-.1560674-.282666-.0101666-.0181247-.0329605-.030412-.039333-.04907-.0158921-.0466402-.0271763-.0950583-.0376076-.1433579-.0158724-.0735358-.0401467-.1473976-.041382-.221447-.0016667-.0992265.0149803-.1987888.0244018-.2981436.0017549-.0184704.0105489-.0369408.0092548-.0549075-.009549-.1330262.042735-.2486785.0956659-.3651506.1078619-.2374086.2809194-.4099931.5085059-.530821.0710484-.0377211.1381851-.083176.2103513-.118329.0268821-.0130972.0632642-.010539.0949502-.0087019.0750778.0043361.1432342-.0071906.2001161-.0625622.0085685-.0083463.0298331-.0073487.0443036-.0049682zm6.1079043 1.5092417c.1045972.0131269.1974004.0381557.2724488.1129558.1072345.1068912.2226551.210839.1822045.3751365.0378722.2970472-.2195571.5794565-.551231.53815-.0957836-.0119218-.1924691-.0252363-.2607039-.0839465-.1418322-.122023-.2325276-.2753568-.2149983-.4779681.0180587-.2087647.2225767-.5081924.5722799-.4643277zm-15.26842014-1.5112695c.10408743.0217101.20765525.0466402.30999759.0754816.03175465.0089488.06321519.0297008.0874699.052853.07523471.0717875.15134196.138676.21600812.2261683.08942087.1209465.05269567.2751791.14280281.3870287.01083325.0134527.00412742.041909.00423526.0634215.0017843.3559945.00351958.7119988.00492153 1.0680031.00045098.1192772.03171544.1517535.15012628.15364.12072455.0019261.12227355.0028644.12401864.1211045.00148038.0997697-.00116666.1996777.00291174.2993091.00260782.0634809-.02278414.086475-.08401895.085833l-.65051453-.0039608c-.05058784-.0009087-.10327371-.0153393-.1073227-.084944-.0005196-.0089882-.00701955-.0208903-.01442145-.0256906-.08152878-.0528036-.06489165-.1353672-.06487205-.2128638.00012745-.3884015.00223528-.776813-.00085293-1.1651948-.00068627-.0873047-.00154901-.182521-.03567619-.2589805-.0244606-.054779-.04159772-.1462617-.14293026-.1458567-.04670552.0001975-.10315606-.0513912-.13846951-.0372174-.10578349.0424424-.22903743.0236757-.32315434.1198699-.05747014.05872-.10158744.1320188-.15728309.1794886-.10359723.0882529-.06093089.2038953-.09615611.3016106-.03567619.0989795-.03361738.2143749-.03504874.3227576-.00401958.302055-.00328429.6041988.00014705.9062637.00088235.0780794-.0369801.1032366-.10277371.1038885-.14189105.0014223-.2838017.0015804-.42568295-.0000099-.08713657-.0009778-.11222461-.0318243-.11210697-.1202056.00061765-.4801115.00192156-.960223-.00130391-1.4403147-.0005098-.0762323-.01141167-.1568995-.03915656-.2268005-.01766652-.0444771-.07022494-.0834525-.1162834-.105696-.05537212-.0267574-.12095004-.0472328-.18120447-.0450599-.09264634.0033287-.17969468.0365951-.25042942.1056862-.05946032.0580879-.13219505.103691-.18546914.1665199-.04269575.0503639-.0759896.1152275-.09359731.1792022-.02234296.0811413-.03316641.167804-.03404875.2522442-.00391174.377507-.00368625.7550733-.0020392 1.1326099.00032352.0723309-.03104878.1015477-.0979012.1017156-.14724395.0003654-.29465456-.0036151-.44168283.0022322-.07457785.0029632-.08978361-.0278142-.08943067-.0942187l.00181126-.6311513.00029656-.6311661c.00009804-.1483064-.00228429-.2966423.00042157-.4448894.00118626-.065071-.03630364-.0858823-.08834245-.0950583-.02082337-.0036743-.0433526-.0045237-.06403872-.0006914-.08744049.0161789-.10177371-.027587-.1333617-.1053898-.04380358-.1079184-.00931365-.2095154-.02606843-.3125742-.01742143-.1071381.02834292-.1469729.13467543-.147447.12581274-.000563.25210587-.0082672.37727156.0004445.09781296.0068251.19447888.0327725.29098793.0534258.01424498.0030422.02928408.0216903.03617619.0367432.02425471.0529616.04456828.1077406.06753868.1613344.00953915.0222632.02724489.0629474.03227426.0615943.03035271-.0081981.06139168-.0219571.08609737-.0416325.08061702-.0641623.16409676-.1261813.23619424-.1993221.08729343-.0885887.20376311-.0732.30646819-.1061603.01915672-.0061535.03681344-.0172653.0560878-.0227175.02454883-.0069338.05167607-.018668.07486216-.0140257.10438154.0209298.20835132.0446253.31111522.0724296.03231347.0087512.06034267.0335134.09040126.0508183.11547949.0664835.19130243.1684262.25397841.2833969.01481361.027192.04021537.0485366.06106815.0729333.06347009-.0762027.11862652-.1534128.18528287-.2186814.04593101-.0449512.10693054-.0748298.16278304-.1087876.06452891-.0392224.12165591-.0936656.20541016-.0936953.03576443-.0000197.07178376-.0122378.10722466-.0208508.040284-.0097981.07960722-.0239818.12017553-.0320317.03089192-.0061239.06457793-.0129886.09440122-.0067659zm15.89860834-.8681407c.1979788.0046917.396144.0009383.5942306.0016001.092215.0003062.1739006.0709085.1826947.1643568.0133038.1411947.0278037.2828636.0292841.4244633.0032352.3099073-.0022451.6199036-.0025882.9298604l-.0002549 1.2008021c-.0004902.0792646.0214704.1237615.1044403.1354758.044735.0063116.0874699.0286341.1302931.0458007.0115195.0046126.0281567.0162974.0286959.0255424.0049313.0856157.0664897.1638235.0294605.2557803-.0111567.0277253-.0086077.0629475-.0054411.0940212.0023529.0231028.0285978.0591348.0221567.0650513-.0262547.02413-.0606662.0539394-.0926561.0546407-.2167238.0047707-.4336731.005956-.6503675.0008692-.0700583-.0016396-.135646-.1076912-.1457538-.1611961-.0884699-.4682884-.0142254-.9407451-.0405585-1.3297491l.0001129-1.0249745c.0002071-.079391.0005106-.1581356.0009459-.2368787.0003824-.0684294-.0221665-.0997204-.0916071-.0989203-.0356468.0004148-.0730877-.0043756-.1067835-.0157048-.0743916-.0250387-.0878915-.0837291-.0833229-.1567809.0057157-.0913346.0050196-.1833803.0014412-.2749026-.0027941-.0712048.0190195-.1009648.0955777-.0991573zm-8.7172899.9437754c.0374507.0012347.0779308.0301848.1098423.0555198.0790288.0627203.1310872.1371352.1301461.2494193-.0042353.4987992-.0021471.9976576-.0021275 1.4965062 0 .0769138.0592839.142775.1360186.1501632.0292056.002815.0588623.0022322.088264.0015112.053578-.0013235.0785288.0265598.0788327.078109.0007157.118645.0041667.2375173-.002696.3557672-.0014314.024456-.0424311.066207-.0658525.0666811-.2193512.0044843-.4388887.0033484-.6582791-.0009186-.0298724-.0005827-.0660093-.0207718-.0876366-.0432325-.0799308-.0829982-.1151462-.1833112-.1144697-.3013241.0027941-.4852773.0014804-.970594.0012745-1.4559009-.0000098-.0263425-.0037451-.052685-.0066078-.0903271l-.15423409-.0001086c-.08990126-.001126-.1300382-.0409115-.13075388-.1312484-.00086274-.1078493-.0007647-.2157282-.00020588-.3235873.00039215-.0744248.03598991-.111415.10856778-.1114051.18999847.0000198.38010487-.0018668.56991707.0043756zm6.6575226-.9408715c.1181952.0024298.2022337.1054787.2023318.2357295l.0005392 1.8127547c-.0000196.2103846-.0030784.4207988.0000784.6311241.0008137.0538703.0200097.1074542.0265586.140128.0839209.0294045.1442342.0559742.2072435.0711357.0681956.016406.0679897.0644389.0679112.1168573-.000147.0998092-.000745.1996283.0006275.2994079.0008725.0633129-.0277253.0911962-.0905581.0908537l-.6105149-.0006649c-.0761366-.0003852-.1495282-.0591448-.167332-.1401181-.0171273-.0778522-.0351174-.1577589-.0352644-.2367864-.0014314-.7822257.0008333-1.5644613.0018137-2.3466871.0001176-.0959472-.0758916-.1701646-.1720379-.1695719-.1194598.0007506-.1459596-.0263524-.1452341-.1448888.0005294-.0863071.0030195-.1728907-.0026275-.258862-.004598-.0699109.0318331-.0994734.0899993-.1003129.2088023-.0030225.4177321-.0044151.6264657-.0000988zm-1.8753363 2.2947556c-.1255089.0137886-.2514196.0239029-.3771245.0358741-.0602741.0057485-.1165776-.0013532-.1779888.0370593-.0947248.0592237-.1941848.0953447-.2237728.2254177-.0247351.1087481.0006667.2487476.0991659.3037637.0736563.0411287.1605674.0581472.2415863.0859021l.0061863-.0259968c.132597.0240016.2373216-.0389854.3219092-.1235837.0582447-.0582459.0753524-.1607219.1365088-.2129625.0825483-.0705134.0652641-.1520992.0733229-.2363419.0078235-.0816352-.0309703-.096688-.0997933-.089132zm-4.6731038-2.2976028c.0557447-.0004696.0743426.0364416.0753524.0820249.0029902.1345869.0030196.2692528.0025294.4038792-.0001667.0439931-.0209606.0690021-.0696269.068212-.1336264-.0021631-.2673117-.003062-.4009577-.0019755-.0550682.0004445-.0763425-.024367-.0750582-.0777435.0016176-.0672638.0003921-.1345968.0003921-.2018902.0007059-.0592633.0035392-.1186846-.0000392-.1777206-.004098-.0676491.0365193-.0903568.0904895-.091947.1255578-.0036941.2512726-.0017878.3769186-.0028393z"/></g></g></svg>