<svg height="28" viewBox="0 0 55 28" width="55" xmlns="http://www.w3.org/2000/svg"><path d="m4.08979935 9.69015339c.52659628.00373675 1.05352055.02901477 1.57117896.150102.8566961.20032831 1.4569273.74133301 1.9158199 1.46134451.41876786.6571462.60154318 1.3937533.67914138 2.1626449.05441986.5393836.06354906 1.0784099-.00407261 1.6161999-.1317994 1.048461-.44167286 2.0273799-1.15336775 2.8366614-.47603035.5413344-1.08470743.8292016-1.79519967.9119596-1.09853789.1279288-2.20139439.0637996-3.3024469.0798731-.05802782.0008518-.1161103.0001374-.18928056.0001374v2.9318661h-1.8115721v-12.15397614h.15432174c1.31184409.00002747 2.62371552-.00618213 3.93547761.00318723zm35.88978855.08364553c.1194995-.00065943.1559617.03146015.1533924.15397613-.0078719.37521385-.0025693.75072985-.0024053 1.12613595l.0000273.1833756h-.1863832c-.8925843.0024179-1.7853052-.0040939-2.6776708.0109355-.4699351.0079406-.932545.0858903-1.3670839.282894-.6217149.2818775-.9491908.8004342-1.1328954 1.4317528-.0519326.1785123-.0911553.3607614-.1413386.5618591h5.4923068v1.4586244h-.1689449l-2.5549424-.0004259-2.554922-.0000138c-.2520643.000055-.2143722-.0136006-.2061996.2152754.0222763.6248617.1521351 1.2120812.5935346 1.6935452.2984483.3255644.6695749.502593 1.0932626.5643044.3319585.0483854.6689462.079928 1.0041573.0841868.8879377.0113201 1.776094.0037367 2.6641956.0036543h.1311981v1.447634c-.0475046.00283-.0954193.0082437-.1433339.0082437-1.184008-.0020341-2.3681253.0039282-3.5519966-.0109364-.5557605-.0069789-1.1095257-.0700366-1.6277308-.2955056-.7807379-.3397146-1.2934763-.9482831-1.632842-1.7106628-.4145586-.9313303-.5125472-1.9161291-.4496814-2.9251344.0317335-.5095995.1120103-1.0091427.2809005-1.4905242.5100872-1.4541733 1.5254236-2.3446741 3.020863-2.65400019.4728324-.09781497.9658912-.11927381 1.4507228-.13103359.8375084-.02024989 1.6758367-.00335208 2.5138098-.0081604zm12.4362164-.0534328c.4452534.00598979.8886483.08863794 1.2991889.27970688.6859746.3192999 1.0754416.8736854 1.1906772 1.6130126.0589572.3779614.0871374.7643855.0888321 1.1471552l.0054973 2.9394083-.0009601 3.1900454h-.1875312c-1.503038 0-3.0061579.0076109-4.5091139-.0039565-.5541205-.0042588-1.1115484-.0232173-1.6610496-.0893523-.9655085-.116224-1.6515925-.6515411-1.9747224-1.5700126-.3740785-1.0631607-.2581322-2.0932952.4023134-3.0281149.3274486-.4634122.798395-.7199841 1.3504929-.8003792.4215011-.0613817.8490975-.1040795 1.2746166-.1098495 1.1111111-.0150844 2.2225774-.0053579 3.3339345-.0055227h.1455752c.0054939-.0411043.0161537-.0762188.0138578-.1104815-.023151-.3463089-.0290003-.6952281-.0773796-1.0380475-.0834747-.5917531-.3862143-.8804995-.9816349-.9400677-.3794358-.037972-.7624248-.0524794-1.1439379-.0543753-.5869474-.0029399-1.1745234.0026652-1.7608695.0276685-.2564102.010908-.5103879.0787465-.7528856.1186693-.0856341-.2457463-.1538571-.4986914-.2612755-.7335573-.1052865-.2302773-.2504517-.4421181-.3946602-.6905571.2745866-.04926467.5528085-.13905661.8320964-.14238122 1.2561669-.01497448 2.5127985-.01593615 3.7689381.00098914zm-8.1757557-.0310535c.5090485.00598979 1.0170857.03497709 1.5167317.15526751.9472228.22802427 1.5769189.92899487 1.6894486 1.90148437.0267589.2315138.0335648.4655003.0634944.6965195.0186684.144332-.0437054.1763142-.1696828.2102197-.2352819.063305-.4726138.137518-.6894459.2466806-.3195494.1608451-.5540932.4254126-.7442211.7283093-.023233.0370103-.0485433.0726743-.0925767.1383422 0-.348507.0132838-.6630535-.0041272-.9758691-.0144318-.2585777-.045646-.5197107-.1041112-.7715842-.1013505-.4368427-.4080807-.6851718-.8351851-.7375413-.4675844-.0573701-.9415102-.0627829-1.4392155-.0924021v.2053839c.0001366 2.4451817-.0007653 4.8903909.0034986 7.3355452.0002187.127077-.0309956.1633729-.1574104.1617261-.5055225-.0067334-1.0111818-.0024746-1.5168137-.0028043-.044252-.0000275-.0885314-.0040939-.1359267-.0064569v-9.19534828h.1557977c.8199333-.00002748 1.6399486-.00714379 2.4597453.0025278zm-29.4467768.03253721c.4579087.00739107.9171566.08992932 1.3345578.30207237.656537.333615 1.0367655.880582 1.140084 1.6067207.0564425.3970023.0876567.8009836.0894606 1.20197.0089652 1.9507216.0041273 3.9015256.004182 5.8523022v.2048069h-.2846725c-1.4759784 0-2.9519294.0023904-4.4278804-.0012089-.6005865-.0014288-1.2026764.0067041-1.796293-.1111684-.93530561-.1856836-1.57098762-.7380359-1.86079871-1.6415054-.31659735-.9869695-.20759362-1.9484411.35450814-2.8294352.32815918-.5143803.81933197-.8189255 1.41978187-.9082504.4217198-.0627279.8499722-.1046015 1.2759013-.1102891 1.1204315-.0149745 2.2411911-.0051105 3.3618413-.0051105h.1152903c0-.2955881.004018-.5730144-.0020499-.8502483-.0022687-.1042719-.024381-.2086536-.0433774-.3119089-.1055325-.5737562-.3944689-.8553039-.9726151-.9263846-.2704047-.0332186-.5441167-.054595-.8163527-.0547049-.7010624-.0002199-1.4024801.0046159-2.1030505.0284103-.2513536.008545-.5006846.0771254-.7672354.1209773-.1181056-.5010544-.3036962-.9825733-.6779387-1.42172401.3148207-.05580398.5936713-.14479911.8735605-.14804129 1.2608955-.01458982 2.5223104-.01761219 3.7830965.00272013zm15.0568516-3.86465283c.1101517-.00107415.13661.03404032.1362546.14067511-.0039906 1.16300891-.0030613 2.32610025-.0034713 3.48913664v.19362416h2.6481512v1.45175539h-2.6359333c-.0043186.0630851-.0105505.111553-.0104959.1600209.0011753 1.6574965.0021593 3.3150205.0060679 4.972517.000328.1367761.0134205.2746512.0336742.410026.0724869.4841566.2869685.7004211.7726747.726441.5541478.0296742 1.1099084.0297017 1.6650129.0395656.1756414.0031048.177582-.0013189.1781014.1790893l.0003553 1.2598622c-.0713116.0038192-.1289021.00959-.1864653.00959-.6604456-.0009076-1.3209186.0021148-1.9812822-.0062654-.3638834-.0045885-.730172-.0239042-1.0748676-.1555972-.6424879-.2455266-1.0189991-.7247924-1.1249142-1.3993035-.0628657-.4002171-.0984259-.8087319-.1012685-1.2138122-.0113158-1.6071603-.0048926-3.214403-.0050019-4.8215908v-.1548554h-1.7395772v-1.45453042h1.7417091v-3.81225572c.0430494-.00544027.069617-.01175978.096212-.01178725.5283456-.00035719 1.0567458.0029949 1.5850641-.00230541zm-4.527386 3.83002743c.0224404.00002748.044826.00302238.0800035.00555018v1.44378729h-.1652276c-.9518693-.0004946-1.9037387-.0052204-2.8555807.0002473-.5086933.002885-1.0094326.0698443-1.4707305.303721-.5586851.2832787-.8630373.7681771-1.0201197 1.3574298-.1849073.6936345-.1901279 1.4018038-.1410926 2.111292.0316516.4576971.1163836.9045686.3051449 1.3284151.2912597.654014.7808472 1.047362 1.4889615 1.13883.3328878.0430001.6708595.0597605 1.0067812.0628928.8971215.0083527 1.794407.0054677 2.6916105.0000824.1302961-.0007418.1730175.0336308.1700109.1680165-.0084186.3798023-.002624.7599068-.003116 1.1399015-.0000546.0404997-.0046466.0809446-.0083639.1422713l-.2043956-.0000275c-1.1112204-.002363-2.2226321.0072262-3.3336065-.0117323-.660473-.0112927-1.317912-.0846814-1.933149-.3572994-.6383879-.2828666-1.086976-.7713369-1.4203831-1.3721296-.5543666-.9988666-.7162869-2.0786778-.6379507-3.2069295.0440334-.634341.1643803-1.2517292.4220752-1.8330963.475101-1.0717882 1.2128442-1.8688703 2.3644353-2.21391529.5142691-.15411352 1.0452113-.19851492 1.5768915-.2042849 1.0291396-.01112783 2.0585252-.00326966 3.0878014-.00302238zm-23.35061166 1.44613167c-.13423203-.0018608-.16645755.0402326-.16583786.16981l.00322629 1.4904211-.00051137 1.4904624c0 1.0073567.00183131 2.0147409-.00248729 3.0220976-.000492.1183946.02807092.1580976.15164311.1560918.45539398-.007391.9113073.0076109 1.36640062-.0060172.41753788-.0125017.83750839-.0269816 1.25064566-.0832252.79711031-.1084757 1.34898955-.5404002 1.58520075-1.3311902.30686684-1.0272769.35117352-2.0701053.13147141-3.1184838-.11477099-.5476539-.36888526-1.0210399-.84907022-1.3415762-.49286744-.3289715-1.05327455-.4199999-1.62617281-.4364031-.61441699-.0176672-1.22973597-.0031323-1.84450829-.0119872zm10.24086266 3.6060441c-.2376326.0026102-.480841.0474787-.710465.1124048-.3716732.1051511-.6360373.3390552-.7363218.7334473-.0744823.2928954-.0762589.586725-.0304762.8822855.062729.4052452.2789599.698168.6705588.8208763.2403385.0752846.4963114.1345231.746271.1384797 1.0873041.0173649 2.1749908.0103859 3.2625135.0167432.1072545.0006217.1383867-.0277886.1377408-.1382151-.0048207-.8005715-.0024701-1.6012255-.0023608-2.4018794v-.161065c-.0479693-.0042863-.0747829-.0087374-.1016238-.0087374-1.0786395-.0000824-2.1573337-.006292-3.2358365.0056601zm37.8439565-.0033246c-.2353092.0015387-.4734338.0204422-.704807.0620685-.4468115.0804226-.8096288.2893784-.9398429.763259-.092112.335236-.0938886.6785775-.0115892 1.0179625.0740723.3056717.2472811.5308385.5384315.6655539.2874331.1330118.591102.1840075.9008114.1866177 1.070139.0089847 2.1403326.0082703 3.2104989.0108.0431314.000108.0862901-.0045904.1279728-.0069808v-2.7020559h-.1567543c-.9882769 0-1.9765264-.0038467-2.9647212.0027751zm-9.9593116-7.23443033c.0015853.00445113.0031433.00890226.0047286.01338087-3.0630377.43447977-6.1260755.8690145-9.2013584 1.30525274v-1.31863361zm-9.206497-1.66070298c3.0887308.43832643 6.1555404.87357554 9.2223228 1.30879717-.0006287.00695146-.001312.01387544-.001968.02082689l-9.0290516.00003886c-.1674859 0-.188338-.00017701-.190934-.13090988z" fill="#fff" fill-rule="evenodd"/></svg>