<svg height="29" viewBox="0 0 174 29" width="174" xmlns="http://www.w3.org/2000/svg"><path d="m185.83694 2739.04107c2.917982.25287 5.03552 1.36536 7.570368 3.43298l-3.426587 3.47814c-1.535664-1.15299-2.844674-1.78209-4.143781-1.9182-3.082309-.32295-4.454148 1.17976-4.325981 3.17639.092067 1.43425 2.310259 3.07895 4.732751 3.90367l.242859.0797c1.547534.48888 2.929554 1.10813 4.208607 2.06546 2.043005 1.52913 3.304824 3.63285 3.304824 6.29552 0 5.18536-3.648938 8.44527-8.543813 8.44527-3.873062 0-7.800389-2.2054-9.813987-5.75636l3.468327-3.776c.796267 2.63163 3.604912 4.53944 6.34566 4.53944 2.513115 0 3.91821-1.25529 3.91821-3.45235 0-1.48544-1.525497-2.67845-3.926513-3.48422l-.260573-.08485c-4.267599-1.34816-8.009611-4.04828-8.290891-8.43015-.337586-5.25904 3.434246-8.99161 8.94052-8.51444zm-75.703589.45822 12.63 19.465.000781-19.465h4.98855l-.000331 27.96h-5.426l-12.533-19.318.000551 19.31835h-4.988551v-27.96035zm40.566661 0v4.99292l-11.97307-.00092v6.491l10.97536.00072v4.99292l-10.97536-.00064v6.491l11.97307.00043v4.99292h-16.96107v-27.96035zm-48.887791 0v4.99292l-5.9870699-.00092.0008102 22.96835h-4.9885501l-.0002601-22.96835-5.986.00092v-4.99292zm-72.3339758 0c4.6836702 0 8.4805351 3.80019 8.4805351 8.48797 0 4.68777-3.7968649 8.48796-8.4805351 8.48796l-4.4902452-.00093.0005501 10.98535h-4.9885501v-27.96035zm135.6885628 0c4.68367 0 8.480535 3.80019 8.480535 8.48797 0 4.13517-2.954468 7.57968-6.86592 8.33431l8.085211 11.13806h-6.166l-7.974072-10.98534h-.05l.00055 10.98535h-4.98855v-27.96035zm-90.7916121 0c4.6836703 0 8.4805352 3.80019 8.4805352 8.48797 0 4.13517-2.9544675 7.57968-6.8659199 8.33431l8.0852116 11.13806h-6.166l-7.974072-10.98534h-.05l.0005501 10.98535h-4.9885501v-27.96035zm-23.6298356 0 11.347303 27.96035-5.407303-.00088-2.025-4.993.0207589.00004-5.6530249-13.93324-5.6540227 13.93324 5.9022887-.00004 2.025 4.993-15.338.00088 11.346-27.96035zm-21.2671151 4.99292h-4.4896951v6.99009h4.4896951c1.9285701 0 3.491985-1.56479 3.491985-3.49504 0-1.86592-1.4609244-3.39032-3.3003896-3.48988zm135.6885628 0h-4.489696v6.99009h4.489696c1.92857 0 3.491985-1.56479 3.491985-3.49504 0-1.86592-1.460925-3.39032-3.30039-3.48988zm-90.7916121 0h-4.489695v6.99009h4.489695c1.9285701 0 3.4919851-1.56479 3.4919851-3.49504 0-1.86592-1.4609244-3.39032-3.3003896-3.48988z" fill="#fff" transform="translate(-20 -2739)"/></svg>