<svg xmlns="http://www.w3.org/2000/svg" viewBox="0 0 58 541" width="58" height="541">
	<defs>
		<clipPath clipPathUnits="userSpaceOnUse" id="cp1">
			<path d="M-269 -150L326 -150L326 692L-269 692Z" />
		</clipPath>
	</defs>
	<style>
		tspan { white-space:pre }
		.shp0 { fill: #e4ff5d } 
	</style>
	<g id="Page 1" clip-path="url(#cp1)">
		<path id="Path 1 copy" fill-rule="evenodd" class="shp0" d="M6.99 74.24L6.99 20.93L3.08 20.93L0.42 18.27L21.82 18.27L21.82 6.27L5.71 6.27L3.05 3.6L24.48 3.6L24.48 18.27L29.98 18.27L32.65 20.93L27.15 20.93L27.15 87.03L24.48 84.37L24.48 76.91L3.17 76.91L0.5 74.24L6.99 74.24ZM24.48 20.93L9.65 20.93L9.65 36.8L24.48 36.8L24.48 20.93ZM9.66 55.33L24.48 55.33L24.48 39.47L9.66 39.47L9.66 55.33ZM9.66 74.24L24.48 74.24L24.48 58L9.66 58L9.66 74.24ZM53.05 306.21L55.71 308.88L28.67 308.88L6.57 371.44L3.74 371.44L25.84 308.88L4.62 308.88L1.95 306.21L53.05 306.21ZM30.17 325.43L30.17 388.42L27.5 385.75L27.5 322.76L30.17 325.43ZM4.4 457.55L53.27 457.55L53.27 540.29L44.16 540.29L41.5 537.63L50.6 537.63L50.6 460.21L7.06 460.21L7.06 540.97L4.4 538.31L4.4 457.55ZM41.72 523.96L16.17 523.96L16.17 489.59L41.72 489.59L41.72 523.96ZM39.05 492.26L18.84 492.26L18.84 521.3L39.05 521.3L39.05 492.26ZM45.05 476.65L15.73 476.65L13.06 473.98L42.38 473.98L45.05 476.65ZM33.77 87.03L42.88 68.01L35.92 53.38L35.92 18.27L38.59 20.93L38.59 53.07L44.31 65.02L50.03 53.07L50.03 12.49L35.92 12.49L35.92 0.94L38.59 3.6L38.59 9.82L57.25 9.82L54.58 12.49L52.69 12.49L52.57 53.95L45.79 68.11L54.85 87.03L51.91 87.03L44.35 71.11L36.72 87.03L33.77 87.03ZM24.3 175.44L55.71 175.44L55.71 239.3L39.5 239.3L36.83 236.64L53.05 236.64L53.05 178.1L23.92 178.1L15.33 239.3L5.95 239.3L3.29 236.64L13.01 236.64L21.23 178.1L5.95 178.1L3.29 175.44L21.61 175.44L24.45 155.19L27.14 155.19L24.3 175.44ZM7.63 156.96L10.38 156.96L13.18 167.99L10.43 167.99L7.63 156.96ZM37.55 218.2L31.83 193.4L34.57 193.4L40.29 218.2L37.55 218.2ZM40.27 325.85L53.76 371.44L51.03 371.44L37.54 325.85L40.27 325.85Z" />
	</g>
</svg>