<svg height="57" viewBox="0 0 659 57" width="659" xmlns="http://www.w3.org/2000/svg"><path d="m469.28703 0 .000849 37c0 5.5228475 4.470369 10 9.984848 10 5.369362 0 9.748843-4.2446134 9.975624-9.5662208l.009225-.4337792-.000546-37h9.985l.000394 37c0 11.045695-8.940738 20-19.969697 20s-19.969697-8.954305-19.969697-20v-37zm-414.6886967 0 25.28 38.986.0004546-38.986h9.9848485l-.0003031 56h-10.859l-25.087-38.69.0008485 38.69h-9.9848485v-56zm313.5242427 0 25.28 38.986.000454-38.986h9.984849l-.000303 56h-10.859l-25.087-38.69.000848 38.69h-9.984848v-56zm197.019848 0v56h-9.984848v-56zm-531.1939392 0v10h-23.9644848v13h21.9675152v10h-21.9675152v13h23.9644848v10h-33.9484848v-56zm185.7181822 0v10h-23.964485v13h21.967515v10h-21.967515v13h23.964485v10h-33.948485v-56zm129.80303 0v10h-23.964485v13h21.967515v10h-21.967515v13h23.964485v10h-33.948485v-56zm99.848485 0v10h-23.964485v13h21.967515v10h-21.967515v13h23.964485v10h-33.948485v-56zm-317.518182 0v10h-11.982485l.000667 46h-9.984849l-.000818-46h-11.9809998v-10zm507.230303 0-.000848 46h19.970545v10h-29.954545v-56zm-392.404545 0c9.374615 0 16.974242 7.61115925 16.974242 17 0 9.3888407-7.599627 17-16.974242 17h-8.987213l.000849 22h-9.984849v-56zm283.569697 0c9.374615 0 16.974242 7.61115925 16.974242 17 0 8.2814499-5.912635 15.1798342-13.74074 16.691921l16.182557 22.3078129h-12.342l-15.959272-21.9997339h-.102l.000849 22h-9.984849v-56zm-239.636364 0c9.374615 0 16.974242 7.61115925 16.974242 17 0 8.2814499-5.912635 15.1798342-13.740739 16.691921l16.182557 22.3078129h-12.342l-15.959272-21.9997339h-.102l.000848 22h-9.984848v-56zm-131.8 0c9.374615 0 16.974242 7.61115925 16.974242 17 0 8.2814499-5.912635 15.1798342-13.740739 16.691921l16.182557 22.3078129h-12.342l-15.959272-21.9997339h-.102l.000848 22h-9.984848v-56zm441.962242 0 22.711191 56-10.824191-.0000728-4.051-10.002.040591.0002328-11.31483-27.906-11.316828 27.906 11.816067-.0002328 4.051 10.002-30.7.0000728 22.71-56zm-354.095575 10h-8.986364v14h8.986364c3.860135 0 6.989394-3.1340068 6.989394-7 0-3.7371268-2.924118-6.7902529-6.605906-6.9896423zm283.569697 0h-8.986364v14h8.986364c3.860135 0 6.989393-3.1340068 6.989393-7 0-3.7371268-2.924118-6.7902529-6.605905-6.9896423zm-239.636364 0h-8.986364v14h8.986364c3.860136 0 6.989394-3.1340068 6.989394-7 0-3.7371268-2.924118-6.7902529-6.605906-6.9896423zm-131.8 0h-8.986364v14h8.986364c3.860136 0 6.989394-3.1340068 6.989394-7 0-3.7371268-2.924118-6.7902529-6.605906-6.9896423z" fill="#fff" opacity=".1"/></svg>