<svg height="56" viewBox="0 0 170 56" width="170" xmlns="http://www.w3.org/2000/svg"><path d="m82 198v10h-24v12.999l22 .001v10l-22-.001v13l24 .001v10l-24-.001v.001h-10v-56zm68 0v45.999l20 .001v10l-20-.001v.001h-10v-56zm-36.366 0 22.744552 56-10.839552-.000073-4.059-10.002.041441.000233-11.332-27.906-11.3339996 27.906 11.8335586-.000233 4.057 10.002-30.746.000073 22.744-56zm-94.634 0c9.3888407 0 17 7.611159 17 17 0 8.28145-5.9216075 15.179834-13.7615905 16.691921l16.2068005 22.307813h-12.36l-15.98421-21.999734h-.101v22h-10v-56zm0 10h-9l-.001 1.999.001.001v11.999l9 .001c3.8659932 0 7-3.134007 7-7 0-3.737127-2.9285552-6.790253-6.6159296-6.989642z" fill="#fff" opacity=".1" transform="translate(0 -198)"/></svg>