<svg height="58" viewBox="0 0 214 58" width="214" xmlns="http://www.w3.org/2000/svg"><path d="m103.371094 111c4.388034 0 8.494652.893605 12.325236 2.688281 3.451802 1.692515 6.827413 4.3643 10.13239 8.008147l-7.020033 6.789408c-4.176821-4.824631-9.71927-7.51995-15.296968-7.51995-5.4763666 0-10.0350206 1.572257-13.7421122 5.323298-3.6996747 3.677138-5.6973595 8.268527-5.6973595 13.833113 0 5.731525 2.2045106 10.412743 6.3255195 14.110138 3.877808 3.453173 8.038307 4.828479 12.5162962 4.828479 3.791782 0 7.184672-.932056 10.213862-3.481282 2.618106-2.222281 4.217737-4.794396 4.824189-7.742973.008453-.041101-3.073919-.047963-9.247118-.020585l-4.057996-9.911074 23.849183.000415v2.775956c0 4.147088-.493472 7.831563-1.489698 11.067299-.980665 3.021544-2.632125 5.842321-4.950222 8.46156-5.230225 5.851183-11.358513 8.78977-19.42345 8.78977-7.8623211 0-14.6221907-2.832746-20.2248693-8.473618-5.5978163-5.660059-8.4079437-12.479356-8.4079437-20.404085 0-8.0904 2.859152-14.98312 8.554612-20.619795 5.6960874-5.66139 12.6538577-8.502502 20.816482-8.502502zm44.628906 1.987817v55.65888h-10v-55.65888zm86 0v9.939086l-24-.000086v12.92l22 .000897v9.939086l-22-.000983v12.921l24 .000794v9.939086h-34v-55.65888zm-64 0v45.719l20 .000794v9.939086h-30v-55.65888zm-120.367 0 22.745552 55.65888-10.840552-.000291-4.058-9.941.0414414.000376-11.332-27.736012-11.334 27.736012 11.8335586-.000376 4.058 9.941-30.747.000291 22.745-55.65888z" fill="#fff" opacity=".1" transform="translate(-20 -111)"/></svg>