<svg height="59" viewBox="0 0 312 59" width="312" xmlns="http://www.w3.org/2000/svg"><path d="m32.4036054 114.080743c5.8403201.505773 10.0784847 2.73099 15.1520413 6.866708l-6.8574724 6.95677c-3.0739987-2.306599-5.6941963-3.565132-8.2945689-3.837399-6.1689385-.645907-8.9145388 2.359583-8.658025 6.352941.1842627 2.868568 4.6237545 6.158044 9.472135 7.807524l.4860585.159405c3.0972359.977776 5.8632128 2.216321 8.4231105 4.131028 4.0888737 3.058322 6.6142799 7.265863 6.6142799 12.591343 0 10.370953-7.30299 16.890937-17.0995988 16.890937-7.7518132 0-15.612239-4.411198-19.6421351-11.513723l6.9414619-7.552975c1.5930289 5.264179 7.2148091 9.080619 12.7006732 9.080619 5.0297524 0 7.8419101-2.510646 7.8419101-6.904858 0-2.970961-3.0531319-5.357035-7.858529-6.968618l-.5215098-.169697c-8.5411791-2.696391-16.030448-8.096752-16.5934019-16.860714-.6756454-10.518321 6.8733055-17.983647 17.8935705-17.029291zm266.5112766-1.080743c4.381053 0 8.481138.89783 12.305629 2.700991 3.446475 1.7006 6.816874 4.385193 10.116744 8.046538l-7.009669 6.820598c-4.170138-4.847201-9.703624-7.555121-15.272303-7.555121-5.467654 0-10.019056 1.579691-13.72025 5.348467-3.693788 3.694524-5.688295 8.307622-5.688295 13.898518 0 5.758624 2.201003 10.461975 6.315456 14.176852 3.871639 3.4695 8.025519 4.851309 12.496384 4.851309 3.78575 0 7.173242-.936463 10.197613-3.497742 2.613941-2.232789 4.211028-4.817064 4.816514-7.779583.00844-.041294-3.068802-.04819-9.231726-.020686l-4.053465-9.958141 23.812486.000627v2.789081c0 4.166696-.492687 7.868591-1.487328 11.119626-.979105 3.035831-2.627938 5.869944-4.942347 8.501568-5.221904 5.878848-11.340443 8.831329-19.39255 8.831329-7.849812 0-14.598928-2.84614-20.192693-8.513683-5.588911-5.68682-8.394568-12.538359-8.394568-20.500557 0-8.128652 2.854604-15.053962 8.541003-20.717288 5.687026-5.688158 12.633727-8.542703 20.783365-8.542703zm-74.571278.998608 25.278 38.931.000728-38.931h9.984091l-.000819 55.922h-10.857l-25.085-38.635.000091 38.635041h-9.984091v-55.922041zm-20.648091 0v55.922041h-9.984091v-55.922041zm-113.8186384 0v9.986079l-23.9619098-.000079v12.981l21.9650916.000981v9.986079l-21.9650916-.00006v12.981l23.9619098.000962v9.986079h-33.9459098v-55.922041zm26.9570464 0c9.373904 0 16.972954 7.600563 16.972954 16.976334 0 8.269921-5.912186 15.158702-13.739697 16.668684l16.181545 22.276294h-12.341l-15.958576-21.969312h-.101l.000092 21.970041h-9.9840915v-55.922041zm49.667773.000307-4.051 9.988-11.815192-.000391 11.315968 27.867152 11.313973-27.867152-.040749.000391 4.051-9.988 10.823223-.000307-22.709223 55.922041h-6.878l-22.708-55.922041zm-49.667773 9.985772h-8.985682v13.98051h8.985682c3.859842 0 6.988863-3.129644 6.988863-6.990255 0-3.731924-2.923896-6.7808-6.605404-6.979912z" fill="#fff" opacity=".1" transform="translate(-12 -113)"/></svg>