<svg height="56" viewBox="0 0 256 56" width="256" xmlns="http://www.w3.org/2000/svg"><path d="m119 118v56h-10v-56zm96 0v10h-24v12.999l22 .001v10l-22-.001v13l24 .001v10l-24-.001v.001h-10v-56zm-59.254.000073-4.057 10.002-11.833559-.000233 11.334 27.906 11.332-27.906-.041441.000233 4.059-10.002 10.839552-.000073-22.744552 56h-6.89l-22.744-56zm-130.746-.000073c15.463973 0 28 12.536027 28 28s-12.536027 28-28 28h-14v-56zm214 0c15.463973 0 28 12.536027 28 28s-12.536027 28-28 28h-14v-56zm-157 0c9.3888407 0 17 7.611159 17 17 0 8.28145-5.9216075 15.179834-13.7615905 16.691921l16.2068005 22.307813h-12.36l-15.98421-21.999734h-.101v22h-10v-56zm-57 10h-4v36h4c9.9411255 0 18-8.058875 18-18 0-9.763605-7.7736274-17.711583-17.4692755-17.992326zm214 0h-4v36h4c9.941125 0 18-8.058875 18-18 0-9.763605-7.773627-17.711583-17.469275-17.992326zm-157 0h-9v14h9c3.8659932 0 7-3.134007 7-7 0-3.737127-2.9285552-6.790253-6.6159296-6.989642z" fill="#fff" opacity=".1" transform="translate(-11 -118)"/></svg>