<svg height="58" viewBox="0 0 529 58" width="529" xmlns="http://www.w3.org/2000/svg"><path d="m154.126592.08213335c5.837985.50576419 10.074442 2.73095974 15.145984 6.86664182l-6.854798 6.95650383c-3.072745-2.3065431-5.691874-3.5650462-8.291186-3.8373066-6.166424-.64589096-8.910904 2.3595263-8.654495 6.3527886.184187 2.8684991 4.621869 6.1578962 9.468273 7.8073364l.48586.1594011c3.095973.9777527 5.860822 2.2162683 8.419676 4.1309289 4.087206 3.0582493 6.611583 7.2656884 6.611583 12.591041 0 10.3707046-7.300012 16.8905316-17.092627 16.8905316-7.748287 0-15.605132-4.410677-19.633556-11.5124431l6.938062-7.5537973c1.592379 5.264053 7.211867 9.0804013 12.695494 9.0804013 5.027702 0 7.838713-2.5105856 7.838713-6.9046925 0-2.97089-3.051887-5.3569067-7.855325-6.9684504l-.521297-.1696932c-8.537696-2.6963268-16.023911-8.0965575-16.586636-16.8603092-.67537-10.51806894 6.870503-17.9832154 17.886275-17.02888225zm164.236049-.08213335c15.984258 0 28.942058 12.9653561 28.942058 28.9589333 0 15.9935773-12.9578 28.9589334-28.942058 28.9589334-15.984257 0-28.942058-12.9653561-28.942058-28.9589334 0-15.9935772 12.957801-28.9589333 28.942058-28.9589333zm-220.5584641.99858391.0000201 36.94760459c0 5.5150266 4.468207 9.9858391 9.98002 9.9858391 5.366765 0 9.744129-4.2386027 9.9708-9.5526741l.00922-.433165-.00006-36.94760459h9.98l.00008 36.94760459c0 11.0300533-8.936414 19.9716782-19.96004 19.9716782-11.0236257 0-19.9600401-8.9416249-19.9600401-19.9716782v-36.94760459zm349.3007231 0-.00002 23.96599999h19.96l.000061-23.96599999h9.98002v55.92069879h-9.98002l-.000061-21.9696988h-19.96l.00002 21.9696988h-9.98002v-55.92069879zm-413.1728317 0v9.98583909l-11.9760683-.0008391.0000442 45.9356988h-9.9800201l-.0000241-45.9356988-11.976.0008391v-9.98583909zm175.6483537 0v9.98583909l-11.976068-.0008391.000044 45.9356988h-9.98002l-.000024-45.9356988-11.976.0008391v-9.98583909zm221.556446 0v9.98583909l-11.976068-.0008391.000044 45.9356988h-9.98002l-.000024-45.9356988-11.976.0008391v-9.98583909zm-372.2547494 0c9.3700819 0 16.9660342 7.60038115 16.9660342 16.97592639 0 8.2697226-5.9097762 15.1583382-13.734095 16.6682837l16.1748527 22.2764582h-12.336l-15.9528301-21.9696683h-.1l.0000201 21.9696988h-9.9800201v-55.92069879zm317.3646394 0c9.370082 0 16.966034 7.60038115 16.966034 16.97592639 0 8.2697226-5.909776 15.1583382-13.734095 16.6682837l16.174853 22.2764582h-12.336l-15.95283-21.9696683h-.1l.00002 21.9696988h-9.98002v-55.92069879zm118.492214 0 11.277987 18.40589859 11.276013-18.40589859h11.707l-17.994 29.36899999.000997 26.5516988h-9.98002l-.000977-26.5526988-17.993-29.36799999zm-270.667541 0 11.750456 35.88710849 8.718999-26.6387642 3.027545-9.24834429h4.446l3.029429 9.24834429 8.722083 26.6387642 11.749488-35.88710849h10.501l-18.308 55.91999999h-7.887l-10.029058-30.632401-10.027942 30.632401h-7.886l-18.307-55.91999999zm94.29121 8.98725517c-10.472444 0-18.962038 8.49454362-18.962038 18.97309422s8.489594 18.9730943 18.962038 18.9730943c10.472445 0 18.962038-8.4945437 18.962038-18.9730943s-8.489593-18.97309422-18.962038-18.97309422zm57.884117.99858392h-8.982018v13.9801747h8.982018c3.858269 0 6.986014-3.1295687 6.986014-6.9900874 0-3.7318347-2.922704-6.7806372-6.602711-6.9797443zm-317.3646394 0h-8.9820181v13.9801747h8.9820181c3.858269 0 6.9860141-3.1295687 6.9860141-6.9900874 0-3.7318347-2.922704-6.7806372-6.6027111-6.9797443z" fill="#fff" opacity=".1"/></svg>