<svg height="29" viewBox="0 0 59 29" width="59" xmlns="http://www.w3.org/2000/svg"><path d="m21.3071566 8.63304066c.3430573.12662295.6841491.04288524 1.0228822.08144262.0923162.0104918.1983914-.0212459.2540825.1009836.0110072.0242623.0883851.02472132.1352967.02524591.2783901.00340983.5568457.00288524.8352358.00518032.1867291.0015082.264369.0777705.264369.25822951 0 2.40426228-.000262 4.80852458-.000131 7.21272128.0000655.1420984.0013759.2841312.0052415.426164.003407.1261639.0645362.2121311.1786702.2713442.0364286.0188853.0408184.0987541.0773779.1185574.139752.0758689.2863835.1391475.4310493.2057705.0191971.0088525.0581154.005377.0608672.0151475.0504496.1819673.2033708.0799345.3063011.1152132.4332115.1485245.8805095.0861639 1.3224349.0907541.1759184.0017704.3490851.0239344.5294588-.0731148.1240929-.0668197.3101668-.0139016.468002-.0239344.0960508-.0060984.1898084.012459.2734106-.0963279.0440943-.0574426.1996363-.0291147.2665967-.0357377.2544102.3780328.1205549.7857049.1978673 1.1592787.05366.2598033.0704984.512918.0820953.7723934.0068139.1516066-.0881886.2049836-.205271.2222951-.1233067.0181639-.2505445.0083279-.3758823.0144262l-.0934373-.0014523c-.0621266.0000097-.1206132.011813-.1556003.0944359-.008845.0209181-.0685328.025705-.10542.0283935-.4870025.0356721-.9738084.080459-1.4614661.100459-.3923931.0160656-.7955969.0536394-1.1760655-.0162623-.2983079-.0548197-.5915708-.0586229-.8874544-.0819672-.0107451-.0008525-.0285008-.0003279-.0309905-.0058361-.0889092-.1969836-.2669243-.0998688-.4064142-.1197377-.1803082-.0257049-.3494781-.0676065-.4844472-.1991475-.0074037-.0072131-.0184108-.0121312-.0285663-.0149508-.1512178-.0420328-.3026321-.083541-.4398943-.1520656-.0532014-.0319344-.1064684-.0638689-.1596698-.0958033-.0526117-.0316065-.1031268-.0676065-.1582283-.0939016-.1767701-.0841967-.3482988-.1887869-.462826-.3407869-.0678121-.0899016-.2030432-.1367869-.2025191-.2944262.0001966-.0628197-.1164927-.1260328-.2069089-.216-.02778-.0937705-.0261421-.2881968-.1164272-.351541-.1826669-.1281967-.0516945-.3047213-.1226515-.4226885-.1632733-.2712132-.0710226-.5573771-.087861-.8353443-.0174935-.2885246-.0038656-.5789508-.0038656-.8685246l.0000655-6.99154098c.2323303 0 .4700986-.05763935.6606933.01265574zm12.6757583-.01445902c.3275293.01488524.6532241.06819672.9798362.104.129531.23272131.4217456.01921311.5720461.20721311.0184763.02308197.0868781-.00045901.1258619.01429509.062112.02347541.1188514.06111475.1780151.09265573.0216867.01154099.0435046.03265574.0653879.03278689.1482039.00078688.2369166.09901639.3406986.18518033.1121685.09304918.2409788.16963934.3714271.23586885.1387036.0704918.2323302.18052459.2540825.33003279.2618138.17390163.3929828.41599997.4993201.68957377.0272559.0641967.0598188.1267541.0805883.1929836.0399666.1273443.0353802.3264918.1171479.3708852.169301.092.0645362.2306886.1187859.3248525.1151168.1999344.0298111.4360656.1083684.6190164.1387692.3231475.0412769.6476066.0893679.9663607.0093036.0619672.0531358.1180327.0752157.1789508.0179522.0497049.0381976.1024918.0385252.1539672.0033415.5299672.0032104 1.06.0026207 1.5899672-.0000655.0375082.0020311.096-.0190005.1090492-.1433555.0888524-.089892.2287869-.098737.3507541-.0074692.1033442.0030793.2081311-.0065519.3111475-.0317112.3410492-.0360355.6899017-.1186549 1.0187541-.0382631.1523279-.0130383.3488525-.0956577.4432787-.1115788.127541-.0921852.2584918-.1321517.3872131-.0199833.064459-.0489427.1279345-.0847161.1850492-.0264696.0424262-.0703673.0739672-.0817021.1207213-.093168.1723279-.1700873.3563935-.2839592.5137049-.1099409.1518033-.2579482.2760656-.4064797.3951476-.0271904.1143606-.0696467.1999344-.2235507.2041967-.0622431.0017049-.1347726.0639344-.1810945.117377-.1171479.1349509-.3189463.1388853-.4207628.2283935-.1520695.1335082-.3611405.0329836-.4803851.1910164-.0194591.0257049-.0939542.0068852-.1420451.0144918-.1081718.0171147-.2477927-.0521967-.3057115.1131147-.0056346.016-.0701053.0148853-.1073856.0156066-.1527902.0030164-.3190118-.0352131-.4560775.0120656-.4944062.1705573-.9993608.0481967-1.4972395.0860328-.1410623.0106885-.2931318.0307541-.4238422-.0081968-.3087254-.092-.6217095-.0865573-.9358074-.0950164-.0159866-.0003934-.0429805-.0009836-.0461254-.008918-.0731847-.1868197-.2375717-.0887213-.3608129-.1179672-.1400141-.0332459-.3200602-.0272131-.4095591-.1139016-.1379174-.1335738-.3439091-.1152132-.4472325-.2245246-.1134788-.1199345-.2675794-.1190164-.3769306-.2224263-.1219308-.1152787-.2836316-.1847868-.3893792-.3236721-.0756744-.0994098-.1579663-.1895738-.2240749-.3003934-.0551015-.0923279-.0260766-.2566558-.1902016-.3003279-.0499254-.0132459-.0721364-.1405902-.1019475-.2176393-.051891-.1340984-.0745606-.288-.1556731-.4001312-.102144-.1410492-.0278455-.332918-.1044372-.4264918-.1523316-.1860984-.0554946-.3999344-.1301207-.5700984-.1584903-.3611803-.0077967-.7390819-.0991957-1.089377-.1584904-.6077377-.0958542-1.2228853-.0606705-1.8259016.0251592-.4308197.0292214-.8696394.0963784-1.2947541.0293525-.185705.0652569-.3724591.0805228-.5620984.0020311-.024918.0305973-.0480656.0478943-.0712787.0210316-.0281967.0562808-.0528525.0627017-.0838688.0418666-.2008525.0726605-.4040656.1187859-.6038689.0110072-.0477377.0661086-.0852459.1154444-.1450492.0422597-.1363279.0699087-.3041967.2025191-.4384918.0657156-.0665574.0835367-.1778361.1354277-.2611147.0813091-.13055742.1590146-.26813119.2646312-.37711479.0946093-.09763935.2285301-.15586886.3380778-.24059017.0703019-.05436065.1280241-.12504918.1911844-.18872131.0105485-.01062295.0177556-.02963934.0298111-.03298361.1365415-.03783606.2749831-.06911475.4099522-.11154098.0511048-.01606557.0950025-.0557377.1409968-.08636066.0120555-.008.0180177-.03003278.0298111-.03285245.1527903-.03678689.3058426-.07278689.4595501-.10570492.1096132-.02360656.2567033.05895082.3139669-.11508197.0038001-.01140984.0505151-.0092459.0773124-.01226229.8195112-.09383607 1.6417088-.13436066 2.4656098-.09698361zm8.2055759.23339672c.0026208.05698361.006814.10452459.0068795.15206557.0021622 2.36059017.0024242 4.72118037.010221 7.08170497.0004586.1307541-.0902851.3083934.1146582.3876721.0077312.0030164.0100899.0307541.0083209.0462295-.0259455.2272787.1274999.3911475.2095297.579082.0221454.0506229.0864195.0944262.1413899.1167213.1187204.0483278.2427478.0852459.3669717.117836.0718088.0188197.1677941-.0273442.1935431.0959345.0038001.0181639.0768537.0308196.1178686.0309508.4148661.000918.8296667-.0012459 1.2445328-.002623.0108761 0 .0271249.0034754.0319077-.0021639.1953776-.2327869.4605329-.0672787.6869009-.1212459.0105486-.0025574.0212281-.0042623.0561498-.011082v-8.47049178h2.8439818v10.59836068c-.0896299.0622295-.1545592.1165246-.227875.1544918-.03977.0205901-.0938886.0175082-.1415209.0180328-.540466.0056393-1.0887287-.0465574-1.6196944.0265573-1.0422103.1436066-2.0833067.037705-3.1240755.0664919-.148597.0041311-.2977837-.0680656-.4488704-.0843279-.1567869-.0168525-.3872827.0558688-.4602053-.024459-.1720528-.1895738-.4315079-.0114099-.5825946-.1975082-.0251593-.0309509-.1170824-.0002623-.1739529-.0144918-.0666983-.0166558-.1289413-.0512787-.1871222-.0987541-.1616353-.0375738-.3050563-.086164-.4229904-.2265574-.0597533-.0711476-.1930844-.0749508-.2736728-.1353443-.1482039-.1109508-.3459401-.1520655-.4117212-.3831475-.0376734-.132459-.2025846-.2286558-.326481-.3580984-.0315801-.1053114-.0372148-.3203934-.1189824-.3549508-.167401-.0707541-.060343-.2622951-.1988501-.319541-.0198523-.0081967-.0150039-.081377-.0176901-.1246557-.0047174-.0774426.0228661-.1655738-.0893024-.1987541-.0192626-.0057049-.0338078-.0550164-.0364941-.0853771-.0423252-.4795409-.1196376-.953836-.1169573-1.4399344.0125201-2.1801967.0049199-4.360459.0046578-6.5407213v-.27790164zm-25.5463502-.22154754c.4300009.07554098.8565949.06478688 1.2850235.08714754l.0363023.00190407c.005193.00103946.0092115.00277353.0109369.00570249.1236998.21068852.326612.08603278.4918509.11606557.2190954.03980328.4436289.05573771.6575483.11298361.0631603.01691803.1337242.13626229.1395554.2132459.017297.22813115.0579188.47580328-.0089106.68432787-.1305137.40740983-.0551014.81600003-.0870091 1.22222953-.0104176.1319344-.0944784.1259672-.1831256.1259016-.5022684-.000459-1.0045368-.0024918-1.5068052-.0022295-.6770075.000459-1.3539495.0019672-2.0308915.004918-.0639465.0002623-.1459107-.030295-.1647147.0807869-.0034725.0205902-.0610636.0441312-.0944783.0454426-.1402761.0053115-.196819.0956722-.2337717.2196066-.0612602.0064262-.1248791.0130492-.1981949.0207213-.005176.0689181-.0100244.1326558-.0148072.1963935l-.0418012-.0139017c-.0275834.0582951-.0639465.1140984-.0812435.1753443-.0642741.2271475-.1239619.4557377-.181422.6847869-.0131038.0520655-.0140211.1081967-.0140866.1624918-.0007207.9398033-.0200488 1.8803934.0140866 2.8189508.0079933.2199344.088123.4494426.0857643.6817705.1602594.0249836.0195902.272918.2069089.2826229.0078623.0004591.0091072.0600656.0198523.0897705.0140866.038623.0256179.0851804.0541187.1100328.065781.0573771.1381139.1090492.2135918.1530492.0707605.0412459.1643216.0532459.2213886.1065574.266007.2483934.5861982.1101639.8762507.1169836.8674711.020459 1.7358595.0046557 2.6038548-.0001312.0904162-.0005246.1807668.0196722.2546722-.0917377.0336113-.0505574.1795875-.0264262.2769487-.0363934.0317112.1049836-.0180177.237377.134576.252.0054381.0005901.0096313.0290492.0117279.044918.0022276.0161312.0005896.0327213.001638.0490492.0364285.5634098.0716122 1.1268197.1102684 1.6900984.0132348.1922623-.0056347.2121311-.1949845.2272131-.0583119.0046557-.1130857.0499672-.1702183.0750164-.0430459.0188852-.0858298.044459-.1310379.0510164-.1478108.0216393-.2986354-.027082-.4427117.0878688-.06755.0539016-.2118228.0061639-.3201912.0159344-.0910713.0082623-.21084-.048918-.2549343.1008525-.0058967.0199344-.0894989.023082-.1371967.0237377-.3766685.0046557-.7632304-.044918-1.1271883.0245246-.3604199.0687869-.7140257.0817705-1.0714972.0683279-.374834-.0140984-.7484887-.0607214-1.1226676-.0936394-.0215557-.0019016-.057067-.0024262-.0618499-.0139016-.0770503-.1818361-.23862-.0873443-.3625164-.1142951-.1556076-.0339016-.3868895-.0207869-.4480842-.1162623-.0885817-.1380984-.2645656-.0514098-.3168498-.1936393-.0060932-.0165246-.0735123-.0045902-.1073856-.0184263-.0366251-.0150819-.0676155-.0443278-.100375-.0683934-.0230627-.0170492-.0423908-.0460984-.0676811-.0522623-.2365235-.0576394-.4106074-.2085246-.5745358-.3763935-.1037166-.1062295-.2141816-.206295-.3117393-.3177704-.0508427-.058164-.0836022-.1333115-.1189169-.2036722-.0575912-.1147541-.0884506-.2521311-.1713321-.3425574-.0972302-.1061639-.0136935-.3033442-.1963604-.3529836-.0099589-.0026885-.0176901-.0262295-.0204419-.0411147-.0356423-.1929836-.065519-.3871476-.1078442-.5785574-.0125141-.0565246-.0598188-.1051147-.0902196-.1579016-.0122521-.0213115-.0296146-.0434754-.0317112-.0664263-.036101-.3923934-.0720054-.7847868-.10352-1.1775082-.0095658-.1195409.0232592-.2499672-.0131693-.3586885-.1710045-.5106885-.1018165-1.0384262-.0608671-1.5464262.0322353-.4007213.0178211-.8104918.0963129-1.2006558.0398355-.1979016.0089761-.4194754.0940852-.5828196.0885161-.1700328.0590326-.3596722.136476-.4957377.0685329-.120459.0499255-.2282623.0833401-.3377049.0167074-.0001968.0333492-.0004591.049991-.0006558.0243731-.0532459.0400321-.1132459.0748227-.1584918.0822263-.1070164.0379355-.2803934.186729-.3506229.0090417-.0043279.0191316-.0131148.022342-.0220984.046453-.1282623.0918576-.256918.153642-.3674098.0647982-.07488528.1267137-.15265577.1957051-.22340987.0357734-.03672131.0904817-.05508197.1257309-.09213115.1153789-.12131147.1992432-.26904918.392-.30714754.0788194-.01554098.1288103-.14504918.2102504-.18760656.1138064-.05940983.2460892-.08236065.3676925-.12826229.0510392-.01921312.0955266-.05645902.1419796-.0870164.0161176-.01055737.0275179-.03429508.0438977-.03750819.1869911-.0362623.3743098-.07068853.5619562-.10360656.0902196-.01580328.2125435.04891803.247072-.10478688.0026863-.01219673.0480909-.01849181.0742985-.02078689.0488116-.00439344.0984095-.00065574.1470901-.00583607.2097917-.02229508.4310493.05639345.6294407-.08288524.0413425-.02904918.1171479-.01121312.1770978-.01134426.3876102-.00065574.7843931-.05265574 1.160472.01344262zm38.8255579.08620328c.0486806.00006557.0955921.05304918.1465004.07383606.0514979.02111476.1058131.03927869.1606525.04767213.2571619.03947541.5295243.0375082.7654581.12983607.0988681.0387541.2442547.06190164.3257603.16695082.0088451.01140984.0280421.02222951.0416046.02137705.1881049-.01206557.2937215.12301639.4224663.22439344.070826.05580328.1811599.06367213.2472686.12268853.1068614.09554098.1892187.21777049.2872351.32386885.0413425.04478688.098475.07462295.1441417.116.0927094.08406555.179391.17186885.1816186.31140985.0003931.0222295.0293525.0477377.0507772.0647213.0191316.0152787.0618499.0158688.0667638.031541.0406218.1291147.0708261.2615738.1131513.3900328.0153314.0466229.0539876.0859016.0839953.1270819.0083865.0114754.0321043.0156066.0349872.0266886.0366906.1411147.0701053.2830819.1059441.4243934.0233248.0919344-.0585739.2285902.1100719.2615082.0090416.0017705.0141521.0388197.0158556.0599344.0352492.4190164.0706294.8380984.10352 1.2573115.0073381.0923934-.0054381.1874098.0105485.2777705.0125797.0708852.0577877.1354754.0836677.2046557.0145452.0389508.0273214.0815082.027518.1225574.0024897.4370492.005045.8742295-.0005897 1.3112131-.0007207.0537705-.0511703.1058361-.0737743.1606558-.0176246.0426229-.037739.0878688-.039508.1326557-.0062243.1637377.0040622.328459-.0089761.4914754-.0292869.363541-.0687949.7263607-.1041096 1.0894426-.1746081.1277377-.0651259.3466886-.1465659.4817049-.0640121.1062296-.0450116.2095082-.0881886.3024263-.0540531.1163934-.134969.22-.1995708.3318033-.0150693.0259672-.0048484.0655737-.017559.0939016-.0229972.0514754-.0545118.0991475-.0824884.1483934-.0131693.0001968-.0263386.0003279-.0395735.0005246-.0187384.2013115-.1221273.3422951-.3004044.4391476-.036232.0197377-.0419322.0891147-.0752813.1215737-.0910059.0884591-.1876464.171541-.2855317.2524591-.0386562.032-.0911369.0472786-.1294655.0794754-.0995233.0838032-.2389477.0798032-.3375537.1909508-.0731192.0824262-.2264336.0967213-.3464643.1333115-.0856988.0261639-.2061227-.0268853-.2380959.1139016-.0020311.008918-.0260111.0161967-.0406873.0183607-.2316096.0342295-.4632847.068-.6951563.1007213-.0649948.0091803-.1427003-.016459-.1611111.0909508-.0033415.019541-.0923818.0340328-.1420451.0345574-.5677219.0063606-1.1354438.0133114-1.7031656.0126988-.9335143-.0010923-1.8670941-.0068628-2.8006083-.01283-.0919887-.0005901-.1970811.0310164-.2559171-.0892459-.0113348-.0233442-.0796711-.0257049-.1219308-.0260983-.2451065-.0022951-.4902785-.0011804-.7480301-.0011804v-7.5928524c.0891713.0059672.1880394-.0845902.2303647.0676065.0038656.0139017.0323009.0231476.0510393.0299017.0148728.0054426.0323008.0040655.0486151.0051147.5595319.0352787 1.1190639.0709508 1.6786614.1050492l.2619449.0055082c.0868781.0047213.1866635-.0285902.2370476.0906229.0093037.022164.0791469.0228197.1215377.0260984.096575.0074754.193412.0103607.3043356.0157377l.0005242 4.9098361c0 .1723278.1102029.2880656.278259.2883278.4148661.0005902.8298633.003082 1.2446639-.0042622.0642741-.0011148.1256653-.0588197.1921016-.075541.0870092-.0219017.179653-.021705.2665967-.0441312.1983259-.0510164.4191903-.0611147.5211378-.2940328.0221454-.0504918.0961164-.0762623.1396865-.1199344.0318422-.0318033.055298-.072918.0782296-.1123934.0302043-.052.0562808-.1064918.1024717-.1531148.019066-.2710164.18496-.5254426.1365415-.8112787-.003538-.0211803.0151349-.0645901.029287-.0672787.1234377-.0238032.0902851-.1219672.0904817-.1949508.0024242-.9508197.001769-1.9015738.0012448-2.8523279-.0000655-.0735082.013628-.1496393-.0869436-.1856393-.02588-.0092459-.0322354-.0857705-.0393769-.1326557-.038001-.2513443-.0523497-.5087869-.1184583-.7522623-.0329561-.1212459-.1569835-.2189509-.2442547-.323541-.0408839-.0491148-.0906128-.0914754-.1394244-.1332459-.129662-.1108853-.2654829-.2094426-.4493946-.1993443-.0157246.0009181-.0432425-.0011147-.0459288-.0086557-.0729226-.2038689-.2460892-.1131803-.3721477-.1137705-1.4467899-.0064918-2.8936453-.0041967-4.3404351-.0041967h-.1831256v-2.03462298c.2223059 0 .4440221.00537705.6652796-.00255738.0942163-.00334426.2120849.03783607.2672519-.0984918.0081244-.02013115.0805884-.01954099.1231757-.01960656 1.5339301-.0024918 3.0678602-.00472131 4.6018558-.00229508zm-45.3718267.23859016v.33180328c-.0005897 2.28393446-.0005897 4.56786886-.0038001 6.85173766-.000131.1201968.0496634.2632132-.1046338.3434755-.01788668.0093114-.01434866.0608524-.01985225.092918-.03479057.2015082-.06053953.4051803-.10804078.6036065-.02057296.0860328-.08582985.1613115-.13929333.2422296-.02974561.0544918-.05824636.1097049-.08956443.1632786-.02122814.0363935-.04206318.0745574-.07056393.1047869-.11531338.1222951-.23809593.2378361-.34849539.3643279-.04540464.0519344-.05208758.1418361-.10181648.1851803-.10928564.0952131-.24196155.1634754-.35183686.2580328-.12645161.108918-.24753066.2269508-.35452314.3548197-.09834397.1174426-.23717866.1335738-.36231989.1872787-.04068728.0174426-.07659167.0472787-.11249607.0742951-.01539696.0115409-.02240749.0389508-.03826308.0443934-.11426508.0389508-.2297095.0743607-.34502288.1100984-.01526592.0047868-.04383219.0013114-.04612536.0082623-.06060504.1848524-.23029917.0779016-.3364399.1299016-.16379742.0801967-.33237773.0958033-.50770649.0945574-.01559351-.0001312-.04357011.0046557-.04507705.0116721-.03898378.1828852-.18620491.1087869-.28625237.1099672-.56215275.0069508-1.12450206.0059672-1.68665481-.001377-.06696038-.0008525-.13346213-.0563279-.19970181-.0876722-.01801772-.0085246-.03289052-.0277377-.05117032-.0310164-.20147082-.0363278-.40267958-.0749508-.60532975-.1030819-.08504362-.0118033-.13627945-.0272787-.19996389-.1080656-.06204646-.0786885-.21549188-.0878689-.33073975-.1210492-.07567441-.021836-.18463245.0236066-.19937422-.1114098-.0010483-.0093115-.04789437-.0121312-.0725295-.0205902-.18496005-.0636065-.38413771-.0982295-.50056492-.2883934-.02168678-.0354099-.10037506-.0310164-.14355206-.0591476-.16019388-.1043934-.28592478-.2457049-.41054185-.3894426-.11616514-.1339016-.26875881-.2422295-.36055089-.3897049-.10804078-.1737049-.28120741-.3036066-.32969145-.5253771-.01474176-.0671475-.1143306-.1299016-.12324118-.2377049-.00877954-.1054426-.05123583-.2092459-.0874023-.3107541-.02044192-.0575082-.05949122-.1081967-.08720575-.1634098-.01559351-.0310164-.03328363-.0645902-.03564232-.0980328-.00655189-.0925246.00288284-.1866885-.00884506-.2782951-.18233929-1.4255082-.0494013-2.8575737-.08949891-4.2859672-.00150693-.0545574.00117934-.1091803.00321043-.1637377.00039312-.0098361.00720709-.0194754.02076952-.0535082h.99293996l.00039312-.8869508c.00144141-.2603279.0048484-.2605246.26810361-.2579672.24379609.0024262.48759217.0005246.74481964.0005246l-.00060181-.4714414c.00007766-.0765513.00038341-.1524931.00112596-.22842749.00190005-.19796721.02915594-.22583606.22846464-.23265574.11446164-.00393442.22951295.00524591.34377803-.00111475.18129099-.01003279.36212334-.02819672.56575629-.04472131v.29921311c.00039312 2.04354098-.00078623 4.08708198.0038001 6.13055738.0003276.1788852.0597533.3464262.18731873.486623.04540465.0499016.04854956.1365245.09008858.1921311.08543674.1145574.17591843.2278033.27956944.3253115.06139128.0577705.14800735.1067541.2300371.1210492.25585157.0445901.51445494.092.77279623.0971147.18895671.0037377.38983787-.029377.56621493-.0965246.23979942-.0912787.42515259-.2768524.58619821-.4758688.05274277-.0651804.05103928-.1826886.11072706-.2325902.16045595-.1342295.12691024-.3068852.12704128-.4735082.00203108-2.1800656.00229316-4.3601311.00294835-6.54019672v-.54944262zm23.3925714 1.91909504c-.2127401.0000656-.4255457-.002295-.6382858.0020984-.0519565.0010492-.1407347.0129836-.148597.0392131-.0319077.1059672-.1084339.0855738-.1808978.0898361-.0264042.0016393-.0553636.0031475-.0780987.0146885-.1436831.0727869-.2859903.1483935-.4442841.2312131-.0377389.0890492-.0539876.2451148-.133069.2899017-.1784082.1010491-.0756744.312459-.2080882.4150819-.0100245.455541-.1587525.8992131-.1098098 1.3609181.0171004.161836.0076002.3275409-.0025553.4907541-.003407.0537705-.062243.1030819-.0692535.157836-.0125797.0985574-.0152659.2009836-.0026863.2993443.0082554.0641967.0731847.1236065.074364.1858361.0081244.4366557.0057002.8735082.0083865 1.310295.0003931.0651148-.015266.1634754.0191315.1889836.1132168.0840656.058836.1952787.0790159.293705.0335457.1634098.0730536.3255737.1107925.4881311.0022932.0099016.0089761.0201967.0165108.0273443.1033234.0984262.2461548.1782951.3019114.2985573.0874679.1889181.2774729.1796722.4121799.264.1035854.0648525.2840247-.017377.3791582.1308197.2437306-.0363934.5167481.1373771.7332883-.1023606.0114003-.0126558.0410149-.011082.0623741-.0120656.2641725-.012.4874611-.1033443.6530275-.3203279.0419977-.0549508.105158-.0936393.176115-.1548852.0044553-.0264918-.0012448-.0885902.0247007-.131541.1383105-.2288525.1933465-.474623.181422-.7400656-.0028173-.0626885-.0005242-.1647869.0339388-.1828197.1183273-.0619672.0912024-.1595409.0913335-.2513442.0012448-.8954099.0036035-1.7908853-.0022277-2.6862295-.0009172-.1403935.0648638-.3083935-.1132823-.4102295-.0235868-.0134427-.0106796-.0928525-.0124486-.1418361l.0021791-.1875118c-.0013273-.0307177-.0050838-.0607068-.0136449-.0892751-.0608671-.2031475-.1419796-.4001967-.2059916-.5752787-.0450771-.044459-.0762641-.0788852-.1112512-.1088524-.0685329-.058623-.1366726-.1182951-.2095952-.171082-.0773124-.0559344-.1543627-.1192787-.2416995-.1525246-.1347725-.0511475-.2979147-.0281311-.4022209-.1594754-.0041933-.0053115-.0209661-.0008525-.0318423-.0008525zm-31.91409949-.0828196v.6274098h-.67143838v-.6274098zm-1.01992067-.92563282v.54032792c-.18784288-.0095738-.39770014.0859672-.51838608-.1072787-.05025305-.0805902-.04684606-.2447213.00334147-.32786889.1167548-.19383606.32307403-.08990164.51504461-.10518033zm2.02845416-.12728524v.67088526h-.62872002v-.67088526zm-1.01501986.1257377v.54006556h-.66161055c0-.1548197-.00661741-.3000656.00484841-.44386884.00281731-.03455737.06447066-.08990163.10135784-.09186885.18142203-.00957377.3636958-.00432787.5554043-.00432787zm1.01510503-1.01682623v.5497705c-.16360086 0-.33119838.01390164-.49401302-.00793443-.05300485-.00714754-.12140665-.10216393-.1336587-.16636066-.02175229-.11416393-.00609326-.23547541-.00609326-.37547541zm-1.01469226-.0168459v.544l-.14341079.01627869c-.14221506.01464344-.2768934.0115082-.36848891-.12526229-.04750126-.07088525-.04586328-.21632787-.00524152-.29685246.1119064-.22203279.33178805-.08360656.51714122-.13816394zm2.03218219-.11921311v.67980328h-.63120975v-.67980328zm-3.04906934.23880656v.34006557c-.1423072.00668852-.28277987.01331147-.43458732.02045902v-.36052459zm2.028939-1.10929837v.52904918h-.52841048v-.52904918zm-1.02072001.08872132v.3092459h-.43085274v-.3092459z" fill="#3860f4" fill-rule="evenodd" transform="translate(0 .081804)"/></svg>