<svg height="29" viewBox="0 0 51 29" width="51" xmlns="http://www.w3.org/2000/svg"><path d="m39.5258864 19.5857073c-.0564995.0803411-.1017268.1417404-.1438588.2051725-.0866665.1306064-.1716236.15597-.3216729.0627853-.3754005-.2332157-.8592265-.1372591-1.0948797.1934379-.2523305.3541202-.183681.8880956.1505575 1.1705139.2180982.1842904.7180471.2340936.932588.0520208.0794135-.067359.0817233-.2418089.0861583-.3685344.0010163-.0280894-.1360515-.0672205-.2128317-.0902279-.1238554-.0371445-.327078.094432-.3292492-.1872472-.0014784-.1881249.0486921-.2654631.2453546-.2522962.2145872.0143681.4309761.0090552.6462562.0012012.1303692-.0048047.1831267.0479553.1823414.1735721-.0016631.246244-.0033724.4926267.0009701.7388245.0038806.2182933-.172917.2796926-.3159444.3548594-.4614663.2425019-.9422894.2770592-1.4111012.0367749-.5082644-.2605197-.7587008-.8509511-.6311958-1.4113064.1214531-.533883.6401119-.9705619 1.1876903-1.0035023.3756315-.0225454.7128729.0724872 1.0288173.3239519zm8.5248948-.2811202c.1559626.0085469.226968.0583039.224843.2152903-.0032339.2383439-.0008778.4768264-.0008778.7152627h.0022637c0 .1692293.0015707.3384586-.0002772.5076416-.0085003.7888126-.5567255 1.2187464-1.3376935 1.0672578-.5487795-.1063978-.787759-.4911483-.8115045-.9962027-.0198649-.4220337.0040192-.8460077-.0047121-1.2688268-.0046197-.2253618.1222385-.2379281.2961719-.2405615.1925048-.0028644.2305253.0869477.2268295.2567314-.0085465.3997192-.0036034.799808-.0001386 1.1997121.00328.37491.2094592.6069708.5388009.6139931.3580303.0076692.5812564-.19949.59567-.5879365.0150603-.4071112.0122423-.8153312.0021251-1.2227196-.0049894-.2018462.0659237-.270776.2684996-.2596419zm-43.26907596-12.01441361c.68122766.69798408 1.37599117 1.38280126 2.06387126 2.07436359.34634231.34825284.68834206.70080222 1.05824507 1.07783752-.32948024.3291261-.65531088.653771-.98012518.9793398-.52711295.5282466-1.05672056 1.0540909-1.57958335 1.5864955-.78988406.8042894-.91373944 2.0338927-.30781363 2.9924889.57959326.9169703 1.71568104 1.3041695 2.77023033.9529136.43134562-.1436346.80147963-.3714912 1.12158178-.6965056.72252818-.7337426 1.45896178-1.4537639 2.18093558-2.1880609.1573486-.1599894.2432296-.2016152.4299597-.0098406.9806796 1.0069673 1.9797919 1.9959166 2.9773335 2.9862982.1044063.103672.1253799.1716779.0139055.2821412-.9016357.8933623-1.7786482 1.8126888-2.7038908 2.6806876-1.0553808.9901505-2.33190889 1.5555417-3.76301362 1.7565563-1.3408811.1883559-2.6509023.0334947-3.87642836-.5390112-2.22297529-1.0384291-3.65966991-2.7435653-4.0699033-5.1923307-.42658729-2.5461542.32033314-4.7528798 2.1246671-6.59675339.70982388-.72538047 1.43817294-1.43265067 2.1502605-2.15590595.15088088-.15324419.24216705-.14197148.38976792.00928613zm24.22263256 12.01231151c.2053476-.0018018.250113.074982.2411045.255946-.0111336.2225436-.0026795.4460575-.0028643.6691555-.0001848.1692755-.006329.3387819.0008778.507734.0335855.7920465-.5649025 1.235794-1.394424 1.056909-.4713526-.1016392-.736295-.4378801-.753619-.9439971-.0150142-.4380187.0004619-.8770077-.0059133-1.3154422-.0030952-.2116405.1190046-.226332.2848997-.2263782.1792461 0 .2435068.0656959.2385174.247861-.0113645.4151499-.0102096.8309005-.0027718 1.246189.0078074.4349233.3148356.657467.7348629.5444627.2636951-.0710089.3948034-.256177.4019178-.5982391.008408-.399904.0120114-.8001777.0033725-1.2000355-.0041578-.1917285.0620893-.2424557.2540398-.2441651zm15.2110152-.0384288c.8458292-.0048972 1.3514142.5828084 1.3536385 1.2929891.002303.738686-.57863 1.2766807-1.3246265 1.2732782-.7457193-.0033888-1.3017518-.5365326-1.3081271-1.2757267-.0249004-.6909618.5537227-1.2863365 1.2791151-1.2905406zm-3.5946423.0406233c.3150204.0122429.6309186.0007854.9463548.0040656.4417863.0045275.758978.2071591.8552073.5676549.0945662.3544898.0164463.7985607-.3952192 1.0110328-.026194.0135365-.0466595.0380223-.0946124.0782622.1471851.2585793.2865628.503576.4261253.7488036-.2898428.1457137-.5022125.0902279-.6480579-.1560623-.1408098-.2377433-.2840681-.4740083-.4233535-.7126294-.0372351-.0638941-.0638449-.1339327-.1141077-.2413007.1543919-.0105797.2734889-.0142757.3914772-.027766.232327-.0265186.3832541-.1789773.388382-.3848891.0056823-.2280876-.1539761-.403369-.3927707-.4310888-.6732817-.0781698-.6738361-.0781698-.6753144.5953747-.0008778.400135-.007946.8005011.0037882 1.2003127.0058209.1975034-.0920715.2293812-.2545942.2282724-.1552696-.0010626-.2448927-.0377451-.2430448-.2199103.006791-.677148.0055899-1.3543885.0019403-2.0315365-.0008777-.1629923.051002-.2354795.2277997-.2285958zm-4.8175491-.0028782c.2024373-.0043428.2241963.0896273.2229489.252019-.0050355.6459633.0017093 1.2919727-.0048045 1.9378898-.0009701.0952637-.033447.26149-.0795982.2721159-.156517.0359895-.3305428.0662041-.4579554-.1075528-.3086452-.4208786-.6270842-.8345502-.9432134-1.2498849-.0430098-.0564097-.0952591-.1057509-.1926434-.2126569-.0151989.1665497-.0303979.2604273-.0311833.3543974-.0027718.3383199-.0104868.6770556.0030029 1.0149136.0090547.2267478-.1313394.2151055-.2836524.224946-.1673272.0108107-.2077037-.0645871-.2063178-.2188477.0060518-.6535862-.0007854-1.307311.0052665-1.9608973.0009239-.0972964.0351562-.2726702.0722066-.277706.1643705-.0223606.349299-.0800177.4829944.1046884.2292318.3166985.4689041.6259127.7069596.9361432.1142001.1488552.2346831.2929057.352348.4391275.0189872-.0058211.0379743-.0116885.0570077-.0175096.0069758-.0711475.0193105-.1422025.0200959-.2134423.0036496-.33832.0127043-.6769171.0026794-1.0149136-.0060981-.2059118.0790901-.2586256.2738585-.2628297zm-5.4108075.1815414c.1445519.2037866.2792636.4145955.4416015.6571436.127043-.1870161.2340363-.3415539.3379344-.4981706.2450774-.3692737.2444307-.3696895.753388-.310092-.1271816.1955169-.2436915.3785598-.3642669.5589232-.0981234.1468224-.1915346.2984034-.3043488.4335374-.1226081.1469148-.0962755.2645391.007715.4086819.2327427.3227507.4508871.6560348.6776242.9889494-.3244909.127511-.5087725.0803874-.685755-.1701994-.0975228-.1380445-.1852518-.2829728-.2788478-.4238817-.1229776-.1852605-.167512-.1876167-.2931691-.0109031-.0935036.1313918-.1809554.2670339-.2732579.3993496-.2003122.2870846-.2902124.3192857-.6921303.2292426.1580877-.2436568.2986204-.4841721.462298-.7077784.3601091-.4919337.3649136-.4884687.0268869-.9944933-.1483862-.2222202-.2968187-.4443943-.4462674-.6681391.2497434-.128897.4921876-.0872711.6305952.1078299zm2.6267826.0588815c-.0074378.3385047-.0023098.6772866-.0021712 1.0159761.0000923.3386895-.0076688.6776101.0030952 1.01593.006098.1912665-.0997865.2165839-.2466944.2101621-.1364211-.0059135-.2806958.0210209-.2777391-.2018.0090085-.6849096.0104868-1.3700963.0014321-2.0550059-.00328-.2458283.1544843-.2101622.3061505-.2222665.1829881-.0145528.2193917.078447.2159269.2370042zm16.2297523-.2336085c.3811752.02638.7719133-.0014784 1.1424169.0734574.4611429.0932309.6608083.4768265.5971483.991398-.0445344.3599413-.433055.6910541-.8288286.7055146-.1460763.005313-.2921527.0128897-.4381366.0117347-.1326791-.0010626-.2022525.0533144-.2016057.1900653.0003696.0768762-.0043426.1537524-.0057285.2306748-.0047583.2596419-.0382977.2847283-.2965415.2673573-.1372064-.0091938-.1879774-.0692533-.1862681-.203186.0044812-.3461277.0015245-.6923477.0016631-1.0385216.0000924-.3384585.0033724-.6770095-.0013859-1.0154218-.0021713-.1549535.0528961-.2244378.2172666-.2130727zm-4.9670116.4270925c-.476573-.0085007-.816771.3085212-.8237006.767607-.0075764.4995104.3114632.8533534.7876204.8735888.4322233.0183875.7732529-.3365181.7848947-.8168095.0110412-.4581618-.3146047-.8166709-.7488145-.8243863zm5.2338481.4433548c.000924.4758101.000924.4758101.4283428.4707281.3456032-.0041118.5452224-.1668269.5531221-.4509084.0073454-.2644929-.1858061-.4264689-.5340425-.4476745-.4418325-.0268882-.4483463-.0206974-.4474224.4278548zm-32.1422944-14.13581765c1.6206067.39800985 2.9346009 1.26891916 3.9361617 2.60607519.6411745.85594062 1.0897979 1.80340276 1.2865991 2.85559936.3770636 2.0161059.0220362 3.8968006-1.1997479 5.5550441-.5019815.681306-1.1365959 1.2664244-1.7239966 1.8828661-.4557841.478351-.9313868.9378064-1.3996442 1.4041917-.0535891.0534068-.1165562.0972964-.2175438.180502-.5844902-.5955595-1.1479144-1.1741175-1.7164203-1.7475474-.4877065-.4919799-.9760598-.9834978-1.4758238-1.46305-.1266734-.1215513-.0563147-.1743113.0238379-.2546062.7824924-.7836382 1.5641072-1.5680156 2.3456295-2.3525778.6354922-.638017.90778-1.3901932.7265936-2.2891457-.2914136-1.4457714-1.8172231-2.2087583-3.0692203-1.8072373-.5028593.1612829-.8874069.476272-1.2480704.839586-.71546.7207143-1.4379882 1.4345448-2.1476735 2.1609417-.1328176.1359193-.2047933.1246004-.3296188-.0009702-.9983732-1.0044725-2.00284441-2.0028466-3.00440521-3.0040389-.05312707-.0530833-.09724564-.1151295-.14113322-.1676584.29441637-.3027924.57206307-.59768471.85973462-.88241306.66163993-.65474122 1.30456991-1.33101147 1.99845561-1.94985557.9224246-.8226307 2.0159645-1.3402052 3.2250905-1.59665937 1.0905371-.23127537 2.185694-.23561814 3.2711955.03095375zm14.4653561.23569206c.3152514.01099551.6316116.01487628.9465858.00110879.2038694-.00896273.2298323.10302518.2297399.25834835l.0006468 2.03814308h2.8607311c-.2592139-.69059214-.5081258-1.35383409-.7701577-2.05209537.1152626-.01021011.1880698-.02139043.2609694-.02217582.2078423-.00230998.4156847-.0003234.6235732-.0000462.5799167.00078539.5685059.00485096.7648913.556336.2085815.58594996.4422482 1.1629372.6640422 1.7441748.1330487.34871484.2642032.69812268.4064914 1.0740953-.0992322.01081072-.1569328.02240683-.2146334.02254543-.6543869.00152458-1.3087739.00106259-1.9631608.00170938-.2962181.0003234-.3103545.01547688-.3101697.31096975.0011549 1.7938856.0021251 3.5877712.0030952 5.3816568l-.0001386.0923993c-.004398.4932889-.0046912.5258931.4359085.5280855l.1013217.0001611c.7313519.0000462 1.46275.0001386 2.1940557.001848.0501242.0000924.1002485.0133517.1824338.0250864-.1694985.400366-.317007.7851628-.501612 1.1512949-.0333546.0662041-.2187449.076599-.3341924.0773382-.8929968.0057287-1.7860859.0034649-2.6791289.0011088-.0673097-.0001848-.1373913-.0118271-.2014209-.032617-.4551373-.1474692-.6206166-.3871067-.6212634-.9251939l-.0013859-3.1181519.0004158-3.1181519c-.0000424-.34426045-.0003953-.37294882-.2926324-.37548186l-.0871569-.00025979c-.5275749-.0002772-.5244335 0-.5705386.53993515-.1047758 1.2275705-.3016693 2.4397565-.6152577 3.632169-.272103 1.0346409-.6149805 2.0423935-1.083977 3.0069957-.1404865.2889787-.3110937.4357087-.654156.400828-.3470352-.0352503-.7003996-.0077616-1.1008853-.0077616.1293529-.2543289.2333895-.4562675.3351625-.6593611.4438652-.8856008.7796745-1.8099169 1.0508073-2.763616.3058734-1.0757585.4894158-2.1705512.6188149-3.2773096.0249466-.2130266.0279033-.4285479.0470752-.642406.014968-.16715024-.0469828-.23483271-.221794-.23210693-.5079872.00799254-1.0163901-.00508196-1.5242388.00628315-.1865915.00420417-.2413354-.05858113-.2327427-.23880591.0131663-.27655101.0080845-.55430321.0013397-.83127002-.0041578-.17015326.0413005-.24716805.2362538-.24208609.5230938.0136751 1.0469267-.00194038 1.5702976.00554396.1697757.00240238.2273377-.05142019.2248892-.22476122-.0087775-.62351027.0017094-1.24729774-.0062366-1.870808-.0022175-.17301763.0574234-.22956599.2273377-.22369863zm18.7962287 7.33281439c.2030378-.0013621.2641109.0572191.261339.2609595-.0107178.8005934-.0029566 1.6014179-.0048507 2.40215-.0017093.7399333-.449686 1.1947687-1.1940194 1.1961085-2.2557755.0041118-4.5115972.0005082-6.7674189.0055461-.165664.0003213-.2285388-.036315-.2273376-.2162626.0077149-1.1394678.0087313-2.279028-.0008114-3.4184496-.0015909-.1949624.0721402-.2290116.2418235-.2283648 1.2933901.0048048 2.5868264.0026334 3.8802627.0026334 1.2703376-.0000462 2.5407214.0041118 3.8110128-.0043205zm-21.8081482-7.24363062v.50953577c-.0016837 3.43235565-.0033468 6.86471125-.0048713 10.29706695-.0001386.2975718.0002772.2981262-.2927995.2984496-.2847149.0002772-.5700303-.0122429-.8540061.0025872-.21103.0110417-.2622629-.080526-.2617548-.2717924l.002922-2.3318573-.0003349-2.3318572c.0001386-1.0389836.0006929-2.077921.0010163-3.11685839v-.27225444c-.0196339-.01616988-.0393602-.03238595-.0590403-.04855582-.335024.26269112-.6700479.52542844-1.0345458.81126558-.0124271-.09313846-.0280881-.15744835-.0284114-.22185064-.0020327-.40785038-.0059595-.81588555.0039729-1.22355112.0019865-.08158856.0376048-.19094309.0969685-.23829772.7681713-.61242235 1.5433183-1.21606678 2.3174029-1.82095859.0168159-.0131669.0418549-.01575408.1134815-.04107148zm12.7206748-.04657847c.0066062.09429345.0163539.16890586.0164001.24347207l-.0008316 10.57454192c-.0000462.3280174-.0004158.3287104-.3234746.3312976-.2385636.0018942-.4771735.0042504-.7156909.0015246-.3125258-.0035112-.3245371-.0168167-.324029-.3264466l.0097015-5.6565447c.0011087-.7157247.0018941-1.4314956.000231-2.14722039-.000231-.08731731-.0169545-.17458841-.0335856-.33540934-.4055212.32325884-.7515402.59902446-1.1420472.9103176l-.0000924-.74820309c-.0003696-.23085957-.014968-.46278173.0038344-.69202432.0084079-.10214739.0567766-.23178357.1323557-.29281328.75385-.60831059 1.5170782-1.20502507 2.2781812-1.80446533.0229602-.01806406.050771-.03002976.0990474-.05802674zm7.7069549 8.46800029c-.8081321.0102563-1.6164951.0043428-2.4247658.0047124-.8237006 0-1.6474012.0032802-2.4710556-.0026796-.1739334-.0012474-.2555181.0508196-.250344.2355719.0089623.3230741.0094705.6467025.0027257.969869-.0036034.1753276.0607034.2488774.2416588.2485078 1.6319251-.0036036 3.2638964-.0040656 4.8958676.0006958.1955538.0005516.254086-.0815914.250344-.2635717-.0064214-.3152201-.006329-.631087.007253-.9459837.0082694-.1920981-.0587631-.2495243-.2516837-.2471219zm1.2940877-3.2507726c.2012361-.001386.2738585.0507734.2581976.2583946-.0185252.2447656-.0113184.4922571-.0014784.7380391.0058209.1452979-.0527574.1958865-.188578.1839208-.0458278-.0040194-.0923025-.0003234-.1384537-.0003696-2.4691154-.0003696-4.9382769-.0022638-7.4074384.001617-.1973555.0003234-.3028243-.033541-.2743667-.2675421.0249005-.2046644.0230064-.4166745.0008316-.6219395-.0243923-.2250846.0493851-.2925823.2746438-.2909191 1.2460378.0090551 2.4921679.0043428 3.738298.0043428v-.0012474c1.2461301 0 2.4922603.0042503 3.7383442-.0042966zm-.0569522-2.08001841c.3100773.0000462.3101235.0007854.3106317.31743769.0003233.20009062-.0131663.40138242.0042501.59994842.0184328.210578-.051002.2759505-.2662821.2743335-1.2542147-.0095172-2.5086141-.0046662-3.7629212-.0044814-1.2389233.0001848-2.4779391-.003927-3.71677.0043428-.2010051.0013398-.2760298-.0535454-.2619396-.2598268.0167235-.2451814.0111336-.49248808.0029105-.73845494-.004666-.14127848.0507248-.19584025.1873769-.19297587.1845588.00383457.3693024-.0001848.5539536-.000231zm-3.572694-3.18022114c.153006-.00420417.2440612.0510968.3091072.18373595.1184041.24143929.2539474.47493224.3634815.7201599.0680027.15227399.1680202.19482386.3243524.19394607.8924424-.00494337 1.7848848-.00314158 2.6773734-.00226379.2859623.0002772.2970958.0127973.2984818.30108302.0011087.23848251-.0068373.47733463.0031876.71544754.0069758.1645169-.0623204.21621429-.2179596.21422771-.43846-.00559016-.8770125-.00184799-1.3155187-.00184799-2.1311809 0-4.2623157-.00337257-6.3934042.00508987-.2177748.00082368-.2795408-.0637634-.2654506-.27249335.0170468-.2528044.011226-.50782639.0013397-.76136998-.0059133-.152274.0520645-.2028164.1998964-.2019386.9154487.00531296 1.8308975.00568255 2.7464386.00595975.112537.0000462.2251202-.01007152.3979911-.01838745-.1646939-.37384745-.3055038-.69331792-.461605-1.04757672.0976153-.01358269.1609982-.02970636.2245197-.03007596.3692562-.00217138.7387434.00642175 1.1077687-.00369597z" fill="#ff5a34" fill-rule="evenodd" transform="translate(0 .081804)"/></svg>