<svg height="29" viewBox="0 0 133 29" width="133" xmlns="http://www.w3.org/2000/svg"><path d="m144.842699 2010.04107c2.915923.25287 5.031968 1.36536 7.565027 3.43298l-3.42472 3.47773c-1.534343-1.15273-2.842272-1.7817-4.140307-1.91779-3.080135-.32295-4.451006 1.17976-4.32293 3.17639.092002 1.43425 2.308629 3.07895 4.729413 3.90367l.242688.0797c1.546442.48888 2.927487 1.10813 4.205637 2.06546 2.041564 1.52913 3.302493 3.63285 3.302493 6.29552 0 5.18536-3.646364 8.44527-8.537786 8.44527-3.87033 0-7.794886-2.2054-9.807064-5.75636l3.465881-3.776c.795705 2.63163 3.602369 4.53944 6.341183 4.53944 2.511343 0 3.915446-1.25529 3.915446-3.45235 0-1.48544-1.524421-2.67845-3.923743-3.48422l-.260389-.08485c-4.264589-1.34816-8.003961-4.04828-8.285043-8.43015-.337348-5.25904 3.431824-8.99161 8.934214-8.51444zm-50.0672653.45822.000031 18.4738c0 2.75752 2.2318744 4.99292 4.985031 4.99292 2.6807053 0 4.8672033-2.1193 4.9804253-4.77633l.004606-.21659-.000093-18.4738h4.985l.000124 18.4738c0 5.51503-4.463749 9.98584-9.9700623 9.98584-5.5063132 0-9.970062-4.47081-9.970062-9.98584v-18.4738zm36.8892603 0v4.99292l-11.964105-.00092v6.491l10.967099.00072v4.99292l-10.967099-.00064v6.491l11.964105.00043v4.99292h-16.949105v-27.96035zm-54.8353408 0-.000031 22.967 9.9700929.00043v4.99292h-14.9550929v-27.96035zm-19.1262107 0 11.3388705 27.96035-5.4038705-.00088-2.023-4.993.0205548.00004-5.6490371-13.93324-5.6500341 13.93324 5.8985164-.00004 2.023 4.993-15.327.00088 11.338-27.96035zm-11.592272 0-11.3388705 27.96035h-3.434l-11.338-27.96035 15.327.00088-2.023 4.993-5.8985165-.00004 5.6500342 13.93324 5.6490371-13.93324-.0205548.00004 2.023-4.993z" fill="#fff" transform="translate(-20 -2010)"/></svg>