<svg height="29" viewBox="0 0 45 29" width="45" xmlns="http://www.w3.org/2000/svg"><path d="m7.39074681 6.85788789c.17719965.00287519.35302566.06770477.53030381.10011957.11373745.02079588.22982971.02938206.34329243.05147768.122568.02382861.24560695.04974469.364368.08759477.22260829.07097382.4468257.14021466.66185934.23056646.21621104.09086382.42339531.20394142.63183547.31248962.08940434.0465938.17245074.1057124.25761654.16034097.1588321.10185256.3252388.19393735.4735135.30949628.1963129.15293638.3838345.31847632.5645271.48984541.1518462.14395633.2998854.29500218.4290861.4591636.1870899.23773474.3675078.48263775.5283415.73868703.1218223.19401612.2146804.40748902.3089514.61749592.0635407.1415144.0908173.3009101.1638557.4362802.0871673.1616014.1203702.3351761.1649939.5073723.049922.1927163.0981564.3885048-.0179358.5740529-.1000011.1597896-.2432129.2660534-.4367785.2685741-.3956086.0051596-.7914133-.0019693-1.1871003.0014573-.2055752.0017724-.349258-.1010648-.4728857-.2507322-.115111-.1393087-.1508257-.3133955-.219704-.473697-.0889334-.207053-.2062031-.4017387-.3083234-.6031988-.1402291-.2766088-.36613415-.4850796-.56546904-.713795-.08120179-.0931876-.18669739-.16699718-.28799358-.24005847-.12146909-.08759477-.2482365-.16837574-.37649529-.24584828-.10832138-.06545976-.21856586-.12993487-.33414791-.18058544-.16813363-.07369147-.33913227-.14348371-.51409485-.19815167-.13728557-.04285212-.28422588-.05352576-.42378777-.0903518-.35145579-.09279374-.70974053-.08743723-1.06692636-.0741641-.19984509.0074046-.39957245.04072527-.59741596.07412472-.20808694.03509305-.41664484.07408532-.61966894.13060443-.14238767.03962246-.27433567.11544077-.41354434.1682182-.38112642.14446836-.71095718.37771307-1.0318004.61950461-.1721368.1297379-.3135433.3019735-.46244595.4610541-.21809489.2330084-.39164458.5000464-.55895402.770511-.04611508.0744792-.0728422.160853-.11099017.2405706-.09183769.1920862-.1928984.3801944-.27500287.5763373-.04799893.1145743-.06165684.2431701-.09968706.3625494-.07688463.2413977-.11047996.4896091-.12111587.7409321-.01416812.3360819-.03308511.6726365-.02727657 1.0086002.00353221.2023266.03540068.4073709.08112329.6049711.05769291.2492749.13909093.4933508.21644653.737663.10263058.323951.27515985.616078.4366215.911474.1232352.2254463.26177667.4454179.41774376.649123.19454677.2540012.40918794.4927206.65930829.6969771.13210499.1078786.2438016.2418309.3795173.3441955.19654836.14821.40349714.2834226.61181956.4149329.16997823.1073273.34301771.2127639.52453452.2978774.20639932.0967324.42327756.1710146.63638811.2530953.14674407.0564797.29376287.1125656.44258703.1632162.09709677.0330843.19635212.0621907.29682413.0820019.12017394.0237105.24270269.03529.36413252.0526987.14399679.0206383.28744413.0462393.43199038.0615211.12323519.0129974.24768704.0198506.37158943.01989.25824445.0000788.51821576.0112251.77438013-.0140214.32673025-.0322179.65271481-.0845227.97446071-.1504945.18289046-.0374956.35647936-.1201671.53469946-.1812156.1078504-.0369442.2218233-.0603002.3238652-.109139.2745319-.1313528.5549509-.2555373.8124496-.4158782.2344609-.1459651.4864258-.271213.6803446-.4805503.0936431-.1010648.2220981-.1696755.3158589-.2707009.2247276-.2421854.4438037-.4902393.6544024-.7448313.1370109-.1656581.267389-.3395873.3787716-.5232449.1415635-.2335204.2651519-.4784234.3881516-.7226962.0708799-.1406873.1310846-.2875976.1854023-.4356895.0504715-.1374182.0921909-.2787357.1280233-.4208015.0582031-.2308028.112717-.4627477.1605982-.6959137.0343018-.1669184.0460759-.3387208.0839099-.5046546.0824576-.361801.0890119-.7285254.0824969-1.0958799-.00365-.2054775-.0137757-.4122941-.0421904-.6155266-.0256282-.1833818-.0825754-.3622343-.1211159-.5440407-.0314367-.1482494-.0510209-.2991377-.0852442-.4466388-.0364603-.1570719-.0793572-.3130017-.1278663-.4667651-.0586741-.1858238-.1177799-.3723566-.1919957-.5522331-.0945458-.22918794-.1991779-.45463419-.3094617-.67673263-.0828894-.16691846-.1748448-.33021339-.2749243-.48732469-.1018849-.15990773-.2212739-.30843286-.3281432-.46526846-.10318-.15132155-.1998058-.31044155-.1597348-.50449705.0360679-.17467753.1686831-.31812184.41794-.31879141.3367775-.00090588.6736334-.00496265 1.0103324 0 .1485887.00220563.2980015.0156363.4450596.03741683.2764942.0409222.4748087.21359103.6278323.43037234.1361081.19283454.2491784.4029202.3622879.61095778.1125993.20697416.220175.41753246.3157804.63281709.0816727.18381511.1478037.3750742.212561.5659.0685251.2018934.1320265.4058348.1887383.6113911.0367351.133007.0596552.2701101.0847732.4061105.0379518.2058713.0733917.4122547.1080467.6187168.0178181.1057912.0388936.2117793.0459973.3184763.0239799.3613285.0423866.7230114.0629128 1.0845761-.0060441.0003151-.0121273.0006696-.0182106.0010241 0 .1837757.0128337.3686542-.0029043.5510908-.0256674.2977198-.0697809.5938248-.1064375.89056-.0159342.129029-.0267271.2591214-.0506285.3866931-.0258244.1377333-.0647181.2729853-.0969397.4095765-.0198197.0840106-.0341056.1694785-.0573397.2524651-.0429754.1533696-.0866571.3067393-.1373641.4576276-.0682111.2028386-.1404646.4043774-.216525.6043803-.0516097.1358034-.1064375.2710947-.1710379.4009902-.1029838.2069742-.2047117.4158389-.3260631.6119819-.1943113.3139075-.3976493.6227342-.6099357.9246289-.1361081.1935829-.2929387.3727898-.4450988.5545569-.0513349.0613242-.1253545.1040582-.1744916.1667215-.2987473.3809821-.6976918.650147-1.0602544.9593676-.1121676.0957083-.2454892.1666427-.370255.2471086-.1394442.0899973-.2756701.1863752-.4213545.2649112-.233048.1256418-.4720615.240413-.7100545.3567202-.0940355.0459637-.1897587.09047-.2885431.1242239-.3081664.1053579-.6155087.2143394-.9282278.3043367-.2367372.0680986-.4795184.1193794-.72265279.1597502-.29238923.0486419-.59027303.0649477-.8816026.1183159-.44015372.0806235-.88160259.0298154-1.32187406.031312-.19191723.0006696-.38403069-.0648689-.57614415-.0998438-.02217449-.0040568-.04521241-.0033479-.06742614-.0073259-.20898962-.0371805-.41813623-.0733369-.62665488-.1129988-.14368282-.0272946-.28822907-.0530137-.42908611-.0916121-.16008801-.0438762-.31695778-.1001196-.47445549-.1532121-.15008006-.0506112-.30467351-.092203-.44764988-.1586868-.33454038-.1554965-.66915926-.3127259-.99255352-.489806-.26232613-.1436806-.51519376-.3075664-.75962331-.4804715-.2141702-.1514003-.41122877-.32722-.61495931-.4933902-.12229327-.0997257-.25310311-.1916135-.36197395-.3046124-.19957037-.2070923-.38999622-.4235191-.57606566-.6430574-.13897319-.1639645-.27221634-.3339157-.39509831-.5102869-.1376388-.1975608-.2695083-.4003601-.38783764-.6100125-.13414582-.2377347-.25914713-.4815743-.37170717-.7302584-.08551895-.1888959-.14752901-.3887018-.21593632-.5850417-.06758312-.1938979-.13720708-.3875596-.19254518-.5850811-.04069901-.1453348-.06157835-.29642-.08803074-.445536-.03108353-.1751895-.04046353-.3566808-.09219092-.5252141-.06915299-.2252494-.08638237-.4519166-.08603444-.6833101.00035851-.2330084.00212462-.4660562.00075098-.6990646-.00105966-.176765.02343039-.3471101.08375284-.5151707.03233942-.0900761.02978838-.1922044.04870537-.2877945.05388596-.2720401.08979686-.5501456.17217605-.813442.0861469-.2753091.15141445-.5595588.29089785-.8182864.11872181-.2201685.20891113-.4558158.32751519-.676063.10102146-.1875962.2118154-.37282923.34105536-.54159884.21628954-.282438.44702193-.5540842.67842152-.82447004.29132957-.34037501.63701606-.61812606 1.01358984-.85830273.16856534-.10752416.33505059-.21843553.50502882-.32367529.1174659-.0727462.2349318-.14813127.36020783-.20496547.21585783-.09795332.43748494-.18310615.6573067-.27215821.12331369-.04994163.24584244-.10350678.37249211-.14336555.11864331-.03737744.24125055-.06451449.36385779-.08629503.33073344-.05872473.66311524-.10819372.99349545-.1687696.39282199-.07203725.78799879-.03186339 1.18148798-.02544345zm21.53127239 1.35645074c.2295942.00126036.4587175.06798048.6883117.10267966.2862667.04324598.5400763.16959672.7882343.30941751.144664.08152931.300945.15132154.4257109.2574278.2048686.17420489.3991799.36408547.5771645.56582127.1209197.13706376.2157401.30039808.3051837.46152677.1047892.18897466.1987855.38499946.2823028.58441156.0309527.0738884.0469567.1539035.0638503.2337436l.0279874.1188411c.0867356.3111505.0997656.63006.0778658.947985-.0140896.2044534-.0532187.4102066-.1076542.6080432-.0674261.2450999-.1513752.4871277-.2494531.721554-.053415.1275717-.1527096.2353716-.2279851.3541996-.1968624.310796-.465154.5555808-.7369779.7952849-.2116191.1866115-.4731996.2913393-.7249683.4106793-.2844221.1348975-.5851709.2066984-.8959669.2414764-.1125208.0126035-.2253949.0311938-.3381119.0313119l-2.6832305.0015952-2.6832305.0000591c-.2273179.0000394-.2273179-.0000788-.3474918.1781435l-.4938042.7339607c-.0129122.0193779-.0271196.0564797-.0183676.067626.0143252.0182751.0470571.0305242.0720966.0306424.398866.0021662.7977712.0022844 1.1966372.0023238 1.9163465.0000787 3.8327323-.0034266 5.7490396.0046081.2224905.0009453.4460407.0590005.6665297.1033493.1454882.0292639.2911333.0699891.4278694.1268627.1189573.049469.2318313.1202853.3363458.1968126.2376398.1740473.4119352.4041017.5319521.6720456.0777089.1734172.1686439.3486855.2016897.53254.0461544.2569552.0890512.5191881.0273159.7865806-.0294744.1276505-.0283755.261524-.0841846.3857872-.0575359.1282413-.0997263.2633357-.1548289.3927586-.110637.2597122-.2633073.4977226-.4317157.7199786-.1262179.166564-.2843043.3199336-.4568336.4364772-.132419.0894459-.2941554.1529364-.4728464.1463589-.2808506-.0103586-.5624077-.0054747-.8435724-.0014179-.116053.0016542-.2174669-.0356838-.3222561-.0781815-.0876382-.0355263-.1187218-.1059093-.1286905-.1816095-.0197804-.1508489-.0012166-.2842891.145449-.3871657.0930543-.0652629.1551429-.177277.225277-.2726309.1543972-.2099281.3178997-.4146572.4538902-.6362437.1530628-.2493142.2961961-.5115471.2516509-.823446-.0266486-.1865327-.096665-.3475432-.2512977-.4768873-.1628746-.1362761-.3405844-.1800341-.5423919-.1756622-.2123648.0045688-.4248867.0020875-.6372123.0081923-.0381087.0011028-.0913667.0178813-.1106369.0460424-.1380705.2018146-.2636605.4123335-.4043606.6122182-.1105584.1570325-.2399161.300595-.3554197.4542797-.0759035.100986-.1404646.2104401-.213032.3140257-.0946243.1351338-.1933302.2673925-.2877189.4026445-.0338308.0485237-.0570257.104452-.0906603.1531333-.1464301.2117398-.2868162.428403-.4452166.6308477-.1234706.1577809-.2897989.2576248-.4801855.3380119-.2264545.0956689-.4519278.0604183-.6786177.0696741-.176297.0072076-.3531434.0042931-.5296759.0009846-.148157-.0027964-.2751206-.0660899-.3311259-.2031537-.0477634-.1169374-.043878-.2434457.044506-.3580988.1216653-.1577808.2328909-.3237934.3470993-.487364.1843426-.2638872.3679395-.5283257.55083-.7932369.1093418-.1583322.2164465-.3181218.3250426-.4769661.1332824-.1950008.2684879-.3887806.3990622-.5855931.019231-.0289488.0175434-.0718797.0286895-.1227272-.1270029 0-.2211561.0001575-.3152702-.0000394-.4022412-.0007877-.8044432-.0025601-1.2066844-.0018512-.0843023.0001182-.1688793.0061443-.2527107.0152819-.0761782.0083498-.1151111.0608909-.1560063.1250509-.1082821.1697149-.2272394.3328129-.346236.4954383-.134185.1833818-.2745711.3621949-.4091879.5452617-.0633052.0860587-.1192713.1774345-.178848.2662503-.0860292.1282806-.1714304.2570339-.2587939.3844481-.1236277.1803885-.2495709.3591622-.3730808.5395901-.1370109.2000422-.2710782.4063468-.4969047.5151707-.1476076.0711707-.2974521.1456893-.4708448.1438775-.2975306-.0031508-.5954144.0071683-.8925525-.0036235-.0942318-.0034266-.1926237-.0446639-.2783389-.0894459-.0829679-.0432854-.1253545-.245927-.077434-.3367121.0690352-.1309195.1446639-.2586882.2232754-.384133.0862647-.1375758.1740599-.2747577.2703325-.4053228.1264142-.1714084.266761-.3325371.3917231-.5048909.1162493-.1602622.2186051-.3305678.3300662-.4944142.1448995-.2128821.2927032-.4237554.4394081-.6354165.0091445-.0132338.0204868-.0250496.0287287-.038756.059145-.0981897.0391684-.1353308-.0744121-.1370244-.081712-.001221-.1635025-.0005514-.2452537-.0006302-.2223728-.0002757-.4454128.0105949-.6669615-.0032296-.3886225-.0243013-.6688845-.2170964-.8402756-.5731865-.1170342-.2431306-.1165632-.480117-.0517274-.7413259.0488624-.1967732.1771212-.333128.2696261-.4953201.1157783-.2029568.25118-.3953187.3871312-.5857506.1289652-.1805855.2695868-.3528211.4116605-.5373057-.1268852-.0905094-.2416823-.1711722-.3550273-.2538437-.0610681-.0445063-.1266889-.0858618-.1780238-.140254-.1509828-.1598684-.301887-.3206032-.4409387-.4907907-.0893651-.1093359-.1617756-.2334811-.2343038-.3554599-.065974-.1109508-.1273562-.2254463-.1803394-.3430927-.0400319-.0889339-.0636192-.1853118-.0945065-.2784206-.1486279-.4478204-.1883458-.9091502-.1500801-1.3760729.0151886-.1853118.0551026-.3707023.1037295-.5505788.0547887-.2025236.1159745-.4065044.2039268-.5960305.1014924-.21859304.2108342-.43628023.3868957-.6119818.1516892-.15128216.2778286-.33056786.4392903-.46932522.1804179-.15498446.3787716-.29480525.5862306-.41071866.2140132-.1196157.4447064-.21256699.6752425-.29764105.1309668-.04836618.2753954-.07247049.4154282-.08152931.3539676-.02292273.7088771-.04265518 1.0634334-.04340352 1.7135579-.00374168 3.4271943-.00480511 5.1407522.00456879zm9.7478135-.16843876c.1330469.00059079.2256696.08586178.2779857.19196804.0483129.09791394.0491763.21559972-.0179359.31560113l-.1943113.26979505c-.1148363.17156602-.2266114.34521951-.3353253.52068475-.0042779.00693196.0340271.05821272.0549849.06002448.0809271.00701073.1628353.00200869.2443903.00200869 1.9164643.00011816 3.8329678-.00110281 5.7494713.00295396.1719013.00035448.3134648.07113137.4328538.21808105.0954484.11744947.1188787.23080277.1150718.36778776-.0038069.13777272-.0018446.27570302-.0004317.41351512.0017661.172078-.1108332.2680226-.2283776.3672363-.1056526.0891387-.2245424.1055801-.34829.1085104l-3.4687043-.0000016v.0010634c-1.1774063 0-2.3547733.0011816-3.5321404-.0021268-.0991769-.0003151-.144821.0478542-.194586.1207185-.0745298.1090996-.162953.2085496-.2437231.3134349-.0439958.0571099-.0863039.1157165-.126061.1758985-.1104407.1673517-.2166427.3375786-.3292028.5035124-.1374818.2027598-.282499.4003601-.4188427.6038289-.0865001.1291078-.172176.2602636-.2422317.3986665-.1297109.2562856-.1431726.5075692-.0062402.7805151.1274346.2539618.310639.4065437.5747312.4761784.0669944.017645.1367361.0348174.2052612.0349749.7685323.0016936 1.5371039-.0011816 2.3056363.0006696.0952914.0002363.1059665-.0525018.106045-.1243815.0005887-.4824802.0008635-.964921.0022764-1.4473618.0007849-.2548677.0675438-.4718459.3369344-.5655849.0384619-.0133519.0793179-.0274128.1191535-.0277279.3041241-.002245.6082874-.0029539.9124507-.0005514.2269646.0017724.4184894.1602228.4570298.3795642.0178574.101695.0312798.2056351.0318293.3086692.0024725.4463237-.000471.8926868-.0016092 1.3390499-.0002747.1321405.0025903.1372214.1382275.1373395 1.125051.0011028 2.2502197.0110675 3.3750352-.0047263.2885038-.0040174.4250437.1558903.5586401.3552629.0162089.0241438.014953.0625452.0152278.0944086.0015306.1805067-.0072215.3615648.0041601.5413231.0076139.119852-.040856.2072105-.1175836.2818078-.1382668.1344249-.3008666.2069348-.5009864.2063834-1.108685-.0030327-2.2173701-.0001575-3.3260551.0007877-.1241323.0001013-.1420961.0003473-.1447942.0921615l-.000694 1.0188821c.0000393.1332039.0003925.1354096.1372856.1355671 1.1250117.0014967 2.2500627.0004332 3.3750745.0046476.209853.0007877.3633475.0948812.4940789.2757029.0808878.1118961.0755895.211031.0797496.3223756.0047089.124539.0011774.2494324.0009812.3741289-.0001962.1707389-.1437613.3931524-.3064396.4529406-.0828894.0304455-.1747271.0508081-.2626009.0510444-1.0955373.0025601-2.1911139-.0003544-3.2866512.0005514-.2308109.000197-.2308501.0045688-.2306931.2334023.0002355.3938614.0005102.7877228.0008634 1.1815842.0002747.2869674-.1480392.489097-.4142115.5618432-.0246078.0066957-.0519629.0043325-.0781013.0043325h-.8339569c-.3544778.0018118-.528263-.2269035-.531442-.5402597-.0044349-.4331687-.0025118-.8664556.0005102-1.2996638.0005887-.0783784-.0122842-.1196157-.1038079-.1207185-.2246099-.0026782-.4491021-.0220562-.6736334-.0224501l-4.3954933-.0020481c-.2627578-.0001575-.4153104-.102719-.4783802-.3655033-.0654638-.2727884-.0740196-.5526663.0296314-.8231309.0582424-.1520305.261502-.28488.430342-.2849587l4.2678624-.0016543c.2681347-.0000393.5362694-.0004726.8043255.0038205.0889334.0014179.1205664-.0315089.119546-.1209942-.0038069-.3413203-.0032575-.68268-.0012951-1.0239609.0004709-.0834198-.038462-.1070121-.1144832-.1070121-.6638609.0001969-1.3277218-.0014179-1.991622-.0027176l-.4320616.0033959c-.0718988-.000849-.1436508-.0034616-.2151194-.009422-.2078907-.0173299-.4123277-.0726674-.6198259-.0988592-.1779061-.0224501-.3330883-.1037825-.493608-.1702663-.0821437-.0339902-.1576939-.0895247-.2280244-.1456893-.1618541-.1292653-.3348936-.2500626-.4730033-.4020537-.138777-.1527395-.2633073-.3180431-.3482376-.51907-.1397581-.3308829-.1935655-.6707459-.1791619-1.0207311.0079671-.1937011.0578891-.387599.1058488-.5770857.0412484-.1628617.0984311-.3230845.1642874-.4777145.0407383-.0956689.1102837-.1791676.1680944-.2673531.0641686-.097914.1283765-.1958279.1949-.2921664.1523171-.2205624.3064003-.4399825.458796-.6605055.0142858-.0206778.0199374-.0471846.0325356-.0692803.0940748-.1645552.0904248-.171369-.1015316-.1716054-.3662519-.0004332-.732543.0001182-1.0987949-.0008665-.1488634-.0004332-.2807329-.0485631-.3756318-.1665246-.0791217-.098229-.1415243-.205635-.1386985-.3415565.003336-.1606955-.0016876-.3215485-.0041602-.4823227-.0024725-.16116808.1554177-.39520052.3102859-.44368485.0756287-.02367107.157066-.03962246.2359914-.03993755.732386-.00303273 1.4648505-.00645933 2.1971579.00181176.1470581.00165422.2008263-.09590524.2713922-.18149132.0625988-.07593648.1099697-.16427959.167074-.24502117l.2147124-.28380485c.033886-.04820717.0650393-.09776806.0907852-.15003347.1111864-.22584012.3275545-.31469525.509346-.44766285.0591843-.04328537.1526311-.05301375.2307717-.05431349.3596191-.00614424.7194345-.0053959 1.0791713-.00385984zm-33.13096548 5.33182763c.35192675.0291064.53842791.1513215.64894712.527341.09066028.3083541.19894241.6107215.41515346.8627534.15722299.1833031.33713067.3349791.52834146.480629.14293712.1089027.30267191.1822791.45546001.2685347.09450648.0534076.21295355.0738884.32327652.0872403.19902091.024065.39980794.0384803.60020249.0445457.26495567.007956.51413409-.0653809.75562012-.1705813.22103841-.0963385.41986309-.2244616.59977078-.3861811.18077112-.1625072.35106332-.3325766.46527172-.5501456.0760605-.1449804.1508258-.2910636.2159363-.4411248.0288072-.0663262.0236266-.1469496.0487054-.2156391.0962333-.2631781.2591471-.463181.5524783-.5030791.1130702-.0154.2313996.0120128.3474133.0137851l.2969812.0015903.2969811.0000246c.1281018.0006301.2564391-.0018512.3841484.0059473.1828905.0111463.4143293.2354109.4065192.4546342-.0102435.2875188-.0688783.560386-.1500409.8361283-.1164062.3953975-.2927032.7607433-.4934117 1.1149034-.0846555.1494311-.2074982.2783025-.320176.4102854-.1580472.1850755-.3184099.3685755-.4865435.5442771-.0868926.0907457-.1899157.1669972-.2908587.2428549-.1129917.0849165-.2289662.1667216-.3491794.2408463-.0952522.0587247-.1985107.1043338-.2987472.1547875-.0905426.0455304-.179162.0966142-.2733153.1329676-.1733927.066917-.34976816.1261144-.52575116.1859813-.10855686.0369049-.2186836.0690046-.32810389.1032705-.00930151.0029146-.01840679.007444-.02790453.0085468-.13759955.015912-.27488513.0385984-.41291639.045491-.29270321.0146516-.58638759.036314-.87861984.0256404-.2073805-.0076016-.4146825-.0555345-.6189625-.0997651-.20926434-.0453335-.41758677-.0994106-.62100333-.166052-.15628106-.051202-.31146322-.1150469-.4542826-.1961036-.23791457-.1349763-.47637859-.2736549-.69502295-.4371467-.33638498-.2515199-.6352107-.545183-.87508761-.895247-.06518906-.0951569-.15416173-.1741261-.21789866-.2700707-.0647966-.0975201-.11636699-.2047686-.16573956-.3114656-.08124104-.1757016-.16389496-.3514425-.23151733-.5325794l-.1168232-.2985425c-.05640153-.1500357-.10304566-.3031595-.10959204-.4681087-.0012559-.0312332-.01695465-.0621513-.02723733-.0927937-.05761441-.171763-.03426252-.3403356.03724529-.4993769.04509466-.1003952.14741127-.1457681.24301666-.1941342.14847094-.0751488.3060079-.069871.46464378-.0671534.11440464.0019693.22888778.0003939.34333168.0003939.17982919-.000709.36063955-.0129187.53929133.0018905zm17.95032448-3.69239536c-.1839893.00192992-.3765345.02713705-.5490638.08771293-.2741394.09614156-.5330511.22584012-.7425509.44695393-.2323023.2451787-.3866602.5304919-.5070304.8393974-.0230772.0591579-.0419549.1240269-.0436425.1867296-.0054553.2032325-.0026688.4067013-.0016091.6100519.0002354.0456486-.0046704.0957084.011617.1361185.0700165.1735748.1378743.3490006.2233933.5149738.1521601.295396.3588342.5405354.6577384.7044999.3242577.1778284.6663334.2743244 1.0343907.2747577 1.4323932.001733 2.8647865.0048051 4.2971405-.0004727.3304195-.0012603.663704.0408435.9916509-.0390316.093172-.0226864.1932123-.0276885.2796732-.0650659.1621681-.0701074.3202938-.151676.4733566-.2402555.1372071-.079363.2309286-.2048079.3277114-.3309223.1082821-.1411205.2082047-.2814534.2878366-.4425821.1124031-.2274549.1566343-.4653866.1694288-.7127709.0164052-.3167827-.0523946-.611588-.1888168-.9019426-.128612-.2736943-.3172325-.4920116-.5379569-.6804349-.2204105-.18818698-.4884666-.29870449-.7762247-.34986708-.0946242-.0167785-.1904651-.03745622-.2857958-.0378107-.8535411-.00291457-1.7070821-.0016936-2.5606232-.0016936v-.00220562c-.8535411 0-1.7071607-.00492327-2.5606233.00385984zm5.210855 1.16227706c.2014542.0000394.3716287.0724311.4781839.2470299.0433286.071092.0691138.1647916.0692767.2482902.0003473.212055-.0150375.4243856-.0306577.6361255-.0089091.1207973-.1633848.2757424-.298394.2999255-.107929.0192598-.2182519.0350536-.3275545.0352112-1.7659525.0021662-3.5319049.0029145-5.2978574 0-.2131106-.0003545-.4025945-.1189068-.4546751-.3499065-.0585563-.2594365-.0565547-.5230479.0013344-.7815785.0450947-.2013813.2445473-.3326947.4642906-.3332461l1.2558166-.0015558z" fill="#fff" fill-rule="evenodd" transform="translate(0 1)"/></svg>