<svg width="107" height="42" fill="none" xmlns="http://www.w3.org/2000/svg"><path d="M58.98 9.274h-4.364l1.243-1.933h-3.355L49.453 12.1h8.709l.818-2.825zm14.278 5.144l1.169-2.319h1.913l.756-2.825h-7.314l-.421-1.921h-3.176l.417 1.921H60.4l-.756 2.825h2.338v2.319h-3.168l-.753 2.82h17.73l.756-2.82h-3.288zm-8.433-2.319h6.441l-1.169 2.319h-5.291l.02-2.319zM50.875 32.23a1.322 1.322 0 01-.031-.78l1.469-5.787h2.728l.756-2.82h-2.752l1.419-5.592h2.299l.74-2.833h-8.097l-.756 2.82h2.884l-1.419 5.593h-2.431l-.756 2.82h2.474l-1.473 5.823c-.113.39-.39 1.609.16 2.583a2.136 2.136 0 001.29 1.013 6.04 6.04 0 001.527.168 12.961 12.961 0 001.77-.133l.63-2.763c-.436.059-2.127.308-2.43-.113zm19.222-2.32h2.38l2.893-11.17H58.26l-2.954 11.172h2.155l-3.897 6.37h3.328l3.877-6.37h6.399a34.092 34.092 0 00-.367 1.383 4.208 4.208 0 00.39 3.16c.65 1.095 1.91 1.703 3.741 1.812h.588c.63-.007 1.26-.057 1.882-.148l-.713-2.75c-1.293.198-2.84 0-3.07-.39a1.402 1.402 0 01-.07-1.084c.097-.393.323-1.196.55-1.983zM59.35 25.653h11.3l-.37 1.438h-11.3l.37-1.438zm12.349-4.092l-.328 1.27h-11.3l.335-1.27h11.293zm34.368-1.493h-3.261l2.692-10.194h-9.917l.834-2.521h-3.148l-.834 2.521h-5.958l-.304 1.005c-.023.079-1.17 4.626-2.436 9.189h-3.853l-.912 2.825h3.994c-.67 2.338-1.31 4.438-1.75 5.568a4.437 4.437 0 01-.814 1.282c-.168.215-.39.48-.624.807-.888 1.169-3.507 4.11-3.53 4.142l2.104 1.882c.11-.124 2.728-3.043 3.687-4.329.23-.304.42-.55.588-.78a7.016 7.016 0 001.22-1.99c.518-1.33 1.247-3.858 1.995-6.598h13.45c-.838 3.2-1.687 6.352-2.229 8.106-.265.857-.912 1.901-1.278 2.104-.58.311-2.661.413-3.437.33l.585 2.85c.463.05 2.645.14 4.196-.702 1.551-.842 2.311-2.856 2.479-3.332l2.47-9.352h3.098l.892-2.813zm-19.483 0c.803-3.016 1.559-5.896 1.995-7.373h13.311s-.849 3.398-1.874 7.373H86.584z" fill="#1E39C1"/><path d="M95.457 14.063l-3.616.004 1.438 4.922 3.612-.004-1.434-4.922zm-3.511 9.991h-3.612l1.434 4.922 3.612-.004-1.434-4.918zM36.138 0H5.588A5.588 5.588 0 000 5.588v30.55a5.588 5.588 0 005.588 5.588h30.55a5.588 5.588 0 005.588-5.588V5.588A5.588 5.588 0 0036.138 0z" fill="#1E39C1"/><path d="M20.564 35.535c1.998-1.998.606-6.63-3.11-10.346-3.717-3.716-8.349-5.109-10.347-3.11-1.998 1.997-.605 6.63 3.11 10.346 3.717 3.716 8.35 5.108 10.347 3.11z" fill="#fff"/><path opacity=".5" d="M33.404 22.7L19.944 9.24 7.104 22.08l13.46 13.46 12.84-12.84z" fill="url(#paint0_radial_1102_374)"/><path d="M34.62 21.485c1.998-1.998.605-6.63-3.111-10.346S23.16 6.03 21.162 8.029c-1.998 1.997-.605 6.63 3.111 10.346s8.348 5.108 10.346 3.11z" fill="#FF0080"/><defs><radialGradient id="paint0_radial_1102_374" cx="0" cy="0" r="1" gradientUnits="userSpaceOnUse" gradientTransform="matrix(-13.92562 13.92562 -21.72402 -21.72402 26.752 14.679)"><stop offset=".28" stop-color="#1E39C1" stop-opacity="0"/><stop offset=".32" stop-color="#455BCC" stop-opacity=".17"/><stop offset=".39" stop-color="#7081D8" stop-opacity=".36"/><stop offset=".45" stop-color="#96A3E2" stop-opacity=".53"/><stop offset=".52" stop-color="#B7BFEB" stop-opacity=".68"/><stop offset=".59" stop-color="#D1D6F2" stop-opacity=".8"/><stop offset=".66" stop-color="#E5E8F8" stop-opacity=".89"/><stop offset=".74" stop-color="#F4F5FC" stop-opacity=".95"/><stop offset=".82" stop-color="#FCFDFE" stop-opacity=".99"/><stop offset=".94" stop-color="#fff"/></radialGradient></defs></svg>